<?xml version="1.0" encoding="UTF-8" standalone="no"?>
<!-- Created with Inkscape (http://www.inkscape.org/) by Marsupilami -->
<svg
   xmlns:svg="http://www.w3.org/2000/svg"
   xmlns="http://www.w3.org/2000/svg"
   version="1.0"
   width="1024"
   height="281"
   viewBox="0 0 55.532501 15.22001"
   id="svg49931">
  <defs
     id="defs49933" />
  <g
     transform="translate(-347.23375,-524.75218)"
     id="layer1">
    <path
       d="M 31.84375,0.09375 C 31.50251,0.09375 31.250001,0.34250002 31.25,0.6875 C 31.25,1.0175 31.41,1.07749 31.6875,1.15625 C 31.78375,1.18374 31.968749,1.21875 31.96875,1.34375 C 31.96875,1.4625 31.853759,1.53125 31.75,1.53125 C 31.60001,1.53125 31.486251,1.44125 31.375,1.34375 L 31.1875,1.6875 C 31.36125,1.80875 31.5675,1.90625 31.78125,1.90625 C 31.95375,1.90625 32.117499,1.8625 32.25,1.75 C 32.38625,1.63375 32.437498,1.45125 32.4375,1.28125 C 32.4375,1.005 32.236249,0.88375003 32,0.8125 L 31.90625,0.78125 C 31.82876,0.755 31.6875,0.72374999 31.6875,0.625 C 31.6875,0.53126 31.82375,0.46875 31.90625,0.46875 C 32.01375,0.46875 32.106251,0.52624999 32.1875,0.59375 L 32.375,0.25 C 32.22374,0.16375 32.015011,0.093750001 31.84375,0.09375 z M 35.90625,0.09375 C 35.41624,0.09375 34.937501,0.45375003 34.9375,0.96875 C 34.9375,1.52 35.36,1.90625 35.90625,1.90625 C 36.45375,1.90625 36.84375,1.52 36.84375,0.96875 C 36.84375,0.45375 36.39625,0.093749998 35.90625,0.09375 z M 46.875,0.09375 C 46.32625,0.09375 45.9375,0.44749995 45.9375,1 C 45.9375,1.53625 46.30875,1.90625 46.84375,1.90625 C 47.12874,1.90625 47.393751,1.795 47.5625,1.5625 C 47.71376,1.35125 47.71501,1.155 47.71875,0.90625 L 46.84375,0.90625 L 46.84375,1.25 L 47.21875,1.25 C 47.20125,1.4475 47.036251,1.53125 46.84375,1.53125 C 46.5525,1.53125 46.406248,1.265 46.40625,1 C 46.40625,0.74125 46.552499,0.46875 46.84375,0.46875 C 47.02251,0.46875 47.157501,0.58750002 47.21875,0.75 L 47.625,0.5625 C 47.47874,0.24375 47.225011,0.093749998 46.875,0.09375 z M 33.09375,0.15625 L 33.09375,1.84375 L 33.53125,1.84375 L 33.53125,1.28125 L 33.78125,1.28125 C 34.16876,1.28125 34.406252,1.12 34.40625,0.71875 C 34.40625,0.32749 34.147499,0.15624999 33.78125,0.15625 L 33.09375,0.15625 z M 37.5,0.15625 L 37.5,1.84375 L 37.9375,1.84375 L 37.9375,1.1875 L 38.375,1.84375 L 38.90625,1.84375 L 38.375,1.15625 C 38.6175,1.11375 38.751249,0.89125001 38.75,0.65625 C 38.75,0.2925 38.4925,0.15624999 38.15625,0.15625 L 37.5,0.15625 z M 39.34375,0.15625 L 39.34375,0.53125 L 39.71875,0.53125 L 39.71875,1.84375 L 40.15625,1.84375 L 40.15625,0.53125 L 40.53125,0.53125 L 40.53125,0.15625 L 39.34375,0.15625 z M 41.3125,0.15625 L 41.03125,1.84375 L 41.46875,1.84375 L 41.625,0.875 L 42,1.84375 L 42.1875,1.84375 L 42.59375,0.875 L 42.71875,1.84375 L 43.15625,1.84375 L 42.90625,0.15625 L 42.46875,0.15625 L 42.09375,1.0625 L 41.75,0.15625 L 41.3125,0.15625 z M 44.3125,0.15625 L 43.65625,1.84375 L 44.125,1.84375 L 44.25,1.5625 L 44.84375,1.5625 L 44.96875,1.84375 L 45.4375,1.84375 L 44.78125,0.15625 L 44.3125,0.15625 z M 48.875,0.15625 L 48.21875,1.84375 L 48.6875,1.84375 L 48.8125,1.5625 L 49.4375,1.5625 L 49.53125,1.84375 L 50,1.84375 L 49.375,0.15625 L 48.875,0.15625 z M 50.625,0.15625 L 50.625,0.53125 L 51.28125,0.53125 L 50.46875,1.84375 L 51.9375,1.84375 L 51.9375,1.46875 L 51.21875,1.46875 L 52.03125,0.15625 L 50.625,0.15625 z M 52.65625,0.15625 L 52.65625,1.84375 L 53.09375,1.84375 L 53.09375,0.15625 L 52.65625,0.15625 z M 53.84375,0.15625 L 53.84375,1.84375 L 54.28125,1.84375 L 54.28125,0.8125 L 55.09375,1.84375 L 55.53125,1.84375 L 55.53125,0.15625 L 55.09375,0.15625 L 55.09375,1.1875 L 54.28125,0.15625 L 53.84375,0.15625 z M 33.53125,0.5 L 33.625,0.5 C 33.79751,0.5 33.937498,0.505 33.9375,0.71875 C 33.9375,0.9275 33.786258,0.93749999 33.625,0.9375 L 33.53125,0.9375 L 33.53125,0.5 z M 37.9375,0.5 L 37.96875,0.5 C 38.11375,0.5 38.281249,0.50124 38.28125,0.6875 C 38.28125,0.87125 38.113749,0.90624999 37.96875,0.90625 L 37.9375,0.90625 L 37.9375,0.5 z M 35.90625,0.53125 C 36.17,0.53125 36.375,0.73375 36.375,0.96875 C 36.375,1.2625 36.17,1.46875 35.90625,1.46875 C 35.6425,1.46875 35.40625,1.2625 35.40625,0.96875 C 35.40625,0.73375 35.6425,0.53125002 35.90625,0.53125 z M 44.5625,0.6875 L 44.75,1.21875 L 44.375,1.21875 L 44.5625,0.6875 z M 49.125,0.6875 L 49.3125,1.21875 L 48.9375,1.21875 L 49.125,0.6875 z"
       transform="translate(347.23375,524.75218)"
       id="path30156"
       style="fill:#7d7d7d;fill-opacity:1;fill-rule:nonzero;stroke:none" />
    <path
       d="M 14.34375,0 C 13.12501,0 12.125,1.0000001 12.125,2.21875 C 12.125,3.43625 13.12501,4.4062502 14.34375,4.40625 C 15.56125,4.40625 16.53125,3.4362501 16.53125,2.21875 C 16.53125,1 15.56125,5.7741897e-17 14.34375,0 z M 0,0.15625 L 0,14.9375 L 3.90625,14.9375 L 3.90625,11.09375 L 4,11.15625 L 7.125,14.9375 L 12.21875,14.9375 L 7.5,9.78125 L 11.96875,5.15625 L 6.9375,5.15625 L 4.65625,7.875 L 4,8.65625 L 3.90625,8.71875 L 3.90625,0.15625 L 0,0.15625 z M 25.625,0.15625 L 25.625,14.9375 L 29.53125,14.9375 L 29.53125,11.09375 L 29.65625,11.15625 L 32.75,14.9375 L 37.875,14.9375 L 33.15625,9.78125 L 37.59375,5.15625 L 32.59375,5.15625 L 30.28125,7.875 L 29.65625,8.65625 L 29.53125,8.71875 L 29.53125,0.15625 L 25.625,0.15625 z M 22.3125,4.875 C 19.3,4.875 16.999999,7.07625 17,10.125 C 17,13.19374 19.351261,15.21875 22.34375,15.21875 C 23.73625,15.21875 24.845,14.685 24.84375,14.6875 C 24.84375,14.6875 24.815,11.40375 24.8125,11.40625 C 24.40625,11.74124 23.692501,12.125 23.0625,12.125 C 21.85875,12.125 20.96875,11.22 20.96875,10.03125 C 20.96875,8.8475 21.877501,7.9687501 23.0625,7.96875 C 23.72125,7.96875 24.33625,8.3237503 24.84375,8.71875 L 24.84375,5.4375 C 24.07375,5.08 23.1775,4.8750002 22.3125,4.875 z M 41.6875,4.875 C 38.52501,4.875 36.218751,6.87 36.21875,10.125 C 36.21875,13.49625 38.787508,15.21875 41.96875,15.21875 C 44.18876,15.21875 46.51,14.16 47.09375,11.84375 L 43.34375,11.84375 C 43.06,12.4275 42.596249,12.71875 41.9375,12.71875 C 40.63749,12.71875 40.093751,11.895 40.09375,10.6875 L 47.25,10.6875 C 47.25,10.6925 47.281249,10.31875 47.28125,10.25 C 47.28125,6.955 45.01751,4.8749998 41.6875,4.875 z M 54.84375,5 C 53.971463,5.0341602 52.649383,5.2915624 51.875,6.6875 L 51.8125,6.6875 L 51.84375,5.15625 L 47.9375,5.15625 L 47.9375,14.9375 L 51.84375,14.9375 L 51.84375,11.0625 C 51.84375,9.5375 52.368739,8.4374999 54.0625,8.4375 C 54.6275,8.4375 55.041249,8.5624997 55.53125,8.84375 L 55.53125,5 C 55.37656,5 55.134512,4.9886133 54.84375,5 z M 12.375,5.15625 L 12.375,14.9375 L 16.28125,14.9375 L 16.28125,5.15625 L 12.375,5.15625 z M 41.875,7.25 C 42.7225,7.25 43.41876,7.8712498 43.53125,8.71875 L 40.125,8.71875 C 40.25626,7.815 40.953748,7.2499998 41.875,7.25 z"
       transform="translate(347.23375,524.75218)"
       id="path30180"
       style="fill:#df0023;fill-opacity:1;fill-rule:nonzero;stroke:none" />
  </g>
</svg>
