<?xml version="1.0" encoding="utf-8"?>
<!-- Generator: Adobe Illustrator 16.0.0, SVG Export Plug-In . SVG Version: 6.00 Build 0)  -->
<svg version="1.2" baseProfile="tiny" id="Layer_1" xmlns="http://www.w3.org/2000/svg" xmlns:xlink="http://www.w3.org/1999/xlink"
	 x="0px" y="0px" width="1200px" height="1200px" viewBox="0 0 1200 1200" xml:space="preserve">
<g>
	<title>Element 2</title>
	<g id="Ebene_2">
		<g id="Ebene_1-2">
			<path fill="#00265B" d="M272.245,554.158h-27.521v38.992h26.76c10.702,1.529,19.879-6.116,21.403-16.817c0-0.766,0-1.53,0-3.06
				c0-10.704-8.41-19.879-19.111-19.879C273.775,554.158,273.013,554.158,272.245,554.158 M273.775,618.382h-29.052v53.518h-28.29
				V529.692h57.341c30.581,0,48.169,20.644,48.169,44.345C321.944,597.738,303.594,618.382,273.775,618.382"/>
			<path fill="#00265B" d="M385.397,571.743l17.588,51.99h-35.938L385.397,571.743z M373.934,529.692l-53.52,142.972h29.813
				l9.178-25.23h51.99l8.41,25.23h29.819l-53.52-142.972H373.934z"/>
			<polygon fill="#00265B" points="467.97,529.692 467.97,671.899 565.069,671.899 565.069,647.434 497.026,647.434 
				497.026,612.264 555.13,612.264 555.13,587.798 497.026,587.798 497.026,554.158 565.069,554.158 565.069,529.692 			"/>
			<path fill="#00265B" d="M633.88,673.429c-22.171,0-38.991-4.589-53.521-19.114l18.351-18.348
				c9.939,8.408,22.938,12.997,35.932,12.231c16.82,0,25.998-6.115,25.998-17.585c0-4.586-1.529-9.175-4.589-12.231
				c-3.821-3.059-8.41-4.589-13.761-5.354l-17.588-2.294c-10.702-0.765-19.874-5.352-28.29-11.467
				c-7.643-7.646-11.464-17.585-10.701-28.289c0-25.231,19.117-43.578,51.223-43.578c17.588-1.53,34.408,4.586,47.406,16.82
				l-18.35,17.585c-8.41-6.883-19.117-10.704-29.819-9.942c-15.29,0-22.938,8.413-22.938,18.35c0,3.824,1.53,7.648,4.589,9.94
				c3.827,3.059,8.41,5.354,13.761,5.354l17.588,2.291c9.94,0.766,19.88,4.589,28.29,10.705c8.41,8.41,12.231,19.114,11.464,30.581
				C688.161,658.139,664.461,673.429,633.88,673.429"/>
			<path fill="#00265B" d="M755.442,673.429c-22.171,0-38.991-4.589-53.52-19.114l18.35-18.348
				c9.939,8.408,22.938,12.997,35.932,12.231c16.82,0,25.998-6.115,25.998-17.585c0-4.586-1.529-9.175-4.589-12.231
				c-3.821-3.059-8.41-4.589-12.999-5.354l-17.582-2.294c-10.702-0.765-19.88-5.352-28.289-11.467
				c-7.648-7.646-11.47-17.585-10.702-28.289c0-25.231,19.111-43.578,51.223-43.578c17.588-1.53,34.408,4.586,47.401,16.82
				l-18.35,17.585c-8.41-6.883-19.112-10.704-29.813-9.942c-15.291,0-22.939,8.413-22.939,18.35c0,3.824,1.53,7.648,4.589,9.94
				c3.821,3.059,8.41,5.354,13.762,5.354l17.582,2.291c9.939,0.766,19.879,4.589,28.289,10.705
				c8.41,8.41,12.231,19.114,11.47,30.581C810.486,658.139,786.023,673.429,755.442,673.429"/>
			<polygon fill="#00265B" points="837.246,529.692 837.246,671.899 932.816,671.899 932.816,647.434 866.304,647.434 
				866.304,529.692 			"/>
			<polygon fill="#00265B" points="956.518,529.692 956.518,671.899 1053.617,671.899 1053.617,647.434 984.807,647.434 
				984.807,612.264 1042.91,612.264 1042.91,587.798 984.807,587.798 984.807,554.158 1053.617,554.158 1053.617,529.692 			"/>
			<path fill="#00265B" d="M1136.95,554.158h-26.76v37.464h26.76c10.702,1.527,19.88-6.115,20.642-16.82
				c0.768-10.704-6.112-19.879-16.82-20.644C1140.01,554.158,1138.48,554.158,1136.95,554.158 M1159.122,671.899l-29.052-56.576
				h-20.642v56.576h-29.052V529.692h58.104c29.818,0,47.401,19.879,47.401,43.58c0.768,16.82-10.702,32.11-26.76,37.462
				l32.878,61.93L1159.122,671.899z"/>
			<path fill="#00265B" d="M79.581,580.918c0,9.939-8.41,18.35-18.35,18.35c-9.94,0-18.35-7.646-19.112-17.585l0,0
				c0-9.939,8.41-18.35,18.35-18.35l0,0C71.17,562.568,79.581,570.979,79.581,580.918 M91.812,580.918
				c-0.762-16.82-13.761-29.816-30.581-29.816c-16.82,0-30.582,12.996-30.582,29.816c0.762,16.82,13.761,29.816,30.582,29.816
				C78.051,610.734,91.812,597.738,91.812,580.918 M142.272,660.43H19.948v-22.936c11.464,7.646,25.23,11.47,39.753,11.47
				c38.991,0.765,71.102-30.582,71.87-69.575c0-13.762-3.827-27.525-12.231-38.992h23.701L142.272,660.43z M119.339,580.153
				c-0.768,32.11-26.76,58.105-59.638,58.105l0,0c-14.523,0-28.29-5.351-39.753-14.525v-82.572h84.096
				C113.983,551.863,119.339,565.627,119.339,580.153 M154.504,529.692H7.711v142.972h146.793V529.692z"/>
			<path fill="#00265B" d="M272.245,554.158h-27.521v38.992h26.76c10.702,1.529,19.879-6.116,21.403-16.817c0-0.766,0-1.53,0-3.06
				c0-10.704-8.41-19.879-19.111-19.879C273.775,554.158,273.013,554.158,272.245,554.158 M273.775,618.382h-29.052v53.518h-28.29
				V529.692h57.341c30.581,0,48.169,20.644,48.169,44.345C321.944,597.738,303.594,618.382,273.775,618.382"/>
			<path fill="#00265B" d="M385.397,571.743l17.588,51.99h-35.938L385.397,571.743z M373.934,529.692l-53.52,142.972h29.813
				l9.178-25.23h51.99l8.41,25.23h29.819l-53.52-142.972H373.934z"/>
			<polygon fill="#00265B" points="467.97,529.692 467.97,671.899 565.069,671.899 565.069,647.434 497.026,647.434 
				497.026,612.264 555.13,612.264 555.13,587.798 497.026,587.798 497.026,554.158 565.069,554.158 565.069,529.692 			"/>
			<path fill="#00265B" d="M633.88,673.429c-22.171,0-38.991-4.589-53.521-19.114l18.351-18.348
				c9.939,8.408,22.938,12.997,35.932,12.231c16.82,0,25.998-6.115,25.998-17.585c0-4.586-1.529-9.175-4.589-12.231
				c-3.821-3.059-8.41-4.589-13.761-5.354l-17.588-2.294c-10.702-0.765-19.874-5.352-28.29-11.467
				c-7.643-7.646-11.464-17.585-10.701-28.289c0-25.231,19.117-43.578,51.223-43.578c17.588-1.53,34.408,4.586,47.406,16.82
				l-18.35,17.585c-8.41-6.883-19.117-10.704-29.819-9.942c-15.29,0-22.938,8.413-22.938,18.35c0,3.824,1.53,7.648,4.589,9.94
				c3.827,3.059,8.41,5.354,13.761,5.354l17.588,2.291c9.94,0.766,19.88,4.589,28.29,10.705c8.41,8.41,12.231,19.114,11.464,30.581
				C688.161,658.139,664.461,673.429,633.88,673.429"/>
			<path fill="#00265B" d="M755.442,673.429c-22.171,0-38.991-4.589-53.52-19.114l18.35-18.348
				c9.939,8.408,22.938,12.997,35.932,12.231c16.82,0,25.998-6.115,25.998-17.585c0-4.586-1.529-9.175-4.589-12.231
				c-3.821-3.059-8.41-4.589-12.999-5.354l-17.582-2.294c-10.702-0.765-19.88-5.352-28.289-11.467
				c-7.648-7.646-11.47-17.585-10.702-28.289c0-25.231,19.111-43.578,51.223-43.578c17.588-1.53,34.408,4.586,47.401,16.82
				l-18.35,17.585c-8.41-6.883-19.112-10.704-29.813-9.942c-15.291,0-22.939,8.413-22.939,18.35c0,3.824,1.53,7.648,4.589,9.94
				c3.821,3.059,8.41,5.354,13.762,5.354l17.582,2.291c9.939,0.766,19.879,4.589,28.289,10.705
				c8.41,8.41,12.231,19.114,11.47,30.581C810.486,658.139,786.023,673.429,755.442,673.429"/>
			<polygon fill="#00265B" points="837.246,529.692 837.246,671.899 932.816,671.899 932.816,647.434 866.304,647.434 
				866.304,529.692 			"/>
			<polygon fill="#00265B" points="956.518,529.692 956.518,671.899 1053.617,671.899 1053.617,647.434 984.807,647.434 
				984.807,612.264 1042.91,612.264 1042.91,587.798 984.807,587.798 984.807,554.158 1053.617,554.158 1053.617,529.692 			"/>
			<path fill="#00265B" d="M1136.95,554.158h-26.76v37.464h26.76c10.702,1.527,19.88-6.115,20.642-16.82
				c0.768-10.704-6.112-19.879-16.82-20.644C1140.01,554.158,1138.48,554.158,1136.95,554.158 M1159.122,671.899l-29.052-56.576
				h-20.642v56.576h-29.052V529.692h58.104c29.818,0,47.401,19.879,47.401,43.58c0.768,16.82-10.702,32.11-26.76,37.462
				l32.878,61.93L1159.122,671.899z"/>
			<path fill="#00265B" d="M79.581,580.918c0,9.939-8.41,18.35-18.35,18.35c-9.94,0-18.35-7.646-19.112-17.585l0,0
				c0-9.939,8.41-18.35,18.35-18.35l0,0C71.17,562.568,79.581,570.979,79.581,580.918 M91.812,580.918
				c-0.762-16.82-13.761-29.816-30.581-29.816c-16.82,0-30.582,12.996-30.582,29.816c0.762,16.82,13.761,29.816,30.582,29.816
				C78.051,610.734,91.812,597.738,91.812,580.918 M142.272,660.43H19.948v-22.936c11.464,7.646,25.23,11.47,39.753,11.47
				c38.991,0.765,71.102-30.582,71.87-69.575c0-13.762-3.827-27.525-12.231-38.992h23.701L142.272,660.43z M119.339,580.153
				c-0.768,32.11-26.76,58.105-59.638,58.105l0,0c-14.523,0-28.29-5.351-39.753-14.525v-82.572h84.096
				C113.983,551.863,119.339,565.627,119.339,580.153 M154.504,529.692H7.711v142.972h146.793V529.692z"/>
		</g>
	</g>
</g>
</svg>
