<?xml version="1.0" encoding="UTF-8" standalone="no"?><!DOCTYPE svg PUBLIC "-//W3C//DTD SVG 1.1//EN" "http://www.w3.org/Graphics/SVG/1.1/DTD/svg11.dtd"><svg width="100%" height="100%" viewBox="0 0 25 25" version="1.1" xmlns="http://www.w3.org/2000/svg" xmlns:xlink="http://www.w3.org/1999/xlink" xml:space="preserve" xmlns:serif="http://www.serif.com/" style="fill-rule:evenodd;clip-rule:evenodd;stroke-linejoin:round;stroke-miterlimit:2;"><rect id="astro" x="0.315" y="0.47" width="24" height="24" style="fill:none;"/><g><path d="M8.819,20.164c-1.128,-1.018 -1.458,-3.157 -0.987,-4.706c0.815,0.977 1.944,1.286 3.114,1.461c1.806,0.27 3.58,0.169 5.258,-0.646c0.192,-0.093 0.369,-0.217 0.579,-0.343c0.157,0.451 0.198,0.906 0.143,1.369c-0.133,1.128 -0.702,1.999 -1.607,2.66c-0.362,0.264 -0.744,0.5 -1.118,0.749c-1.148,0.766 -1.458,1.663 -1.027,2.969c0.01,0.032 0.019,0.064 0.042,0.141c-0.586,-0.258 -1.014,-0.635 -1.34,-1.131c-0.344,-0.523 -0.508,-1.101 -0.517,-1.727c-0.004,-0.305 -0.004,-0.612 -0.046,-0.912c-0.101,-0.732 -0.449,-1.06 -1.105,-1.079c-0.674,-0.02 -1.206,0.391 -1.348,1.038c-0.011,0.05 -0.026,0.099 -0.042,0.157l0.001,0Z" style="fill:url(#_Linear1);fill-rule:nonzero;"/><path d="M3.144,15.932c0,0 3.086,-1.499 6.18,-1.499l2.333,-7.202c0.087,-0.348 0.342,-0.585 0.63,-0.585c0.288,0 0.543,0.237 0.63,0.585l2.333,7.202c3.664,0 6.18,1.499 6.18,1.499c-0,0 -5.241,-14.241 -5.252,-14.27c-0.15,-0.421 -0.404,-0.692 -0.746,-0.692l-6.289,-0c-0.343,-0 -0.586,0.271 -0.747,0.692c-0.011,0.028 -5.252,14.27 -5.252,14.27Z" style="fill:#fff;fill-rule:nonzero;"/></g><defs><linearGradient id="_Linear1" x1="0" y1="0" x2="1" y2="0" gradientUnits="userSpaceOnUse" gradientTransform="matrix(10.8425,-5.19125,5.19125,10.8425,7.62425,23.8183)"><stop offset="0" style="stop-color:#d83333;stop-opacity:1"/><stop offset="1" style="stop-color:#f041ff;stop-opacity:1"/></linearGradient></defs></svg>