<?xml version="1.0" encoding="UTF-8" standalone="no"?><!DOCTYPE svg PUBLIC "-//W3C//DTD SVG 1.1//EN" "http://www.w3.org/Graphics/SVG/1.1/DTD/svg11.dtd"><svg width="100%" height="100%" viewBox="0 0 25 25" version="1.1" xmlns="http://www.w3.org/2000/svg" xmlns:xlink="http://www.w3.org/1999/xlink" xml:space="preserve" xmlns:serif="http://www.serif.com/" style="fill-rule:evenodd;clip-rule:evenodd;stroke-linejoin:round;stroke-miterlimit:2;"><rect id="aws" x="0.284" y="0.384" width="24" height="24" style="fill:none;"/><g><path d="M7.321,10.523c-0,0.28 0.03,0.507 0.083,0.673c0.06,0.167 0.136,0.348 0.242,0.545c0.038,0.061 0.053,0.121 0.053,0.174c0,0.076 -0.045,0.151 -0.144,0.227l-0.476,0.318c-0.068,0.045 -0.137,0.068 -0.197,0.068c-0.076,-0 -0.151,-0.038 -0.227,-0.106c-0.106,-0.114 -0.197,-0.235 -0.272,-0.356c-0.076,-0.128 -0.152,-0.272 -0.235,-0.446c-0.59,0.696 -1.332,1.044 -2.224,1.044c-0.636,0 -1.143,-0.182 -1.513,-0.545c-0.371,-0.363 -0.56,-0.847 -0.56,-1.452c-0,-0.643 0.227,-1.165 0.688,-1.559c0.462,-0.393 1.074,-0.59 1.854,-0.59c0.257,-0 0.522,0.023 0.802,0.061c0.28,0.037 0.567,0.098 0.87,0.166l-0,-0.552c-0,-0.575 -0.121,-0.976 -0.356,-1.211c-0.242,-0.234 -0.65,-0.348 -1.233,-0.348c-0.265,0 -0.537,0.03 -0.817,0.098c-0.28,0.069 -0.552,0.152 -0.817,0.258c-0.121,0.053 -0.212,0.083 -0.265,0.098c-0.053,0.015 -0.091,0.023 -0.121,0.023c-0.106,-0 -0.159,-0.076 -0.159,-0.235l0,-0.371c0,-0.121 0.015,-0.211 0.053,-0.264c0.038,-0.053 0.106,-0.106 0.212,-0.159c0.265,-0.136 0.582,-0.25 0.953,-0.341c0.371,-0.098 0.764,-0.143 1.18,-0.143c0.901,-0 1.559,0.204 1.983,0.612c0.416,0.409 0.628,1.029 0.628,1.862l-0,2.451l0.015,-0Zm-3.072,1.15c0.25,-0 0.507,-0.045 0.779,-0.136c0.273,-0.091 0.515,-0.257 0.719,-0.484c0.121,-0.144 0.212,-0.303 0.257,-0.485c0.046,-0.181 0.076,-0.401 0.076,-0.658l-0,-0.318c-0.219,-0.053 -0.454,-0.098 -0.696,-0.128c-0.242,-0.031 -0.477,-0.046 -0.711,-0.046c-0.507,0 -0.878,0.099 -1.128,0.303c-0.249,0.204 -0.37,0.492 -0.37,0.87c-0,0.356 0.09,0.62 0.28,0.802c0.181,0.189 0.446,0.28 0.794,0.28Zm6.075,0.817c-0.136,0 -0.227,-0.023 -0.287,-0.076c-0.061,-0.045 -0.114,-0.151 -0.159,-0.295l-1.778,-5.848c-0.045,-0.151 -0.068,-0.25 -0.068,-0.303c-0,-0.121 0.06,-0.189 0.181,-0.189l0.742,0c0.144,0 0.242,0.023 0.295,0.076c0.061,0.045 0.106,0.151 0.151,0.295l1.271,5.008l1.181,-5.008c0.037,-0.151 0.083,-0.25 0.143,-0.295c0.061,-0.046 0.167,-0.076 0.303,-0.076l0.605,0c0.144,0 0.242,0.023 0.303,0.076c0.06,0.045 0.113,0.151 0.144,0.295l1.195,5.069l1.309,-5.069c0.045,-0.151 0.098,-0.25 0.151,-0.295c0.061,-0.046 0.159,-0.076 0.295,-0.076l0.704,0c0.121,0 0.189,0.061 0.189,0.189c0,0.038 -0.007,0.076 -0.015,0.121c-0.008,0.046 -0.023,0.106 -0.053,0.19l-1.823,5.848c-0.046,0.151 -0.099,0.25 -0.159,0.295c-0.061,0.045 -0.159,0.076 -0.288,0.076l-0.65,-0c-0.144,-0 -0.243,-0.023 -0.303,-0.076c-0.061,-0.053 -0.114,-0.151 -0.144,-0.303l-1.172,-4.88l-1.166,4.873c-0.037,0.151 -0.083,0.249 -0.143,0.302c-0.061,0.053 -0.167,0.076 -0.303,0.076l-0.651,0Zm9.722,0.204c-0.393,0 -0.786,-0.045 -1.165,-0.136c-0.378,-0.091 -0.673,-0.189 -0.87,-0.303c-0.121,-0.068 -0.204,-0.143 -0.234,-0.211c-0.031,-0.068 -0.046,-0.144 -0.046,-0.212l0,-0.386c0,-0.159 0.061,-0.235 0.174,-0.235c0.046,0 0.091,0.008 0.136,0.023c0.046,0.015 0.114,0.046 0.19,0.076c0.257,0.113 0.537,0.204 0.832,0.265c0.302,0.06 0.598,0.09 0.9,0.09c0.477,0 0.848,-0.083 1.105,-0.249c0.257,-0.167 0.393,-0.409 0.393,-0.719c0,-0.212 -0.068,-0.386 -0.204,-0.53c-0.136,-0.143 -0.394,-0.272 -0.764,-0.393l-1.097,-0.341c-0.553,-0.174 -0.961,-0.431 -1.211,-0.771c-0.249,-0.333 -0.378,-0.704 -0.378,-1.097c-0,-0.318 0.068,-0.598 0.204,-0.84c0.136,-0.242 0.318,-0.454 0.545,-0.62c0.227,-0.175 0.484,-0.303 0.787,-0.394c0.302,-0.091 0.62,-0.129 0.953,-0.129c0.167,0 0.341,0.008 0.507,0.031c0.174,0.022 0.333,0.053 0.492,0.083c0.151,0.038 0.295,0.076 0.431,0.121c0.136,0.045 0.242,0.091 0.318,0.136c0.106,0.061 0.181,0.121 0.227,0.189c0.045,0.061 0.068,0.144 0.068,0.25l-0,0.356c-0,0.158 -0.061,0.242 -0.174,0.242c-0.061,-0 -0.159,-0.031 -0.288,-0.091c-0.431,-0.197 -0.915,-0.295 -1.452,-0.295c-0.432,-0 -0.772,0.068 -1.007,0.212c-0.234,0.143 -0.355,0.363 -0.355,0.673c-0,0.212 0.075,0.393 0.227,0.537c0.151,0.144 0.431,0.288 0.832,0.416l1.074,0.341c0.545,0.174 0.939,0.416 1.173,0.726c0.235,0.31 0.348,0.666 0.348,1.059c0,0.326 -0.068,0.621 -0.197,0.878c-0.136,0.257 -0.317,0.484 -0.552,0.666c-0.234,0.189 -0.514,0.325 -0.84,0.423c-0.34,0.106 -0.696,0.159 -1.082,0.159Z" style="fill:#fff;fill-rule:nonzero;"/><g><path d="M21.476,16.371c-2.489,1.839 -6.105,2.815 -9.215,2.815c-4.358,-0 -8.284,-1.612 -11.25,-4.29c-0.235,-0.212 -0.023,-0.499 0.257,-0.333c3.208,1.861 7.165,2.989 11.258,2.989c2.762,-0 5.795,-0.575 8.587,-1.756c0.416,-0.189 0.772,0.273 0.363,0.575Z" style="fill:#f90;"/><path d="M22.513,15.191c-0.318,-0.409 -2.103,-0.197 -2.913,-0.098c-0.242,0.03 -0.28,-0.182 -0.061,-0.341c1.423,-0.998 3.761,-0.711 4.033,-0.378c0.272,0.34 -0.076,2.678 -1.407,3.798c-0.204,0.174 -0.401,0.083 -0.31,-0.144c0.302,-0.749 0.976,-2.436 0.658,-2.837Z" style="fill:#f90;"/></g></g></svg>