<?xml version="1.0" encoding="UTF-8" standalone="no"?><!DOCTYPE svg PUBLIC "-//W3C//DTD SVG 1.1//EN" "http://www.w3.org/Graphics/SVG/1.1/DTD/svg11.dtd"><svg width="100%" height="100%" viewBox="0 0 25 25" version="1.1" xmlns="http://www.w3.org/2000/svg" xmlns:xlink="http://www.w3.org/1999/xlink" xml:space="preserve" xmlns:serif="http://www.serif.com/" style="fill-rule:evenodd;clip-rule:evenodd;stroke-linejoin:round;stroke-miterlimit:2;"><rect id="docker" x="0.706" y="0.462" width="24" height="24" style="fill:none;"/><clipPath id="_clip1"><rect id="docker.svg" x="1.206" y="4.367" width="23" height="16.189"/></clipPath><g clip-path="url(#_clip1)"><path d="M21.094,10.219c-0.12,-0.875 -0.602,-1.634 -1.472,-2.321l-0.503,-0.34l-0.335,0.508c-0.43,0.655 -0.645,1.566 -0.577,2.441c0.032,0.304 0.131,0.86 0.44,1.336c-0.309,0.173 -0.922,0.404 -1.739,0.388l-15.613,0l-0.031,0.183c-0.147,0.875 -0.147,3.615 1.608,5.716c1.336,1.598 3.332,2.41 5.941,2.41c5.659,0 9.84,-2.635 11.804,-7.434c0.77,0.016 2.431,0.005 3.285,-1.645c0.021,-0.037 0.074,-0.136 0.22,-0.451l0.084,-0.173l-0.477,-0.324c-0.524,-0.341 -1.713,-0.472 -2.635,-0.294Zm-7.314,-5.852l-2.373,0l-0,2.185l2.373,-0l0,-2.185Zm0,2.625l-2.373,-0l-0,2.185l2.373,-0l0,-2.185Zm-2.808,-0l-2.373,-0l-0,2.185l2.373,-0l-0,-2.185Zm-2.803,-0l-2.373,-0l-0,2.185l2.373,-0l0,-2.185Zm-2.808,2.625l-2.374,-0l0,2.184l2.374,0l-0,-2.184Zm2.808,-0l-2.373,-0l-0,2.184l2.373,0l0,-2.184Zm2.803,-0l-2.373,-0l-0,2.184l2.373,0l-0,-2.184Zm2.808,-0l-2.373,-0l-0,2.184l2.373,0l0,-2.184Zm2.808,-0l-2.373,-0l0,2.184l2.373,0l0,-2.184Z" style="fill:#1d63ed;fill-rule:nonzero;"/></g></svg>