<?xml version="1.0" encoding="UTF-8" standalone="no"?><!DOCTYPE svg PUBLIC "-//W3C//DTD SVG 1.1//EN" "http://www.w3.org/Graphics/SVG/1.1/DTD/svg11.dtd"><svg width="100%" height="100%" viewBox="0 0 25 25" version="1.1" xmlns="http://www.w3.org/2000/svg" xmlns:xlink="http://www.w3.org/1999/xlink" xml:space="preserve" xmlns:serif="http://www.serif.com/" style="fill-rule:evenodd;clip-rule:evenodd;stroke-linejoin:round;stroke-miterlimit:2;"><rect id="dynamodb" x="0.113" y="0.103" width="24" height="24" style="fill:none;"/><path d="M15.078,23.564l0.28,-0l4.557,-2.279l0.076,-0.107l-0,-18.19l-0.076,-0.108l-4.557,-2.277l-0.283,0l0.003,22.961" style="fill:#5294cf;fill-rule:nonzero;"/><path d="M9.148,23.564l-0.283,-0l-4.553,-2.279l-0.093,-0.159l-0.047,-18.045l0.14,-0.201l4.553,-2.277l0.286,0l-0.003,22.961" style="fill:#1f5b98;fill-rule:nonzero;"/><rect x="8.873" y="0.603" width="6.48" height="22.96" style="fill:#2d72b8;fill-rule:nonzero;"/><path d="M22.3,11.568l-0.154,-0.034l-2.199,-0.205l-0.032,0.016l-4.561,-0.183l-6.481,0l-4.561,0.183l-0,-3.478l-0.005,0.002l0.005,-0.01l4.561,-1.057l6.481,0l4.561,1.057l1.676,0.891l0,-0.573l0.709,-0.077l-0.073,-0.143l-2.244,-1.605l-0.068,0.022l-4.561,-1.413l-6.481,0l-4.561,1.413l-0,-3.494l-2.386,2.795l0,2.44l0.019,-0.013l0.69,0.075l0,0.585l-0.709,0.379l0,2.429l0.019,-0.002l0.69,0.01l0,1.019l-0.595,0.009l-0.114,-0.011l0,2.43l0.709,0.381l0,0.591l-0.679,0.075l-0.03,-0.022l0,2.44l2.386,2.795l-0,-3.494l4.561,1.413l6.481,0l4.574,-1.417l0.061,0.027l2.214,-1.581l0.097,-0.158l-0.709,-0.078l0,-0.58l-0.092,-0.037l-1.516,0.817l-0.055,0.115l-4.574,1.051l-0,0.001l-6.481,-0l-0,-0.001l-4.561,-1.056l-0,-3.49l4.561,0.181l-0,0.005l6.481,-0l4.561,-0.186l0.104,0.047l2.131,-0.183l0.15,-0.074l-0.709,-0.01l0,-1.019l0.709,-0.01" style="fill:#1a476f;fill-rule:nonzero;"/><path d="M19.915,17.791l-0,3.494l2.385,-2.795l0,-2.424l-2.372,1.721l-0.013,0.004m-0,-1.476l0.013,-0.003l2.372,-1.276l0,-2.439l-2.385,0.22l-0,3.498m0.013,-8.453l-0.013,-0.003l-0,3.486l2.385,0.223l0,-2.438l-2.372,-1.268m0,-1.474l2.372,1.712l0,-2.425l-2.385,-2.795l-0,3.494l0.013,0.005l0,0.009" style="fill:#2d72b8;fill-rule:nonzero;"/></svg>