<?xml version="1.0" encoding="UTF-8" standalone="no"?><!DOCTYPE svg PUBLIC "-//W3C//DTD SVG 1.1//EN" "http://www.w3.org/Graphics/SVG/1.1/DTD/svg11.dtd"><svg width="100%" height="100%" viewBox="0 0 25 25" version="1.1" xmlns="http://www.w3.org/2000/svg" xmlns:xlink="http://www.w3.org/1999/xlink" xml:space="preserve" xmlns:serif="http://www.serif.com/" style="fill-rule:evenodd;clip-rule:evenodd;stroke-linejoin:round;stroke-miterlimit:2;"><rect id="github" x="0.194" y="0.77" width="24" height="24" style="fill:none;"/><path d="M12.194,1.27c-6.35,0 -11.5,5.149 -11.5,11.5c-0,5.081 3.294,9.392 7.865,10.913c0.574,0.106 0.76,-0.25 0.76,-0.553l-0,-2.141c-3.199,0.696 -3.865,-1.357 -3.865,-1.357c-0.524,-1.329 -1.278,-1.683 -1.278,-1.683c-1.043,-0.714 0.08,-0.699 0.08,-0.699c1.155,0.081 1.762,1.186 1.762,1.186c1.026,1.757 2.69,1.249 3.347,0.955c0.102,-0.742 0.4,-1.25 0.73,-1.537c-2.554,-0.292 -5.239,-1.278 -5.239,-5.684c-0,-1.256 0.449,-2.282 1.184,-3.087c-0.119,-0.29 -0.513,-1.46 0.112,-3.043c0,-0 0.966,-0.309 3.164,1.178c0.917,-0.254 1.9,-0.382 2.878,-0.387c0.977,0.005 1.961,0.133 2.88,0.387c2.196,-1.487 3.16,-1.178 3.16,-1.178c0.626,1.584 0.232,2.754 0.113,3.043c0.738,0.805 1.184,1.832 1.184,3.087c-0,4.417 -2.69,5.39 -5.251,5.674c0.412,0.357 0.789,1.057 0.789,2.13l-0,3.156c-0,0.305 0.184,0.665 0.767,0.552c4.567,-1.523 7.858,-5.833 7.858,-10.912c-0,-6.351 -5.15,-11.5 -11.5,-11.5Z" style="fill:#fff;fill-rule:nonzero;"/></svg>