<?xml version="1.0" encoding="UTF-8" standalone="no"?><!DOCTYPE svg PUBLIC "-//W3C//DTD SVG 1.1//EN" "http://www.w3.org/Graphics/SVG/1.1/DTD/svg11.dtd"><svg width="100%" height="100%" viewBox="0 0 25 25" version="1.1" xmlns="http://www.w3.org/2000/svg" xmlns:xlink="http://www.w3.org/1999/xlink" xml:space="preserve" xmlns:serif="http://www.serif.com/" style="fill-rule:evenodd;clip-rule:evenodd;stroke-linejoin:round;stroke-miterlimit:2;"><rect id="gitlab" x="0.397" y="0.384" width="24" height="24" style="fill:none;"/><path d="M23.516,10.075l-0.032,-0.083l-3.131,-8.171c-0.064,-0.16 -0.177,-0.296 -0.323,-0.388c-0.297,-0.185 -0.681,-0.164 -0.958,0.052c-0.134,0.108 -0.231,0.255 -0.278,0.421l-2.114,6.468l-8.56,0l-2.114,-6.468c-0.046,-0.166 -0.143,-0.314 -0.278,-0.423c-0.277,-0.215 -0.66,-0.236 -0.958,-0.051c-0.146,0.092 -0.258,0.228 -0.323,0.388l-3.136,8.168l-0.032,0.082c-0.923,2.412 -0.133,5.164 1.929,6.72l0.011,0.008l0.028,0.02l4.77,3.572l2.359,1.786l1.438,1.085c0.344,0.262 0.824,0.262 1.169,0l1.437,-1.085l2.36,-1.786l4.798,-3.593l0.012,-0.01c2.057,-1.555 2.845,-4.302 1.926,-6.712Z" style="fill:#e24329;fill-rule:nonzero;"/><path d="M23.516,10.075l-0.032,-0.083c-1.526,0.313 -2.964,0.96 -4.211,1.893l-6.876,5.199c2.342,1.772 4.38,3.311 4.38,3.311l4.799,-3.593l0.012,-0.01c2.06,-1.556 2.849,-4.305 1.928,-6.717Z" style="fill:#fc6d26;fill-rule:nonzero;"/><path d="M8.017,20.395l2.359,1.786l1.438,1.085c0.344,0.262 0.824,0.262 1.169,-0l1.437,-1.085l2.36,-1.786c-0,-0 -2.041,-1.544 -4.383,-3.311c-2.342,1.767 -4.38,3.311 -4.38,3.311Z" style="fill:#fca326;fill-rule:nonzero;"/><path d="M5.519,11.885c-1.245,-0.935 -2.683,-1.583 -4.208,-1.897l-0.032,0.082c-0.923,2.412 -0.133,5.164 1.929,6.72l0.011,0.008l0.028,0.02l4.77,3.572c-0,0 2.036,-1.539 4.38,-3.311l-6.878,-5.194Z" style="fill:#fc6d26;fill-rule:nonzero;"/></svg>