<?xml version="1.0" encoding="UTF-8" standalone="no"?><!DOCTYPE svg PUBLIC "-//W3C//DTD SVG 1.1//EN" "http://www.w3.org/Graphics/SVG/1.1/DTD/svg11.dtd"><svg width="100%" height="100%" viewBox="0 0 25 25" version="1.1" xmlns="http://www.w3.org/2000/svg" xmlns:xlink="http://www.w3.org/1999/xlink" xml:space="preserve" xmlns:serif="http://www.serif.com/" style="fill-rule:evenodd;clip-rule:evenodd;stroke-linejoin:round;stroke-miterlimit:2;"><rect id="go" x="0.145" y="0.296" width="24" height="24" style="fill:none;"/><g><g><g><path d="M2.381,10.601c-0.045,0 -0.056,-0.022 -0.034,-0.056l0.236,-0.302c0.022,-0.034 0.078,-0.056 0.123,-0.056l3.998,-0c0.044,-0 0.055,0.034 0.033,0.067l-0.19,0.291c-0.023,0.034 -0.079,0.067 -0.112,0.067l-4.054,-0.011Z" style="fill:#00acd7;fill-rule:nonzero;"/></g></g></g><g><g><g><path d="M0.69,11.632c-0.045,-0 -0.056,-0.023 -0.034,-0.056l0.236,-0.303c0.022,-0.033 0.078,-0.056 0.123,-0.056l5.106,0c0.045,0 0.067,0.034 0.056,0.067l-0.089,0.269c-0.012,0.045 -0.056,0.067 -0.101,0.067l-5.297,0.012Z" style="fill:#00acd7;fill-rule:nonzero;"/></g></g></g><g><g><g><path d="M3.4,12.662c-0.045,-0 -0.056,-0.034 -0.034,-0.067l0.157,-0.28c0.023,-0.034 0.067,-0.068 0.112,-0.068l2.24,0c0.045,0 0.067,0.034 0.067,0.079l-0.022,0.269c-0,0.044 -0.045,0.078 -0.079,0.078l-2.441,-0.011Z" style="fill:#00acd7;fill-rule:nonzero;"/></g></g></g><g><g id="CXHf1q_3_"><g><g><path d="M15.024,10.4c-0.706,0.179 -1.187,0.313 -1.881,0.492c-0.168,0.045 -0.18,0.056 -0.325,-0.112c-0.168,-0.19 -0.291,-0.313 -0.527,-0.425c-0.705,-0.347 -1.388,-0.246 -2.026,0.168c-0.762,0.493 -1.154,1.22 -1.143,2.128c0.012,0.895 0.627,1.635 1.512,1.758c0.762,0.1 1.4,-0.168 1.904,-0.739c0.101,-0.124 0.19,-0.258 0.302,-0.415l-2.161,0c-0.235,0 -0.291,-0.145 -0.213,-0.336c0.146,-0.347 0.414,-0.929 0.571,-1.22c0.034,-0.067 0.112,-0.179 0.28,-0.179l4.076,-0c-0.022,0.302 -0.022,0.604 -0.067,0.907c-0.123,0.806 -0.425,1.545 -0.918,2.194c-0.806,1.064 -1.859,1.725 -3.192,1.904c-1.097,0.146 -2.116,-0.067 -3.012,-0.739c-0.829,-0.627 -1.299,-1.456 -1.422,-2.486c-0.146,-1.221 0.213,-2.318 0.952,-3.281c0.795,-1.041 1.847,-1.702 3.135,-1.937c1.053,-0.191 2.061,-0.068 2.968,0.548c0.593,0.392 1.019,0.93 1.299,1.579c0.067,0.101 0.022,0.157 -0.112,0.191Z" style="fill:#00acd7;fill-rule:nonzero;"/></g><g><path d="M18.731,16.592c-1.02,-0.022 -1.949,-0.313 -2.733,-0.985c-0.661,-0.571 -1.075,-1.299 -1.209,-2.161c-0.202,-1.266 0.145,-2.386 0.907,-3.382c0.817,-1.075 1.803,-1.635 3.135,-1.87c1.143,-0.202 2.218,-0.09 3.192,0.571c0.884,0.604 1.433,1.422 1.579,2.497c0.19,1.512 -0.247,2.744 -1.288,3.796c-0.739,0.75 -1.646,1.221 -2.688,1.434c-0.302,0.056 -0.604,0.067 -0.895,0.1Zm2.665,-4.524c-0.011,-0.145 -0.011,-0.257 -0.034,-0.369c-0.201,-1.109 -1.22,-1.736 -2.284,-1.49c-1.042,0.235 -1.714,0.896 -1.96,1.949c-0.202,0.873 0.224,1.758 1.03,2.116c0.616,0.269 1.232,0.235 1.826,-0.067c0.884,-0.459 1.366,-1.176 1.422,-2.139Z" style="fill:#00acd7;fill-rule:nonzero;"/></g></g></g></g></svg>