<?xml version="1.0" encoding="UTF-8" standalone="no"?><!DOCTYPE svg PUBLIC "-//W3C//DTD SVG 1.1//EN" "http://www.w3.org/Graphics/SVG/1.1/DTD/svg11.dtd"><svg width="100%" height="100%" viewBox="0 0 25 25" version="1.1" xmlns="http://www.w3.org/2000/svg" xmlns:xlink="http://www.w3.org/1999/xlink" xml:space="preserve" xmlns:serif="http://www.serif.com/" style="fill-rule:evenodd;clip-rule:evenodd;stroke-linejoin:round;stroke-miterlimit:2;"><rect id="graphql" x="0.01" y="0.884" width="24" height="24" style="fill:none;"/><g><g><g><path d="M2.988,18.31l0.827,0.477l9.208,-15.949l-0.826,-0.478l-9.209,15.95Z" style="fill:#e535ab;"/></g></g><g><g><rect x="2.799" y="17.036" width="18.417" height="0.955" style="fill:#e535ab;"/></g></g><g><g><path d="M3.163,17.572l9.212,5.319l0.477,-0.827l-9.212,-5.319l-0.477,0.827Z" style="fill:#e535ab;"/></g></g><g><g><path d="M11.166,3.71l9.212,5.319l0.477,-0.827l-9.212,-5.319l-0.477,0.827Z" style="fill:#e535ab;"/></g></g><g><g><path d="M3.166,8.198l0.477,0.827l9.212,-5.319l-0.477,-0.826l-9.212,5.318Z" style="fill:#e535ab;"/></g></g><g><g><path d="M10.999,2.838l9.209,15.949l0.827,-0.477l-9.209,-15.949l-0.827,0.477Z" style="fill:#e535ab;"/></g></g><g><g><rect x="3.529" y="7.565" width="0.955" height="10.638" style="fill:#e535ab;"/></g></g><g><g><rect x="19.537" y="7.565" width="0.954" height="10.638" style="fill:#e535ab;"/></g></g><g><g><path d="M11.796,21.765l0.417,0.722l8.012,-4.626l-0.417,-0.722l-8.012,4.626Z" style="fill:#e535ab;"/></g></g><path d="M21.756,18.513c-0.552,0.961 -1.782,1.288 -2.742,0.736c-0.961,-0.552 -1.288,-1.782 -0.736,-2.742c0.552,-0.961 1.782,-1.288 2.742,-0.736c0.966,0.557 1.294,1.782 0.736,2.742" style="fill:#e535ab;fill-rule:nonzero;"/><path d="M5.737,9.262c-0.552,0.96 -1.783,1.288 -2.743,0.736c-0.96,-0.552 -1.288,-1.783 -0.736,-2.743c0.552,-0.96 1.783,-1.288 2.743,-0.736c0.96,0.558 1.288,1.782 0.736,2.743" style="fill:#e535ab;fill-rule:nonzero;"/><path d="M2.264,18.513c-0.552,-0.96 -0.224,-2.185 0.736,-2.742c0.96,-0.552 2.185,-0.225 2.743,0.736c0.552,0.96 0.224,2.185 -0.736,2.742c-0.966,0.552 -2.191,0.225 -2.743,-0.736" style="fill:#e535ab;fill-rule:nonzero;"/><path d="M18.283,9.262c-0.552,-0.961 -0.224,-2.185 0.736,-2.743c0.961,-0.552 2.185,-0.224 2.743,0.736c0.552,0.96 0.224,2.185 -0.736,2.743c-0.96,0.552 -2.191,0.224 -2.743,-0.736" style="fill:#e535ab;fill-rule:nonzero;"/><path d="M12.01,24.143c-1.11,-0 -2.007,-0.897 -2.007,-2.007c0,-1.11 0.897,-2.007 2.007,-2.007c1.11,0 2.007,0.897 2.007,2.007c-0,1.104 -0.897,2.007 -2.007,2.007" style="fill:#e535ab;fill-rule:nonzero;"/><path d="M12.01,5.639c-1.11,0 -2.007,-0.897 -2.007,-2.007c0,-1.109 0.897,-2.006 2.007,-2.006c1.11,-0 2.007,0.897 2.007,2.006c-0,1.11 -0.897,2.007 -2.007,2.007" style="fill:#e535ab;fill-rule:nonzero;"/></g></svg>