<?xml version="1.0" encoding="UTF-8" standalone="no"?><!DOCTYPE svg PUBLIC "-//W3C//DTD SVG 1.1//EN" "http://www.w3.org/Graphics/SVG/1.1/DTD/svg11.dtd"><svg width="100%" height="100%" viewBox="0 0 25 25" version="1.1" xmlns="http://www.w3.org/2000/svg" xmlns:xlink="http://www.w3.org/1999/xlink" xml:space="preserve" xmlns:serif="http://www.serif.com/" style="fill-rule:evenodd;clip-rule:evenodd;stroke-linejoin:round;stroke-miterlimit:2;"><rect id="java" x="0.739" y="0.77" width="24" height="24" style="fill:none;"/><clipPath id="_clip1"><rect id="java.svg" x="1.239" y="1.27" width="23" height="23"/></clipPath><g clip-path="url(#_clip1)"><path d="M9.592,19.052c0,-0 -0.884,0.538 0.615,0.691c1.804,0.23 2.765,0.192 4.761,-0.191c0.402,0.245 0.826,0.451 1.267,0.614c-4.492,1.921 -10.177,-0.115 -6.644,-1.114l0.001,-0Zm-0.575,-2.496c0,-0 -0.96,0.729 0.538,0.884c1.958,0.192 3.494,0.23 6.145,-0.307c0.258,0.261 0.573,0.459 0.921,0.576c-5.415,1.613 -11.482,0.153 -7.604,-1.153l0,-0Zm10.599,4.377c0,-0 0.653,0.538 -0.729,0.96c-2.573,0.769 -10.791,0.999 -13.096,0c-0.806,-0.345 0.73,-0.844 1.222,-0.921c0.5,-0.115 0.769,-0.115 0.769,-0.115c-0.884,-0.615 -5.876,1.267 -2.534,1.804c9.178,1.498 16.744,-0.653 14.363,-1.728l0.005,-0Zm-9.609,-6.989c0,-0 -4.186,0.999 -1.497,1.344c1.152,0.154 3.417,0.115 5.53,-0.038c1.728,-0.154 3.457,-0.46 3.457,-0.46c-0,-0 -0.615,0.269 -1.037,0.537c-4.262,1.114 -12.443,0.615 -10.1,-0.537c1.997,-0.96 3.648,-0.845 3.648,-0.845l-0.001,-0.001Zm7.49,4.186c4.301,-2.228 2.304,-4.377 0.921,-4.109c-0.345,0.077 -0.499,0.154 -0.499,0.154c-0,-0 0.115,-0.23 0.384,-0.307c2.727,-0.961 4.877,2.88 -0.884,4.377c-0,-0 0.038,-0.038 0.076,-0.115l0.002,-0Zm-7.065,6.068c4.147,0.268 10.484,-0.154 10.637,-2.114c0,0 -0.307,0.769 -3.418,1.344c-3.533,0.653 -7.911,0.575 -10.484,0.154c-0,0 0.538,0.46 3.265,0.615l-0,0.001Z" style="fill:#4e7896;fill-rule:nonzero;"/><path d="M14.892,1.271c0,-0 2.381,2.419 -2.265,6.068c-3.726,2.956 -0.845,4.646 -0,6.567c-2.19,-1.959 -3.764,-3.687 -2.689,-5.3c1.575,-2.382 5.914,-3.527 4.954,-7.335Zm-1.222,11.022c1.114,1.267 -0.307,2.419 -0.307,2.419c0,0 2.842,-1.459 1.536,-3.264c-1.19,-1.728 -2.113,-2.574 2.88,-5.454c0,0 -7.872,1.959 -4.109,6.299Z" style="fill:#f58219;fill-rule:nonzero;"/></g></svg>