<?xml version="1.0" encoding="UTF-8" standalone="no"?><!DOCTYPE svg PUBLIC "-//W3C//DTD SVG 1.1//EN" "http://www.w3.org/Graphics/SVG/1.1/DTD/svg11.dtd"><svg width="100%" height="100%" viewBox="0 0 25 25" version="1.1" xmlns="http://www.w3.org/2000/svg" xmlns:xlink="http://www.w3.org/1999/xlink" xml:space="preserve" xmlns:serif="http://www.serif.com/" style="fill-rule:evenodd;clip-rule:evenodd;stroke-linejoin:round;stroke-miterlimit:2;"><rect id="kubernetes" x="0.145" y="0.781" width="24" height="24" style="fill:none;"/><path id="path10349" d="M21.633,6.61c-0.131,-0.421 -0.447,-0.763 -0.842,-0.974l-8.021,-3.84c-0.211,-0.105 -0.448,-0.131 -0.658,-0.131c-0.21,-0 -0.447,-0 -0.658,0.052l-8.022,3.867c-0.394,0.184 -0.683,0.526 -0.789,0.973l-1.972,8.653c-0.079,0.447 0.026,0.894 0.289,1.263l5.55,6.864c0.315,0.316 0.763,0.526 1.21,0.553l8.837,-0c0.473,0.052 0.921,-0.158 1.21,-0.553l5.549,-6.864c0.263,-0.369 0.369,-0.816 0.316,-1.263l-1.999,-8.6Z" style="fill:#326de6;fill-rule:nonzero;"/><path id="path10351" d="M20.397,14.868c-0.026,0 -0.053,0 -0.053,-0.026c0,-0.026 -0.052,-0.026 -0.105,-0.026c-0.105,-0.027 -0.21,-0.027 -0.315,-0.027c-0.053,0 -0.106,0 -0.158,-0.026l-0.027,-0c-0.289,-0.026 -0.605,-0.079 -0.894,-0.158c-0.079,-0.026 -0.158,-0.105 -0.184,-0.184c0.026,0 0,0 0,0l-0.21,-0.053c0.105,-0.762 0.052,-1.551 -0.106,-2.314c-0.184,-0.763 -0.499,-1.499 -0.92,-2.157l0.158,-0.158l-0,-0.026c-0,-0.079 0.026,-0.184 0.079,-0.237c0.236,-0.21 0.473,-0.368 0.736,-0.526c0.053,-0.026 0.105,-0.052 0.158,-0.079c0.105,-0.052 0.184,-0.105 0.289,-0.157c0.026,-0.027 0.053,-0.027 0.079,-0.053c0.026,-0.026 0,-0.026 0,-0.053c0.237,-0.184 0.289,-0.499 0.105,-0.736c-0.079,-0.105 -0.236,-0.184 -0.368,-0.184c-0.131,-0 -0.263,0.052 -0.368,0.131l-0.026,0.027c-0.027,0.026 -0.053,0.052 -0.079,0.052c-0.079,0.079 -0.158,0.158 -0.211,0.237c-0.026,0.053 -0.079,0.079 -0.105,0.105c-0.184,0.211 -0.421,0.421 -0.658,0.579c-0.052,0.026 -0.105,0.052 -0.157,0.052c-0.027,0 -0.079,0 -0.106,-0.026l-0.026,0l-0.21,0.132c-0.211,-0.211 -0.447,-0.421 -0.658,-0.632c-0.973,-0.762 -2.183,-1.236 -3.419,-1.367l-0.026,-0.211l-0,0.027c-0.079,-0.053 -0.105,-0.132 -0.132,-0.211c0,-0.289 0,-0.578 0.053,-0.894l-0,-0.026c-0,-0.053 0.026,-0.106 0.026,-0.158c0.026,-0.105 0.026,-0.211 0.053,-0.316l-0,-0.158c0.026,-0.263 -0.184,-0.526 -0.447,-0.552c-0.158,-0.026 -0.316,0.053 -0.448,0.184c-0.105,0.105 -0.157,0.237 -0.157,0.368l-0,0.132c-0,0.105 0.026,0.21 0.052,0.316c0.027,0.052 0.027,0.105 0.027,0.157l-0,0.027c0.052,0.289 0.052,0.578 0.052,0.894c-0.026,0.079 -0.052,0.158 -0.131,0.21l-0,0.053l-0.027,0.21c-0.289,0.027 -0.578,0.079 -0.894,0.132c-1.236,0.263 -2.367,0.92 -3.235,1.841l-0.158,-0.105l-0.026,-0c-0.026,-0 -0.053,0.026 -0.105,0.026c-0.053,0 -0.106,-0.026 -0.158,-0.053c-0.237,-0.184 -0.474,-0.394 -0.658,-0.604c-0.026,-0.053 -0.079,-0.079 -0.105,-0.106c-0.079,-0.079 -0.131,-0.158 -0.21,-0.236c-0.027,-0.027 -0.053,-0.027 -0.079,-0.053l-0.026,-0.026c-0.106,-0.079 -0.237,-0.132 -0.369,-0.132c-0.157,0 -0.289,0.053 -0.368,0.184c-0.158,0.237 -0.105,0.553 0.105,0.737c0.027,-0 0.027,0.026 0.027,0.026c-0,0 0.052,0.053 0.079,0.053c0.078,0.052 0.184,0.105 0.289,0.157c0.052,0.027 0.105,0.053 0.158,0.079c0.263,0.158 0.526,0.316 0.736,0.526c0.053,0.053 0.105,0.158 0.079,0.237l-0,-0.026l0.158,0.158c-0.027,0.052 -0.053,0.079 -0.079,0.131c-0.815,1.289 -1.157,2.814 -0.921,4.314l-0.21,0.052c-0,0.026 -0.026,0.026 -0.026,0.026c-0.027,0.079 -0.106,0.132 -0.184,0.185c-0.29,0.078 -0.579,0.131 -0.895,0.157c-0.052,0 -0.105,0 -0.158,0.027c-0.105,-0 -0.21,0.026 -0.315,0.026c-0.026,-0 -0.053,0.026 -0.105,0.026c-0.027,0 -0.027,0 -0.053,0.027c-0.289,0.052 -0.473,0.315 -0.421,0.605c0.053,0.236 0.29,0.394 0.526,0.368c0.053,-0 0.079,-0 0.132,-0.027c0.026,0 0.026,0 0.026,-0.026c0,-0.026 0.079,0 0.105,0c0.105,-0.026 0.211,-0.079 0.29,-0.105c0.052,-0.026 0.105,-0.053 0.157,-0.053l0.027,0c0.289,-0.105 0.552,-0.184 0.868,-0.236l0.026,-0c0.079,-0 0.158,0.026 0.21,0.079c0.027,-0 0.027,0.026 0.027,0.026l0.236,-0.026c0.395,1.209 1.131,2.288 2.157,3.077c0.237,0.184 0.447,0.342 0.71,0.473l-0.131,0.184c-0,0.027 0.026,0.027 0.026,0.027c0.053,0.079 0.053,0.184 0.026,0.263c-0.105,0.263 -0.263,0.526 -0.421,0.762l0,0.027c-0.026,0.052 -0.052,0.079 -0.105,0.131c-0.052,0.053 -0.105,0.158 -0.184,0.263c-0.026,0.027 -0.026,0.053 -0.052,0.079c-0,0 -0,0.026 -0.027,0.026c-0.131,0.263 -0.026,0.579 0.211,0.711c0.052,0.026 0.131,0.052 0.184,0.052c0.21,0 0.394,-0.131 0.5,-0.315c-0,-0 -0,-0.027 0.026,-0.027c-0,-0.026 0.026,-0.052 0.052,-0.079c0.027,-0.105 0.079,-0.184 0.106,-0.289l0.052,-0.158c0.079,-0.289 0.211,-0.552 0.342,-0.815c0.053,-0.079 0.132,-0.132 0.211,-0.158c0.026,0 0.026,0 0.026,-0.026l0.105,-0.211c0.737,0.29 1.499,0.421 2.288,0.421c0.474,0 0.947,-0.052 1.421,-0.184c0.289,-0.053 0.578,-0.158 0.841,-0.237l0.105,0.184c0.027,0 0.027,0 0.027,0.027c0.079,0.026 0.158,0.079 0.21,0.158c0.132,0.263 0.263,0.526 0.342,0.815l0,0.026l0.053,0.158c0.026,0.105 0.052,0.21 0.105,0.289c0.026,0.027 0.026,0.053 0.052,0.079c0,0 0,0.027 0.027,0.027c0.105,0.184 0.289,0.315 0.5,0.315c0.078,0 0.131,-0.026 0.21,-0.052c0.105,-0.053 0.21,-0.158 0.237,-0.29c0.026,-0.131 0.026,-0.263 -0.027,-0.394c0,-0.027 -0.026,-0.027 -0.026,-0.027c0,-0.026 -0.026,-0.052 -0.053,-0.078c-0.052,-0.106 -0.105,-0.185 -0.184,-0.263c-0.026,-0.053 -0.052,-0.079 -0.105,-0.132l0,-0.053c-0.184,-0.236 -0.316,-0.499 -0.421,-0.762c-0.026,-0.079 -0.026,-0.184 0.027,-0.263c-0,-0.027 0.026,-0.027 0.026,-0.027l-0.079,-0.21c1.341,-0.815 2.367,-2.078 2.841,-3.577l0.21,0.026c0.026,0 0.026,-0.026 0.026,-0.026c0.053,-0.053 0.132,-0.079 0.211,-0.079l0.026,0c0.289,0.053 0.579,0.132 0.842,0.237l0.026,-0c0.053,0.026 0.105,0.052 0.158,0.052c0.105,0.053 0.184,0.106 0.289,0.132c0.026,-0 0.053,0.026 0.105,0.026c0.027,0 0.027,0 0.053,0.026c0.052,0.027 0.079,0.027 0.131,0.027c0.237,-0 0.447,-0.158 0.526,-0.368c-0.026,-0.29 -0.236,-0.5 -0.473,-0.553Zm-7.601,-0.815l-0.71,0.342l-0.71,-0.342l-0.185,-0.763l0.5,-0.631l0.789,-0l0.5,0.631l-0.184,0.763Zm4.287,-1.71c0.131,0.553 0.158,1.105 0.105,1.657l-2.498,-0.71c-0.237,-0.052 -0.369,-0.289 -0.316,-0.526c0.026,-0.079 0.053,-0.131 0.105,-0.184l1.973,-1.789c0.289,0.474 0.499,1 0.631,1.552Zm-1.42,-2.525l-2.157,1.526c-0.184,0.105 -0.447,0.079 -0.579,-0.105c-0.052,-0.053 -0.079,-0.106 -0.079,-0.185l-0.157,-2.656c1.157,0.132 2.183,0.631 2.972,1.42Zm-4.761,-1.341l0.526,-0.105l-0.131,2.63c-0,0.237 -0.211,0.421 -0.447,0.421c-0.079,-0 -0.132,-0.027 -0.211,-0.053l-2.183,-1.552c0.684,-0.657 1.526,-1.131 2.446,-1.341Zm-3.209,2.314l1.947,1.736c0.184,0.158 0.21,0.421 0.052,0.605c-0.052,0.079 -0.105,0.106 -0.21,0.132l-2.551,0.736c-0.079,-1.104 0.184,-2.235 0.762,-3.209Zm-0.447,4.445l2.604,-0.447c0.21,0 0.421,0.132 0.447,0.342c0.026,0.079 0.026,0.184 -0.026,0.263l-1,2.42c-0.92,-0.605 -1.657,-1.526 -2.025,-2.578Zm5.971,3.262c-0.369,0.079 -0.737,0.131 -1.131,0.131c-0.553,0 -1.131,-0.105 -1.657,-0.263l1.288,-2.341c0.132,-0.157 0.342,-0.21 0.527,-0.105c0.078,0.053 0.131,0.105 0.21,0.184l1.262,2.289c-0.157,0.026 -0.315,0.052 -0.499,0.105Zm3.208,-2.288c-0.394,0.631 -0.946,1.183 -1.578,1.578l-1.025,-2.473c-0.053,-0.21 0.052,-0.421 0.236,-0.499c0.079,-0.027 0.158,-0.053 0.237,-0.053l2.63,0.447c-0.131,0.368 -0.289,0.71 -0.5,1Z" style="fill:#fff;fill-rule:nonzero;"/></svg>