<?xml version="1.0" encoding="UTF-8" standalone="no"?>
<!DOCTYPE svg PUBLIC "-//W3C//DTD SVG 1.1//EN" "http://www.w3.org/Graphics/SVG/1.1/DTD/svg11.dtd">
<svg width="100%" height="100%" viewBox="0 0 3841 2161" version="1.1" xmlns="http://www.w3.org/2000/svg" xmlns:xlink="http://www.w3.org/1999/xlink" xml:space="preserve" xmlns:serif="http://www.serif.com/" style="fill-rule:evenodd;clip-rule:evenodd;stroke-linejoin:round;stroke-miterlimit:2;">
    <g transform="matrix(1,0,0,1,-19299,-9312)">
        <g id="logo-background" transform="matrix(1,0,0,1,-256.513,7269.58)">
            <rect x="19556" y="2042.92" width="3840" height="2160" style="fill:none;"/>
            <clipPath id="_clip1">
                <rect x="19556" y="2042.92" width="3840" height="2160"/>
            </clipPath>
            <g clip-path="url(#_clip1)">
                <g transform="matrix(0.809153,0.589414,-0.854765,1.22437,8347.17,-17077.6)">
                    <path d="M22831.8,6389.54L22618.1,4728.25L22620.3,4727.21L22834,6388.49L22831.8,6389.54Z" style="fill:rgb(30,41,59);"/>
                </g>
                <g transform="matrix(0.814465,0.580213,-0.780119,1.09508,8104.78,-16015.6)">
                    <path d="M22820.7,6371.79L22583.1,4525.22L22585.3,4524.08L22822.9,6370.65L22820.7,6371.79Z" style="fill:rgb(30,41,59);"/>
                </g>
                <g transform="matrix(1,0,0,1,256.513,-7269.58)">
                    <path d="M21829,10843.5L21829,10841.2L23139.5,10841.2L23139.5,10843.5L21829,10843.5Z" style="fill:rgb(30,41,59);"/>
                </g>
                <g transform="matrix(1,0,0,1,1298.32,-7581.72)">
                    <path d="M20967.9,10843.3L20967.9,10841L22097.7,10841L22097.7,10843.3L20967.9,10843.3Z" style="fill:rgb(30,41,59);"/>
                </g>
                <g transform="matrix(-0.915024,0.40604,-0.632952,-1.35243,48355,1869.18)">
                    <path d="M22845.7,6405.85L22889.2,6743.54L22886.8,6742.82L22843.8,6408.66L22845.7,6405.85Z" style="fill:rgb(30,41,59);"/>
                </g>
                <g transform="matrix(-0.909712,0.41524,-0.558307,-1.22314,47535.6,1110.56)">
                    <path d="M22789,6104.7L22905.9,7013.99L22903.5,7013.17L22787,6107.81L22789,6104.7Z" style="fill:rgb(30,41,59);"/>
                </g>
                <g transform="matrix(1,0,0,1,-326.228,-4882.59)">
                    <path d="M23722.2,7989.12L23381.3,7398.72L23563,7084.15L23722.2,7359.97L23722.2,7364.56L23563,7088.74C23563,7088.74 23384,7398.72 23384,7398.72L23722.2,7984.53L23722.2,7989.12ZM23296.6,6925.51L22773.3,7831.9L22410.1,7831.9L22933.4,6925.51L22936,6925.51L22414,7829.6L22772,7829.6L23208.8,7072.98C23208.8,7072.98 23251.2,6999.56 23294,6925.51L23296.6,6925.51ZM23632.1,8456.46L22049.5,8456.46L22231.1,8141.88L23452.5,8141.88L23634.1,8456.46L23632.1,8456.46ZM23630.1,8454.16C23630.1,8454.16 23459.7,8158.96 23451.1,8144.18C23419.5,8144.18 22264.1,8144.18 22232.4,8144.18C22223.9,8158.96 22053.4,8454.16 22053.4,8454.16L23630.1,8454.16Z" style="fill:rgb(29,78,216);"/>
                </g>
            </g>
        </g>
    </g>
</svg>
