<?xml version="1.0" encoding="UTF-8" standalone="no"?><!DOCTYPE svg PUBLIC "-//W3C//DTD SVG 1.1//EN" "http://www.w3.org/Graphics/SVG/1.1/DTD/svg11.dtd"><svg width="100%" height="100%" viewBox="0 0 25 25" version="1.1" xmlns="http://www.w3.org/2000/svg" xmlns:xlink="http://www.w3.org/1999/xlink" xml:space="preserve" xmlns:serif="http://www.serif.com/" style="fill-rule:evenodd;clip-rule:evenodd;stroke-linejoin:round;stroke-miterlimit:2;"><rect id="next" x="0.636" y="0.97" width="24" height="24" style="fill:none;"/><path d="M11.883,1.488c-0.049,0.004 -0.206,0.02 -0.348,0.031c-3.263,0.294 -6.32,2.055 -8.256,4.761c-1.078,1.505 -1.767,3.212 -2.028,5.02c-0.092,0.631 -0.103,0.818 -0.103,1.673c-0,0.856 0.011,1.042 0.103,1.673c0.625,4.315 3.695,7.94 7.859,9.283c0.745,0.24 1.531,0.404 2.425,0.503c0.348,0.038 1.853,0.038 2.201,-0c1.543,-0.171 2.85,-0.553 4.139,-1.211c0.198,-0.101 0.236,-0.128 0.209,-0.15c-0.018,-0.014 -0.86,-1.144 -1.871,-2.509l-1.837,-2.482l-2.302,-3.407c-1.267,-1.873 -2.309,-3.404 -2.318,-3.404c-0.009,-0.003 -0.018,1.511 -0.022,3.359c-0.007,3.237 -0.009,3.367 -0.049,3.443c-0.059,0.11 -0.104,0.155 -0.198,0.205c-0.072,0.036 -0.135,0.042 -0.474,0.042l-0.389,0l-0.103,-0.065c-0.067,-0.042 -0.117,-0.099 -0.15,-0.164l-0.047,-0.101l0.004,-4.503l0.007,-4.505l0.069,-0.088c0.036,-0.047 0.113,-0.107 0.167,-0.137c0.092,-0.044 0.128,-0.049 0.516,-0.049c0.458,0 0.535,0.018 0.654,0.148c0.033,0.036 1.28,1.914 2.771,4.175c1.491,2.262 3.531,5.35 4.532,6.866l1.819,2.756l0.092,-0.061c0.816,-0.53 1.678,-1.285 2.361,-2.071c1.453,-1.668 2.39,-3.703 2.704,-5.873c0.092,-0.631 0.103,-0.817 0.103,-1.673c0,-0.855 -0.011,-1.042 -0.103,-1.673c-0.624,-4.314 -3.695,-7.939 -7.858,-9.282c-0.735,-0.238 -1.516,-0.402 -2.392,-0.501c-0.216,-0.022 -1.7,-0.047 -1.887,-0.029Zm4.703,6.949c0.108,0.053 0.195,0.157 0.227,0.265c0.018,0.058 0.022,1.307 0.018,4.121l-0.007,4.038l-0.712,-1.092l-0.714,-1.091l0,-2.936c0,-1.897 0.009,-2.964 0.022,-3.016c0.036,-0.126 0.115,-0.224 0.223,-0.283c0.092,-0.047 0.126,-0.051 0.478,-0.051c0.333,-0 0.391,0.004 0.465,0.045Z" style="fill:#fff;fill-rule:nonzero;"/><path d="M18.751,22.7c-0.078,0.049 -0.103,0.083 -0.034,0.045c0.05,-0.029 0.131,-0.09 0.117,-0.092c-0.007,-0 -0.045,0.022 -0.083,0.047Zm-0.155,0.101c-0.04,0.032 -0.04,0.034 0.009,0.009c0.027,-0.013 0.05,-0.029 0.05,-0.034c-0,-0.018 -0.012,-0.013 -0.059,0.025Zm-0.112,0.068c-0.041,0.031 -0.041,0.033 0.009,0.008c0.027,-0.013 0.049,-0.029 0.049,-0.033c0,-0.018 -0.011,-0.014 -0.058,0.025Zm-0.112,0.067c-0.041,0.031 -0.041,0.034 0.009,0.009c0.027,-0.014 0.049,-0.029 0.049,-0.034c-0,-0.018 -0.011,-0.013 -0.058,0.025Zm-0.171,0.09c-0.085,0.045 -0.081,0.063 0.004,0.02c0.039,-0.02 0.068,-0.04 0.068,-0.045c-0,-0.016 -0.002,-0.013 -0.072,0.025Z" style="fill-rule:nonzero;"/></svg>