<?xml version="1.0" encoding="UTF-8" standalone="no"?><!DOCTYPE svg PUBLIC "-//W3C//DTD SVG 1.1//EN" "http://www.w3.org/Graphics/SVG/1.1/DTD/svg11.dtd"><svg width="100%" height="100%" viewBox="0 0 24 25" version="1.1" xmlns="http://www.w3.org/2000/svg" xmlns:xlink="http://www.w3.org/1999/xlink" xml:space="preserve" xmlns:serif="http://www.serif.com/" style="fill-rule:evenodd;clip-rule:evenodd;stroke-linejoin:round;stroke-miterlimit:2;"><rect id="node" x="0" y="0.103" width="24" height="24" style="fill:none;"/><g><path d="M11.062,0.895c0.568,-0.325 1.308,-0.326 1.875,0c2.854,1.613 5.709,3.223 8.563,4.837c0.537,0.302 0.896,0.9 0.89,1.518l0,9.703c0.004,0.644 -0.39,1.256 -0.956,1.552c-2.845,1.603 -5.689,3.209 -8.533,4.813c-0.579,0.332 -1.334,0.306 -1.895,-0.053c-0.853,-0.494 -1.708,-0.986 -2.56,-1.48c-0.175,-0.104 -0.371,-0.186 -0.494,-0.355c0.108,-0.147 0.303,-0.165 0.461,-0.229c0.356,-0.114 0.683,-0.295 1.01,-0.472c0.083,-0.056 0.184,-0.035 0.263,0.016c0.729,0.418 1.452,0.849 2.184,1.263c0.156,0.09 0.314,-0.03 0.448,-0.104c2.791,-1.578 5.586,-3.15 8.377,-4.728c0.104,-0.05 0.161,-0.16 0.153,-0.273c0.002,-3.201 0,-6.402 0.001,-9.603c0.011,-0.128 -0.063,-0.247 -0.179,-0.299c-2.835,-1.597 -5.669,-3.196 -8.503,-4.793c-0.1,-0.069 -0.233,-0.069 -0.334,-0c-2.834,1.597 -5.667,3.198 -8.502,4.794c-0.116,0.053 -0.193,0.169 -0.18,0.298c0.001,3.201 0,6.402 0,9.604c-0.01,0.113 0.052,0.22 0.155,0.269c0.756,0.429 1.513,0.855 2.27,1.282c0.427,0.23 0.95,0.366 1.42,0.19c0.414,-0.148 0.705,-0.571 0.697,-1.012c0.004,-3.182 -0.002,-6.364 0.003,-9.546c-0.01,-0.141 0.124,-0.258 0.261,-0.245c0.363,-0.002 0.727,-0.005 1.091,0.001c0.152,-0.003 0.256,0.149 0.237,0.291c-0.001,3.203 0.004,6.405 -0.002,9.607c0.001,0.854 -0.35,1.782 -1.139,2.2c-0.973,0.504 -2.175,0.397 -3.136,-0.086c-0.831,-0.415 -1.625,-0.905 -2.442,-1.35c-0.568,-0.294 -0.96,-0.908 -0.956,-1.552l-0,-9.703c-0.006,-0.631 0.367,-1.239 0.92,-1.537c2.845,-1.605 5.689,-3.212 8.532,-4.818Z" style="fill:#8cc84b;fill-rule:nonzero;"/><path d="M13.544,7.617c1.24,-0.08 2.568,-0.048 3.685,0.564c0.864,0.468 1.343,1.451 1.358,2.411c-0.024,0.13 -0.159,0.201 -0.283,0.192c-0.36,-0 -0.72,0.005 -1.08,-0.002c-0.152,0.006 -0.241,-0.135 -0.26,-0.27c-0.104,-0.46 -0.354,-0.915 -0.787,-1.136c-0.663,-0.333 -1.433,-0.316 -2.157,-0.309c-0.528,0.028 -1.097,0.074 -1.544,0.385c-0.344,0.235 -0.448,0.71 -0.326,1.093c0.116,0.275 0.433,0.363 0.693,0.445c1.495,0.391 3.079,0.352 4.545,0.867c0.607,0.209 1.201,0.617 1.409,1.253c0.272,0.852 0.153,1.87 -0.453,2.554c-0.492,0.563 -1.208,0.869 -1.922,1.036c-0.95,0.212 -1.936,0.217 -2.9,0.123c-0.907,-0.104 -1.851,-0.342 -2.552,-0.96c-0.599,-0.52 -0.891,-1.33 -0.862,-2.112c0.007,-0.132 0.138,-0.224 0.265,-0.213c0.362,-0.003 0.725,-0.004 1.087,0c0.145,-0.01 0.252,0.115 0.26,0.251c0.067,0.438 0.231,0.898 0.613,1.157c0.737,0.475 1.661,0.443 2.504,0.456c0.699,-0.031 1.484,-0.04 2.054,-0.502c0.301,-0.264 0.39,-0.704 0.309,-1.083c-0.088,-0.321 -0.423,-0.47 -0.711,-0.567c-1.476,-0.467 -3.078,-0.298 -4.539,-0.826c-0.594,-0.209 -1.167,-0.606 -1.395,-1.215c-0.318,-0.863 -0.173,-1.93 0.497,-2.591c0.653,-0.658 1.596,-0.911 2.492,-1.001l-0,-0Z" style="fill:#8cc84b;fill-rule:nonzero;"/></g></svg>