<?xml version="1.0" encoding="UTF-8" standalone="no"?><!DOCTYPE svg PUBLIC "-//W3C//DTD SVG 1.1//EN" "http://www.w3.org/Graphics/SVG/1.1/DTD/svg11.dtd"><svg width="100%" height="100%" viewBox="0 0 25 25" version="1.1" xmlns="http://www.w3.org/2000/svg" xmlns:xlink="http://www.w3.org/1999/xlink" xml:space="preserve" xmlns:serif="http://www.serif.com/" style="fill-rule:evenodd;clip-rule:evenodd;stroke-linejoin:round;stroke-miterlimit:2;"><rect id="nuxt" x="0.852" y="0.233" width="24" height="24" style="fill:none;"/><clipPath id="_clip1"><rect id="nuxt.svg" x="1.352" y="4.692" width="23" height="15.082"/></clipPath><g clip-path="url(#_clip1)"><path d="M14.17,19.601l8.494,-0c0.27,-0 0.535,-0.069 0.769,-0.2c0.233,-0.131 0.427,-0.319 0.562,-0.546c0.135,-0.226 0.206,-0.484 0.206,-0.745c-0,-0.262 -0.072,-0.519 -0.207,-0.746l-5.704,-9.583c-0.135,-0.227 -0.329,-0.415 -0.562,-0.546c-0.234,-0.131 -0.499,-0.2 -0.769,-0.2c-0.269,0 -0.534,0.069 -0.768,0.2c-0.233,0.131 -0.427,0.319 -0.562,0.546l-1.459,2.452l-2.852,-4.795c-0.135,-0.227 -0.329,-0.415 -0.562,-0.546c-0.234,-0.131 -0.499,-0.2 -0.769,-0.2c-0.269,0 -0.534,0.069 -0.768,0.2c-0.234,0.131 -0.428,0.319 -0.563,0.546l-7.098,11.926c-0.135,0.227 -0.206,0.484 -0.206,0.746c-0.001,0.261 0.07,0.519 0.205,0.745c0.135,0.227 0.329,0.415 0.563,0.546c0.233,0.131 0.498,0.2 0.768,0.2l5.332,-0c2.113,-0 3.67,-0.9 4.742,-2.656l2.603,-4.372l1.394,-2.34l4.184,7.028l-5.578,-0l-1.395,2.34Zm-6.037,-2.343l-3.721,-0l5.578,-9.371l2.783,4.686l-1.864,3.131c-0.711,1.139 -1.52,1.554 -2.776,1.554Z" style="fill:#00dc82;fill-rule:nonzero;"/></g></svg>