<?xml version="1.0" encoding="UTF-8" standalone="no"?><!DOCTYPE svg PUBLIC "-//W3C//DTD SVG 1.1//EN" "http://www.w3.org/Graphics/SVG/1.1/DTD/svg11.dtd"><svg width="100%" height="100%" viewBox="0 0 25 25" version="1.1" xmlns="http://www.w3.org/2000/svg" xmlns:xlink="http://www.w3.org/1999/xlink" xml:space="preserve" xmlns:serif="http://www.serif.com/" style="fill-rule:evenodd;clip-rule:evenodd;stroke-linejoin:round;stroke-miterlimit:2;"><rect id="playwright" x="0.244" y="0.952" width="24" height="24" style="fill:none;"/><clipPath id="_clip1"><rect id="playwright.svg" x="0.744" y="4.327" width="23" height="17.25"/></clipPath><g clip-path="url(#_clip1)"><g><path d="M8.325,14.062c-0.859,0.244 -1.422,0.671 -1.793,1.098c0.355,-0.311 0.832,-0.597 1.474,-0.779c0.657,-0.186 1.217,-0.184 1.68,-0.095l-0,-0.362c-0.395,-0.036 -0.848,-0.008 -1.361,0.138Zm-1.832,-3.044l-3.189,0.841c0,-0 0.058,0.082 0.166,0.191l2.703,-0.712c0,-0 -0.038,0.493 -0.371,0.935c0.63,-0.476 0.691,-1.255 0.691,-1.255Zm2.669,7.494c-4.487,1.209 -6.861,-3.991 -7.58,-6.691c-0.332,-1.245 -0.477,-2.189 -0.516,-2.798c-0.004,-0.063 -0.002,-0.116 0.002,-0.165c-0.232,0.014 -0.344,0.135 -0.321,0.484c0.038,0.609 0.183,1.553 0.516,2.799c0.718,2.699 3.092,7.899 7.58,6.69c0.976,-0.263 1.71,-0.742 2.261,-1.354c-0.508,0.459 -1.143,0.82 -1.942,1.035Zm0.843,-10.676l0,0.319l1.76,0c-0.036,-0.113 -0.072,-0.215 -0.108,-0.319l-1.652,-0Z" style="fill:#2d4552;fill-rule:nonzero;"/><path d="M12.159,10.466c0.791,0.225 1.21,0.78 1.431,1.271l0.883,0.251c-0,-0 -0.121,-1.719 -1.675,-2.161c-1.455,-0.413 -2.35,0.808 -2.459,0.966c0.423,-0.301 1.041,-0.548 1.82,-0.327Zm7.025,1.279c-1.456,-0.415 -2.35,0.809 -2.458,0.964c0.424,-0.301 1.041,-0.548 1.819,-0.326c0.791,0.226 1.209,0.78 1.431,1.271l0.884,0.252c-0,-0 -0.123,-1.719 -1.676,-2.161Zm-0.877,4.532l-7.342,-2.053c0,0 0.08,0.403 0.385,0.925l6.181,1.728c0.509,-0.294 0.776,-0.6 0.776,-0.6Zm-5.09,4.418c-5.813,-1.559 -5.11,-8.966 -4.17,-12.476c0.388,-1.446 0.786,-2.521 1.116,-3.242c-0.197,-0.041 -0.36,0.063 -0.521,0.391c-0.351,0.711 -0.799,1.869 -1.233,3.49c-0.941,3.51 -1.644,10.916 4.17,12.475c2.74,0.734 4.874,-0.382 6.465,-2.134c-1.51,1.368 -3.438,2.135 -5.827,1.496Z" style="fill:#2d4552;fill-rule:nonzero;"/><path d="M10.005,16.777l0,-1.495l-4.153,1.177c0,0 0.307,-1.783 2.473,-2.397c0.657,-0.186 1.217,-0.185 1.68,-0.095l0,-6.131l2.08,-0c-0.227,-0.7 -0.446,-1.238 -0.63,-1.613c-0.304,-0.619 -0.616,-0.208 -1.324,0.384c-0.499,0.417 -1.76,1.306 -3.657,1.817c-1.897,0.511 -3.43,0.376 -4.07,0.265c-0.907,-0.157 -1.382,-0.356 -1.338,0.334c0.039,0.609 0.184,1.552 0.516,2.798c0.719,2.699 3.093,7.9 7.58,6.691c1.172,-0.316 2,-0.94 2.573,-1.736l-1.73,0l0,0.001Zm-6.701,-4.918l3.189,-0.841c-0,0 -0.093,1.227 -1.289,1.542c-1.195,0.315 -1.9,-0.701 -1.9,-0.701Z" style="fill:#e2574c;fill-rule:nonzero;"/><path d="M22.007,7.907c-0.829,0.145 -2.818,0.326 -5.276,-0.333c-2.458,-0.658 -4.089,-1.81 -4.735,-2.351c-0.916,-0.767 -1.319,-1.3 -1.716,-0.494c-0.35,0.712 -0.799,1.87 -1.233,3.49c-0.94,3.51 -1.643,10.917 4.17,12.475c5.812,1.558 8.906,-5.208 9.846,-8.719c0.434,-1.62 0.625,-2.847 0.677,-3.638c0.06,-0.897 -0.556,-0.637 -1.733,-0.43Zm-11.68,2.904c0,-0 0.916,-1.425 2.47,-0.984c1.555,0.442 1.675,2.161 1.675,2.161l-4.145,-1.177Zm3.793,6.393c-2.733,-0.8 -3.154,-2.98 -3.154,-2.98l7.341,2.053c0,-0.001 -1.482,1.718 -4.187,0.927Zm2.596,-4.479c-0,0 0.915,-1.423 2.468,-0.98c1.553,0.442 1.676,2.161 1.676,2.161l-4.144,-1.181Z" style="fill:#2ead33;fill-rule:nonzero;"/><path d="M8.554,15.693l-2.702,0.766c0,0 0.294,-1.672 2.284,-2.334l-1.53,-5.741l-0.132,0.04c-1.897,0.511 -3.431,0.376 -4.071,0.265c-0.907,-0.157 -1.381,-0.356 -1.337,0.334c0.039,0.609 0.184,1.552 0.516,2.799c0.718,2.698 3.093,7.899 7.58,6.69l0.132,-0.042l-0.74,-2.777Zm-5.25,-3.834l3.189,-0.841c-0,0 -0.093,1.227 -1.289,1.542c-1.195,0.315 -1.9,-0.701 -1.9,-0.701Z" style="fill:#d65348;fill-rule:nonzero;"/><path d="M14.243,17.234l-0.123,-0.03c-2.733,-0.8 -3.155,-2.98 -3.155,-2.98l3.786,1.058l2.004,-7.701l-0.024,-0.007c-2.458,-0.658 -4.089,-1.81 -4.736,-2.351c-0.916,-0.767 -1.319,-1.3 -1.715,-0.494c-0.35,0.712 -0.799,1.87 -1.233,3.49c-0.94,3.51 -1.643,10.917 4.17,12.475l0.119,0.027l0.907,-3.487Zm-3.916,-6.423c0,-0 0.916,-1.425 2.47,-0.984c1.555,0.442 1.675,2.161 1.675,2.161l-4.145,-1.177Z" style="fill:#1d8d22;fill-rule:nonzero;"/><path d="M8.692,15.654l-0.725,0.206c0.171,0.965 0.473,1.891 0.946,2.709c0.083,-0.018 0.165,-0.034 0.249,-0.057c0.22,-0.059 0.424,-0.133 0.62,-0.213c-0.529,-0.785 -0.879,-1.689 -1.09,-2.645Zm-0.283,-6.796c-0.373,1.39 -0.706,3.39 -0.614,5.396c0.164,-0.071 0.337,-0.138 0.53,-0.192l0.134,-0.03c-0.163,-2.143 0.19,-4.327 0.588,-5.813c0.101,-0.375 0.202,-0.725 0.303,-1.051c-0.162,0.103 -0.337,0.209 -0.536,0.319c-0.135,0.414 -0.271,0.868 -0.405,1.371Z" style="fill:#c04b41;fill-rule:nonzero;"/></g></g></svg>