<?xml version="1.0" encoding="UTF-8" standalone="no"?><!DOCTYPE svg PUBLIC "-//W3C//DTD SVG 1.1//EN" "http://www.w3.org/Graphics/SVG/1.1/DTD/svg11.dtd"><svg width="100%" height="100%" viewBox="0 0 25 25" version="1.1" xmlns="http://www.w3.org/2000/svg" xmlns:xlink="http://www.w3.org/1999/xlink" xml:space="preserve" xmlns:serif="http://www.serif.com/" style="fill-rule:evenodd;clip-rule:evenodd;"><rect id="postgres" x="0.407" y="0.251" width="24" height="24" style="fill:none;"/><clipPath id="_clip1"><rect id="postgres.svg" x="1.25" y="0.751" width="22.313" height="23"/></clipPath><g clip-path="url(#_clip1)"><g id="Layer_x0020_3"><path d="M17.941,17.494c0.146,-1.218 0.103,-1.397 1.01,-1.2l0.231,0.02c0.698,0.032 1.611,-0.112 2.147,-0.361c1.155,-0.536 1.84,-1.43 0.701,-1.195c-2.597,0.535 -2.776,-0.344 -2.776,-0.344c2.743,-4.07 3.89,-9.235 2.9,-10.5c-2.699,-3.449 -7.372,-1.818 -7.45,-1.776l-0.025,0.005c-0.513,-0.106 -1.087,-0.17 -1.733,-0.18c-1.175,-0.02 -2.067,0.308 -2.743,0.821c-0,-0 -8.336,-3.434 -7.948,4.318c0.083,1.65 2.364,12.48 5.085,9.209c0.995,-1.197 1.956,-2.208 1.956,-2.208c0.477,0.317 1.049,0.479 1.648,0.421l0.046,-0.04c-0.014,0.149 -0.008,0.294 0.019,0.466c-0.701,0.783 -0.495,0.921 -1.897,1.209c-1.418,0.292 -0.585,0.813 -0.041,0.949c0.659,0.165 2.185,0.398 3.216,-1.045l-0.041,0.165c0.275,0.22 0.256,1.581 0.295,2.554c0.039,0.972 0.104,1.88 0.302,2.415c0.199,0.535 0.433,1.913 2.274,1.519c1.54,-0.33 2.717,-0.805 2.824,-5.222" style="fill-rule:nonzero;stroke:#000;stroke-width:1.93px;"/><path d="M22.031,14.758c-2.598,0.535 -2.777,-0.344 -2.777,-0.344c2.743,-4.07 3.89,-9.236 2.9,-10.5c-2.699,-3.449 -7.372,-1.818 -7.45,-1.776l-0.025,0.005c-0.513,-0.107 -1.087,-0.17 -1.733,-0.181c-1.175,-0.019 -2.067,0.309 -2.743,0.822c-0,-0 -8.336,-3.434 -7.948,4.318c0.082,1.65 2.364,12.48 5.085,9.209c0.995,-1.197 1.956,-2.208 1.956,-2.208c0.477,0.317 1.048,0.479 1.647,0.421l0.047,-0.04c-0.015,0.149 -0.008,0.294 0.018,0.466c-0.701,0.783 -0.495,0.921 -1.896,1.209c-1.418,0.292 -0.585,0.813 -0.041,0.949c0.659,0.165 2.185,0.398 3.215,-1.045l-0.041,0.165c0.275,0.22 0.468,1.431 0.436,2.529c-0.033,1.098 -0.054,1.851 0.162,2.44c0.216,0.589 0.432,1.913 2.274,1.519c1.54,-0.33 2.338,-1.185 2.448,-2.611c0.079,-1.014 0.257,-0.864 0.269,-1.77l0.143,-0.43c0.164,-1.374 0.026,-1.817 0.974,-1.611l0.231,0.02c0.698,0.032 1.611,-0.112 2.147,-0.361c1.155,-0.536 1.84,-1.431 0.701,-1.195l0.001,-0Z" style="fill:#336791;fill-rule:nonzero;"/><path d="M12.398,15.545c-0.072,2.557 0.018,5.132 0.268,5.758c0.251,0.626 0.786,1.843 2.629,1.448c1.539,-0.33 2.099,-0.968 2.342,-2.378c0.179,-1.037 0.524,-3.917 0.568,-4.507" style="fill:none;fill-rule:nonzero;stroke:#fff;stroke-width:0.64px;stroke-linecap:round;stroke-linejoin:round;"/><path d="M10.19,2.727c-0,-0 -8.341,-3.41 -7.954,4.343c0.083,1.649 2.364,12.48 5.086,9.208c0.994,-1.196 1.893,-2.134 1.893,-2.134" style="fill:none;fill-rule:nonzero;stroke:#fff;stroke-width:0.64px;stroke-linecap:round;stroke-linejoin:round;"/><path d="M14.695,2.104c-0.289,0.091 4.64,-1.801 7.441,1.778c0.989,1.264 -0.157,6.43 -2.9,10.5" style="fill:none;fill-rule:nonzero;stroke:#fff;stroke-width:0.64px;stroke-linecap:round;stroke-linejoin:round;"/><path d="M19.236,14.382c0,-0 0.179,0.879 2.776,0.343c1.139,-0.235 0.454,0.66 -0.701,1.196c-0.947,0.44 -3.071,0.552 -3.106,-0.055c-0.089,-1.568 1.118,-1.092 1.031,-1.484c-0.079,-0.354 -0.618,-0.701 -0.976,-1.567c-0.311,-0.756 -4.275,-6.551 1.1,-5.69c0.197,-0.041 -1.402,-5.112 -6.432,-5.195c-5.029,-0.082 -4.864,6.185 -4.864,6.185" style="fill:none;fill-rule:nonzero;stroke:#fff;stroke-width:0.64px;stroke-linecap:round;stroke-linejoin:bevel;"/><path d="M10.99,14.918c-0.701,0.783 -0.495,0.921 -1.896,1.209c-1.418,0.292 -0.585,0.813 -0.041,0.948c0.659,0.165 2.184,0.399 3.215,-1.044c0.314,-0.44 -0.002,-1.141 -0.433,-1.319c-0.208,-0.087 -0.487,-0.195 -0.845,0.206Z" style="fill:none;fill-rule:nonzero;stroke:#fff;stroke-width:0.64px;stroke-linecap:round;stroke-linejoin:round;"/><path d="M10.944,14.904c-0.07,-0.46 0.152,-1.008 0.389,-1.649c0.358,-0.962 1.183,-1.924 0.523,-4.975c-0.492,-2.274 -3.79,-0.474 -3.792,-0.165c-0.002,0.308 0.149,1.562 -0.056,3.023c-0.266,1.906 1.213,3.519 2.917,3.354" style="fill:none;fill-rule:nonzero;stroke:#fff;stroke-width:0.64px;stroke-linecap:round;stroke-linejoin:round;"/><path d="M10.159,8.068c-0.014,0.106 0.193,0.387 0.464,0.424c0.27,0.038 0.502,-0.182 0.516,-0.287c0.015,-0.105 -0.192,-0.221 -0.463,-0.259c-0.271,-0.038 -0.502,0.017 -0.517,0.122l0,0Z" style="fill:#fff;fill-rule:nonzero;stroke:#fff;stroke-width:0.21px;"/><path d="M18.392,7.854c0.015,0.105 -0.193,0.386 -0.463,0.424c-0.271,0.037 -0.502,-0.182 -0.517,-0.287c-0.014,-0.106 0.193,-0.222 0.464,-0.259c0.27,-0.038 0.502,0.017 0.516,0.122l0,-0Z" style="fill:#fff;fill-rule:nonzero;stroke:#fff;stroke-width:0.11px;"/><path d="M19.36,7.125c0.044,0.826 -0.178,1.389 -0.206,2.268c-0.042,1.278 0.609,2.741 -0.372,4.205" style="fill:none;fill-rule:nonzero;stroke:#fff;stroke-width:0.64px;stroke-linecap:round;stroke-linejoin:round;"/></g></g></svg>