<?xml version="1.0" encoding="UTF-8" standalone="no"?><!DOCTYPE svg PUBLIC "-//W3C//DTD SVG 1.1//EN" "http://www.w3.org/Graphics/SVG/1.1/DTD/svg11.dtd"><svg width="100%" height="100%" viewBox="0 0 25 25" version="1.1" xmlns="http://www.w3.org/2000/svg" xmlns:xlink="http://www.w3.org/1999/xlink" xml:space="preserve" xmlns:serif="http://www.serif.com/" style="fill-rule:evenodd;clip-rule:evenodd;stroke-linejoin:round;stroke-miterlimit:2;"><rect id="python" x="0.103" y="0.296" width="24" height="24" style="fill:none;"/><path id="path1948" d="M11.968,0.796c-0.938,0.004 -1.834,0.084 -2.622,0.224c-2.322,0.41 -2.744,1.269 -2.744,2.852l0,2.091l5.487,0l0,0.697l-7.546,0c-1.595,0 -2.991,0.959 -3.428,2.782c-0.504,2.09 -0.526,3.395 0,5.577c0.39,1.624 1.322,2.782 2.916,2.782l1.887,-0l-0,-2.507c-0,-1.811 1.567,-3.409 3.428,-3.409l5.48,0c1.526,0 2.744,-1.256 2.744,-2.788l-0,-5.225c-0,-1.487 -1.255,-2.604 -2.744,-2.852c-0.942,-0.157 -1.92,-0.228 -2.858,-0.224Zm-2.968,1.682c0.567,0 1.03,0.47 1.03,1.049c-0,0.576 -0.463,1.042 -1.03,1.042c-0.569,0 -1.029,-0.466 -1.029,-1.042c-0,-0.579 0.46,-1.049 1.029,-1.049Z" style="fill:url(#_Linear1);fill-rule:nonzero;"/><path id="path1950" d="M18.254,6.66l0,2.437c0,1.889 -1.601,3.479 -3.428,3.479l-5.48,0c-1.502,0 -2.744,1.285 -2.744,2.788l0,5.225c0,1.487 1.293,2.362 2.744,2.789c1.737,0.51 3.402,0.603 5.48,-0c1.382,-0.4 2.744,-1.205 2.744,-2.789l-0,-2.091l-5.481,-0l0,-0.697l8.224,-0c1.595,-0 2.189,-1.112 2.744,-2.782c0.573,-1.719 0.548,-3.372 -0,-5.577c-0.394,-1.587 -1.147,-2.782 -2.744,-2.782l-2.059,0Zm-3.082,13.232c0.568,0 1.029,0.466 1.029,1.043c0,0.578 -0.461,1.048 -1.029,1.048c-0.567,0 -1.03,-0.47 -1.03,-1.048c0,-0.577 0.463,-1.043 1.03,-1.043Z" style="fill:url(#_Linear2);fill-rule:nonzero;"/><defs><linearGradient id="_Linear1" x1="0" y1="0" x2="1" y2="0" gradientUnits="userSpaceOnUse" gradientTransform="matrix(12.5502,10.902,-10.902,12.5502,0.728735,0.795893)"><stop offset="0" style="stop-color:#5a9fd4;stop-opacity:1"/><stop offset="1" style="stop-color:#306998;stop-opacity:1"/></linearGradient><linearGradient id="_Linear2" x1="0" y1="0" x2="1" y2="0" gradientUnits="userSpaceOnUse" gradientTransform="matrix(-4.48166,-6.40199,6.40199,-4.48166,15.0398,20.7587)"><stop offset="0" style="stop-color:#ffd43b;stop-opacity:1"/><stop offset="1" style="stop-color:#ffe873;stop-opacity:1"/></linearGradient></defs></svg>