<?xml version="1.0" encoding="UTF-8" standalone="no"?><!DOCTYPE svg PUBLIC "-//W3C//DTD SVG 1.1//EN" "http://www.w3.org/Graphics/SVG/1.1/DTD/svg11.dtd"><svg width="100%" height="100%" viewBox="0 0 25 25" version="1.1" xmlns="http://www.w3.org/2000/svg" xmlns:xlink="http://www.w3.org/1999/xlink" xml:space="preserve" xmlns:serif="http://www.serif.com/" style="fill-rule:evenodd;clip-rule:evenodd;stroke-linejoin:round;stroke-miterlimit:2;"><rect id="react" x="0.877" y="0.5" width="24" height="24" style="fill:none;"/><g><circle cx="12.881" cy="12.477" r="2.055" style="fill:#00d8ff;"/><path d="M12.881,17.185c-2.886,0 -5.408,-0.339 -7.295,-0.986c-1.224,-0.418 -2.264,-0.975 -3.005,-1.609c-0.786,-0.672 -1.204,-1.405 -1.204,-2.113c0,-1.359 1.491,-2.69 3.992,-3.557c2.047,-0.713 4.716,-1.11 7.508,-1.11c2.743,0 5.376,0.385 7.41,1.089c1.192,0.409 2.195,0.942 2.907,1.531c0.774,0.647 1.183,1.355 1.183,2.047c0,1.413 -1.666,2.841 -4.352,3.73c-1.899,0.63 -4.437,0.978 -7.144,0.978Zm0,-8.392c-2.648,-0 -5.269,0.384 -7.185,1.052c-2.3,0.802 -3.332,1.899 -3.332,2.632c-0,0.762 1.109,1.961 3.541,2.792c1.785,0.61 4.201,0.934 6.976,0.934c2.604,-0 5.032,-0.328 6.837,-0.93c2.526,-0.839 3.681,-2.038 3.681,-2.796c-0,-0.389 -0.295,-0.847 -0.831,-1.293c-0.618,-0.516 -1.519,-0.987 -2.596,-1.36c-1.936,-0.663 -4.454,-1.031 -7.091,-1.031Z" style="fill:#00d8ff;fill-rule:nonzero;"/><path d="M8.218,22.72c-0.417,0 -0.786,-0.09 -1.097,-0.27c-1.175,-0.679 -1.584,-2.636 -1.089,-5.236c0.405,-2.133 1.396,-4.639 2.792,-7.058c1.372,-2.375 3.018,-4.463 4.643,-5.875c0.95,-0.827 1.912,-1.433 2.78,-1.752c0.945,-0.348 1.764,-0.348 2.362,-0.004c1.224,0.704 1.629,2.866 1.056,5.633c-0.405,1.965 -1.371,4.336 -2.722,6.681c-1.441,2.498 -2.997,4.512 -4.5,5.826c-0.974,0.852 -1.977,1.474 -2.894,1.797c-0.479,0.172 -0.929,0.258 -1.331,0.258Zm1.028,-12.318l0.426,0.245c-1.323,2.293 -2.301,4.753 -2.678,6.751c-0.454,2.395 -0.016,3.836 0.614,4.201c0.156,0.09 0.361,0.139 0.61,0.139c0.815,-0 2.096,-0.516 3.579,-1.81c1.42,-1.24 2.906,-3.173 4.294,-5.576c1.302,-2.256 2.227,-4.524 2.612,-6.386c0.536,-2.608 0.074,-4.205 -0.585,-4.586c-0.336,-0.192 -0.881,-0.167 -1.536,0.074c-0.757,0.278 -1.613,0.823 -2.472,1.572c-1.544,1.343 -3.12,3.341 -4.438,5.625l-0.426,-0.249Z" style="fill:#00d8ff;fill-rule:nonzero;"/><path d="M17.544,22.733c-1.113,-0 -2.526,-0.672 -3.999,-1.941c-1.646,-1.416 -3.321,-3.525 -4.721,-5.944c-1.375,-2.375 -2.358,-4.844 -2.771,-6.96c-0.242,-1.237 -0.287,-2.371 -0.131,-3.284c0.172,-0.994 0.577,-1.703 1.179,-2.051c1.22,-0.708 3.295,0.021 5.408,1.9c1.498,1.331 3.07,3.353 4.425,5.695c1.446,2.497 2.416,4.851 2.801,6.808c0.249,1.269 0.29,2.448 0.114,3.406c-0.188,1.02 -0.614,1.744 -1.228,2.1c-0.307,0.181 -0.671,0.271 -1.077,0.271Zm-7.868,-8.377c1.326,2.293 2.972,4.369 4.511,5.691c1.847,1.588 3.312,1.932 3.947,1.564c0.659,-0.381 1.142,-1.941 0.643,-4.463c-0.369,-1.85 -1.298,-4.102 -2.69,-6.505c-1.306,-2.256 -2.808,-4.192 -4.229,-5.453c-1.99,-1.769 -3.603,-2.166 -4.262,-1.785c-0.336,0.192 -0.585,0.68 -0.704,1.367c-0.135,0.795 -0.094,1.81 0.127,2.928c0.393,2.01 1.334,4.372 2.657,6.656Z" style="fill:#00d8ff;fill-rule:nonzero;"/></g></svg>