<?xml version="1.0" encoding="UTF-8" standalone="no"?><!DOCTYPE svg PUBLIC "-//W3C//DTD SVG 1.1//EN" "http://www.w3.org/Graphics/SVG/1.1/DTD/svg11.dtd"><svg width="100%" height="100%" viewBox="0 0 25 25" version="1.1" xmlns="http://www.w3.org/2000/svg" xmlns:xlink="http://www.w3.org/1999/xlink" xml:space="preserve" xmlns:serif="http://www.serif.com/" style="fill-rule:evenodd;clip-rule:evenodd;stroke-linejoin:round;stroke-miterlimit:2;"><rect id="robot" x="0.54" y="0.296" width="24" height="24" style="fill:none;"/><path id="path" d="M5.812,10.578c-0,-1.813 1.431,-3.245 3.244,-3.245c1.814,0 3.245,1.432 3.245,3.245c0,0.668 -0.572,1.145 -1.145,1.145c-0.668,0 -1.145,-0.572 -1.145,-1.145c-0,-0.477 -0.382,-0.859 -0.859,-0.859c-0.477,0 -0.859,0.382 -0.859,0.859c-0,0.668 -0.573,1.145 -1.145,1.145c-0.573,0 -1.336,-0.477 -1.336,-1.145m13.361,5.44c-0,0.668 -0.573,1.145 -1.146,1.145l-10.879,0c-0.668,0 -1.146,-0.573 -1.146,-1.145c0,-0.668 0.573,-1.145 1.146,-1.145l10.975,-0c0.572,-0 1.05,0.572 1.05,1.145m-5.059,-4.772c-0.381,-0.573 -0.19,-1.241 0.287,-1.622l2.767,-1.814c0.573,-0.381 1.241,-0.19 1.623,0.287c0.382,0.572 0.191,1.24 -0.287,1.622l-2.767,1.813c-0.191,0.096 -0.477,0.191 -0.668,0.191c-0.382,0.096 -0.764,-0.095 -0.955,-0.477m7.444,7.253c0,0.191 -0.095,0.477 -0.286,0.573l-2.004,2.004c-0.191,0.191 -0.382,0.286 -0.573,0.286l-12.406,0c-0.191,0 -0.477,-0.095 -0.573,-0.286l-2.004,-2.004c-0.191,-0.191 -0.286,-0.382 -0.286,-0.573l-0,-12.406c-0,-0.191 0.095,-0.478 0.286,-0.573l2.004,-2.004c0.096,-0.191 0.286,-0.286 0.573,-0.286l12.406,-0c0.191,-0 0.478,0.095 0.573,0.286l2.004,2.004c0.191,0.191 0.286,0.382 0.286,0.573l0,12.406Zm1.718,-14.411l-2.672,-2.672c-0.382,-0.382 -0.859,-0.572 -1.431,-0.572l-13.361,-0c-0.573,-0 -1.05,0.19 -1.527,0.668l-2.577,2.576c-0.477,0.478 -0.668,0.955 -0.668,1.527l-0,13.361c-0,0.573 0.191,1.146 0.668,1.527l2.672,2.673c0.382,0.381 0.859,0.572 1.432,0.572l13.361,0c0.572,0 1.145,-0.191 1.527,-0.668l2.672,-2.672c0.381,-0.382 0.668,-0.954 0.668,-1.527l-0,-13.266c-0.096,-0.572 -0.287,-1.049 -0.764,-1.527" style="fill:#fff;fill-rule:nonzero;"/></svg>