<?xml version="1.0" encoding="UTF-8" standalone="no"?><!DOCTYPE svg PUBLIC "-//W3C//DTD SVG 1.1//EN" "http://www.w3.org/Graphics/SVG/1.1/DTD/svg11.dtd"><svg width="100%" height="100%" viewBox="0 0 25 25" version="1.1" xmlns="http://www.w3.org/2000/svg" xmlns:xlink="http://www.w3.org/1999/xlink" xml:space="preserve" xmlns:serif="http://www.serif.com/" style="fill-rule:evenodd;clip-rule:evenodd;stroke-linejoin:round;"><rect id="rust" x="0.36" y="0.586" width="24" height="24" style="fill:none;"/><path id="r" d="M1.685,13.476l-0.999,-0.6c-0.102,-0.061 -0.164,-0.171 -0.164,-0.29c-0,-0.118 0.062,-0.229 0.164,-0.29l0.999,-0.599c0.009,-0.108 0.02,-0.214 0.032,-0.321l-0.863,-0.783c-0.088,-0.079 -0.128,-0.2 -0.105,-0.316c0.023,-0.117 0.106,-0.212 0.218,-0.253l1.095,-0.392c0.03,-0.104 0.061,-0.207 0.094,-0.31l-0.692,-0.935c-0.071,-0.096 -0.087,-0.221 -0.041,-0.331c0.045,-0.11 0.145,-0.188 0.263,-0.205l1.152,-0.172c0.049,-0.095 0.1,-0.19 0.152,-0.283l-0.498,-1.054c-0.051,-0.108 -0.041,-0.234 0.025,-0.333c0.066,-0.098 0.179,-0.155 0.297,-0.15l1.167,0.057c0.066,-0.083 0.134,-0.165 0.202,-0.246l-0.283,-1.133c-0.029,-0.116 0.005,-0.238 0.089,-0.322c0.084,-0.084 0.206,-0.117 0.321,-0.088l1.134,0.283c0.081,-0.069 0.163,-0.136 0.246,-0.203l-0.057,-1.166c-0.006,-0.119 0.051,-0.232 0.15,-0.298c0.099,-0.066 0.225,-0.075 0.332,-0.024l1.054,0.497c0.094,-0.052 0.189,-0.102 0.284,-0.152l0.171,-1.152c0.018,-0.118 0.096,-0.217 0.206,-0.263c0.109,-0.045 0.235,-0.03 0.33,0.041l0.935,0.693c0.103,-0.033 0.206,-0.065 0.31,-0.094l0.393,-1.096c0.04,-0.112 0.136,-0.194 0.252,-0.217c0.117,-0.024 0.237,0.016 0.317,0.104l0.783,0.863c0.106,-0.012 0.213,-0.022 0.32,-0.031l0.6,-1c0.061,-0.102 0.171,-0.164 0.29,-0.164c0.119,0 0.229,0.062 0.29,0.164l0.6,1c0.107,0.009 0.214,0.019 0.32,0.031l0.783,-0.863c0.08,-0.088 0.2,-0.128 0.316,-0.104c0.117,0.023 0.213,0.105 0.253,0.217l0.392,1.096c0.104,0.029 0.208,0.061 0.31,0.094l0.935,-0.693c0.096,-0.071 0.221,-0.086 0.331,-0.041c0.11,0.046 0.188,0.145 0.205,0.263l0.172,1.152c0.095,0.05 0.19,0.1 0.284,0.152l1.053,-0.497c0.108,-0.051 0.234,-0.042 0.333,0.024c0.099,0.066 0.156,0.179 0.15,0.298l-0.057,1.166c0.083,0.067 0.165,0.134 0.246,0.203l1.134,-0.283c0.115,-0.029 0.237,0.004 0.321,0.088c0.084,0.084 0.118,0.206 0.089,0.322l-0.284,1.133c0.069,0.081 0.137,0.163 0.203,0.246l1.166,-0.057c0.119,-0.005 0.232,0.052 0.298,0.15c0.066,0.099 0.075,0.225 0.025,0.333l-0.498,1.054c0.052,0.093 0.103,0.188 0.152,0.283l1.152,0.172c0.118,0.017 0.218,0.095 0.263,0.205c0.045,0.11 0.03,0.235 -0.041,0.331l-0.692,0.935c0.032,0.103 0.064,0.206 0.094,0.31l1.095,0.392c0.112,0.041 0.194,0.136 0.218,0.253c0.023,0.116 -0.017,0.237 -0.105,0.316l-0.863,0.783c0.012,0.107 0.023,0.213 0.031,0.321l1,0.599c0.102,0.061 0.164,0.172 0.164,0.29c0,0.119 -0.062,0.229 -0.164,0.29l-1,0.6c-0.008,0.107 -0.019,0.214 -0.031,0.32l0.863,0.783c0.088,0.08 0.128,0.2 0.105,0.317c-0.024,0.116 -0.106,0.212 -0.218,0.252l-1.095,0.393c-0.03,0.104 -0.062,0.207 -0.094,0.31l0.692,0.935c0.071,0.095 0.086,0.221 0.041,0.331c-0.045,0.109 -0.145,0.187 -0.263,0.205l-1.152,0.171c-0.049,0.096 -0.1,0.19 -0.152,0.284l0.498,1.054c0.05,0.107 0.041,0.234 -0.025,0.332c-0.066,0.099 -0.179,0.156 -0.298,0.15l-1.166,-0.057c-0.066,0.084 -0.134,0.166 -0.203,0.247l0.284,1.133c0.029,0.115 -0.005,0.237 -0.089,0.321c-0.084,0.084 -0.206,0.118 -0.321,0.089l-1.134,-0.283c-0.081,0.069 -0.163,0.136 -0.246,0.202l0.057,1.167c0.006,0.119 -0.051,0.231 -0.15,0.298c-0.099,0.066 -0.225,0.075 -0.333,0.024l-1.053,-0.498c-0.094,0.052 -0.189,0.103 -0.284,0.152l-0.172,1.153c-0.017,0.117 -0.095,0.217 -0.205,0.262c-0.11,0.046 -0.235,0.03 -0.331,-0.04l-0.935,-0.693c-0.102,0.033 -0.206,0.064 -0.31,0.094l-0.392,1.095c-0.04,0.112 -0.136,0.195 -0.253,0.218c-0.116,0.023 -0.236,-0.016 -0.316,-0.104l-0.783,-0.863c-0.106,0.012 -0.213,0.022 -0.32,0.031l-0.6,0.999c-0.061,0.102 -0.171,0.165 -0.29,0.165c-0.119,-0 -0.229,-0.063 -0.29,-0.165l-0.6,-0.999c-0.107,-0.009 -0.214,-0.019 -0.32,-0.031l-0.783,0.863c-0.08,0.088 -0.2,0.127 -0.317,0.104c-0.116,-0.023 -0.212,-0.106 -0.252,-0.218l-0.393,-1.095c-0.104,-0.03 -0.207,-0.061 -0.31,-0.094l-0.935,0.693c-0.095,0.07 -0.221,0.086 -0.33,0.04c-0.11,-0.045 -0.188,-0.145 -0.206,-0.262l-0.171,-1.153c-0.095,-0.049 -0.19,-0.1 -0.284,-0.152l-1.054,0.498c-0.107,0.051 -0.233,0.042 -0.332,-0.024c-0.099,-0.067 -0.156,-0.179 -0.15,-0.298l0.057,-1.167c-0.083,-0.066 -0.165,-0.133 -0.246,-0.202l-1.134,0.283c-0.115,0.029 -0.237,-0.005 -0.321,-0.089c-0.084,-0.084 -0.118,-0.206 -0.089,-0.321l0.283,-1.133c-0.068,-0.081 -0.136,-0.163 -0.202,-0.247l-1.167,0.057c-0.118,0.006 -0.231,-0.051 -0.297,-0.15c-0.066,-0.098 -0.076,-0.225 -0.025,-0.332l0.498,-1.054c-0.052,-0.094 -0.103,-0.188 -0.152,-0.284l-1.152,-0.171c-0.118,-0.018 -0.218,-0.096 -0.263,-0.205c-0.046,-0.11 -0.03,-0.236 0.041,-0.331l0.692,-0.935c-0.033,-0.103 -0.064,-0.206 -0.094,-0.31l-1.095,-0.393c-0.112,-0.04 -0.195,-0.136 -0.218,-0.252c-0.023,-0.117 0.017,-0.237 0.105,-0.317l0.863,-0.783c-0.012,-0.106 -0.023,-0.213 -0.032,-0.32Zm19.321,-0.1c0.023,-0.26 0.035,-0.524 0.035,-0.79c0,-0.671 -0.076,-1.324 -0.221,-1.952l-0.954,-0.486l0.486,-0.955c-1.228,-2.886 -3.975,-4.973 -7.235,-5.255l-0.757,0.756l-0.757,-0.756c-2.281,0.197 -4.311,1.278 -5.745,2.898l9.321,0c2.705,0 4.735,3.608 1.352,5.412c0.226,0 1.128,0.902 1.353,2.03c0.226,1.127 2.255,1.352 2.255,-0.451l0,-0.451l0.867,-0Zm-16.426,-4.645c-0.075,0.152 -0.146,0.306 -0.212,0.462l0.486,0.955l-0.955,0.486c-0.144,0.628 -0.22,1.281 -0.22,1.952c-0,0.903 0.138,1.774 0.394,2.594l2.762,-0l0,-5.863l-2.255,-0l0,-0.586Zm0.736,8.929c0.393,0.543 0.846,1.039 1.351,1.478l1.054,-0.167l0.167,1.056c1.307,0.788 2.837,1.241 4.472,1.241c1.635,-0 3.165,-0.453 4.472,-1.241l0.167,-1.056l1.054,0.167c0.505,-0.439 0.958,-0.935 1.35,-1.478l-3.548,-0c-2.029,-0 -0.676,-4.284 -3.157,-4.284l-2.255,-0l0,1.804l2.03,-0l-0,2.48l-7.157,-0Zm5.127,-8.343l0,1.804l2.932,-0c1.804,-0 1.804,-1.804 -0,-1.804l-2.932,-0Z" style="fill:#fff;stroke:#fff;stroke-width:0.23px;"/></svg>