<?xml version="1.0" encoding="UTF-8" standalone="no"?><!DOCTYPE svg PUBLIC "-//W3C//DTD SVG 1.1//EN" "http://www.w3.org/Graphics/SVG/1.1/DTD/svg11.dtd"><svg width="100%" height="100%" viewBox="0 0 25 25" version="1.1" xmlns="http://www.w3.org/2000/svg" xmlns:xlink="http://www.w3.org/1999/xlink" xml:space="preserve" xmlns:serif="http://www.serif.com/" style="fill-rule:evenodd;clip-rule:evenodd;stroke-linejoin:round;stroke-miterlimit:2;"><rect id="spring" x="0.647" y="0.384" width="24" height="24" style="fill:none;"/><clipPath id="_clip1"><rect id="spring.svg" x="1.147" y="0.884" width="23" height="23"/></clipPath><g clip-path="url(#_clip1)"><path d="M22.063,2.093c-0.322,0.773 -0.735,1.504 -1.229,2.18c-2.164,-2.173 -5.107,-3.396 -8.173,-3.396c-6.327,0 -11.533,5.207 -11.533,11.534c-0,3.166 1.303,6.195 3.6,8.372l0.426,0.377c2.079,1.751 4.711,2.712 7.429,2.712c6.016,0 11.072,-4.709 11.5,-10.709c0.314,-2.937 -0.548,-6.653 -2.02,-11.069l-0,-0.001Zm-15.694,18.757c-0.187,0.231 -0.469,0.366 -0.767,0.366c-0.541,0 -0.986,-0.445 -0.986,-0.986c0,-0.541 0.445,-0.986 0.986,-0.986c0.226,-0 0.446,0.078 0.622,0.22c0.419,0.341 0.485,0.966 0.145,1.386Zm15.646,-3.453c-2.846,3.791 -8.923,2.512 -12.819,2.696c-0,-0 -0.691,0.04 -1.386,0.154c-0,0 0.262,-0.111 0.597,-0.238c2.736,-0.952 4.03,-1.136 5.692,-1.991c3.129,-1.591 6.225,-5.075 6.868,-8.697c-1.19,3.484 -4.806,6.48 -8.096,7.697c-2.256,0.831 -6.33,1.641 -6.33,1.641l-0.165,-0.088c-2.772,-1.348 -2.857,-7.352 2.184,-9.288c2.208,-0.85 4.32,-0.383 6.704,-0.952c2.546,-0.605 5.491,-2.512 6.69,-5.001c1.34,3.982 2.955,10.214 0.059,14.069l0.002,-0.002Z" style="fill:#68bd45;fill-rule:nonzero;"/></g></svg>