<?xml version="1.0" encoding="UTF-8" standalone="no"?><!DOCTYPE svg PUBLIC "-//W3C//DTD SVG 1.1//EN" "http://www.w3.org/Graphics/SVG/1.1/DTD/svg11.dtd"><svg width="100%" height="100%" viewBox="0 0 25 25" version="1.1" xmlns="http://www.w3.org/2000/svg" xmlns:xlink="http://www.w3.org/1999/xlink" xml:space="preserve" xmlns:serif="http://www.serif.com/" style="fill-rule:evenodd;clip-rule:evenodd;stroke-linejoin:round;stroke-miterlimit:2;"><rect id="storybook" x="0.461" y="0.251" width="24" height="24" style="fill:none;"/><g><path id="path-1" d="M3.944,21.9l-0.711,-18.945c-0.023,-0.625 0.457,-1.156 1.081,-1.195l16.114,-1.007c0.636,-0.04 1.184,0.444 1.224,1.08c0.001,0.024 0.002,0.048 0.002,0.072l-0,20.643c-0,0.637 -0.517,1.154 -1.154,1.154c-0.017,0 -0.035,-0 -0.052,-0.001l-15.402,-0.692c-0.6,-0.027 -1.079,-0.509 -1.102,-1.109Z" style="fill:#ff4785;fill-rule:nonzero;"/><path d="M16.835,3.572l0.11,-2.647l2.213,-0.174l0.096,2.73c0.003,0.095 -0.071,0.175 -0.166,0.178c-0.041,0.001 -0.081,-0.012 -0.113,-0.037l-0.853,-0.672l-1.011,0.766c-0.075,0.058 -0.183,0.043 -0.241,-0.033c-0.024,-0.032 -0.036,-0.071 -0.035,-0.111Zm-2.83,5.83c0,0.448 3.024,0.233 3.43,-0.082c0,-3.057 -1.64,-4.664 -4.644,-4.664c-3.004,0 -4.687,1.632 -4.687,4.079c0,4.262 5.752,4.344 5.752,6.669c0,0.652 -0.319,1.04 -1.022,1.04c-0.917,-0 -1.279,-0.468 -1.236,-2.059c-0,-0.345 -3.494,-0.452 -3.601,0c-0.271,3.855 2.131,4.967 4.879,4.967c2.663,0 4.751,-1.419 4.751,-3.989c-0,-4.568 -5.837,-4.446 -5.837,-6.71c-0,-0.917 0.681,-1.04 1.086,-1.04c0.426,0 1.193,0.075 1.129,1.789Z" style="fill:#fff;fill-rule:nonzero;"/></g></svg>