<?xml version="1.0" encoding="UTF-8" standalone="no"?><!DOCTYPE svg PUBLIC "-//W3C//DTD SVG 1.1//EN" "http://www.w3.org/Graphics/SVG/1.1/DTD/svg11.dtd"><svg width="100%" height="100%" viewBox="0 0 25 25" version="1.1" xmlns="http://www.w3.org/2000/svg" xmlns:xlink="http://www.w3.org/1999/xlink" xml:space="preserve" xmlns:serif="http://www.serif.com/" style="fill-rule:evenodd;clip-rule:evenodd;stroke-linejoin:round;stroke-miterlimit:2;"><rect id="typescript" x="0.852" y="0.53" width="24" height="24" style="fill:none;"/><clipPath id="_clip1"><rect id="typescript.svg" x="1.352" y="1.03" width="23" height="23"/></clipPath><g clip-path="url(#_clip1)"><path d="M24.352,3.276c-0,-1.239 -1.007,-2.246 -2.247,-2.246l-18.507,0c-1.24,0 -2.246,1.007 -2.246,2.246l-0,18.508c-0,1.24 1.006,2.246 2.246,2.246l18.507,0c1.24,0 2.247,-1.006 2.247,-2.246l-0,-18.508Z" style="fill:#3178c6;"/><path d="M24.352,3.276c-0,-1.239 -1.007,-2.246 -2.247,-2.246l-18.507,0c-1.24,0 -2.246,1.007 -2.246,2.246l-0,18.508c-0,1.24 1.006,2.246 2.246,2.246l18.507,0c1.24,0 2.247,-1.006 2.247,-2.246l-0,-18.508Z" style="fill:#3178c6;"/><path d="M15.589,19.332l0,2.249c0.366,0.188 0.798,0.328 1.297,0.422c0.499,0.094 1.025,0.14 1.579,0.14c0.539,0 1.051,-0.051 1.536,-0.154c0.485,-0.103 0.91,-0.273 1.276,-0.51c0.365,-0.236 0.655,-0.546 0.868,-0.927c0.213,-0.382 0.32,-0.854 0.32,-1.416c-0,-0.408 -0.061,-0.765 -0.183,-1.072c-0.122,-0.307 -0.298,-0.58 -0.527,-0.819c-0.23,-0.239 -0.505,-0.453 -0.826,-0.643c-0.321,-0.19 -0.683,-0.369 -1.087,-0.537c-0.295,-0.122 -0.56,-0.241 -0.794,-0.355c-0.234,-0.115 -0.433,-0.232 -0.598,-0.352c-0.164,-0.119 -0.29,-0.246 -0.379,-0.379c-0.089,-0.134 -0.134,-0.285 -0.134,-0.453c0,-0.155 0.04,-0.294 0.12,-0.419c0.079,-0.124 0.192,-0.23 0.337,-0.319c0.146,-0.089 0.324,-0.158 0.535,-0.208c0.21,-0.049 0.445,-0.073 0.703,-0.073c0.187,-0 0.385,0.014 0.594,0.042c0.208,0.028 0.418,0.071 0.629,0.13c0.211,0.058 0.416,0.132 0.615,0.221c0.199,0.089 0.383,0.192 0.552,0.309l-0,-2.101c-0.342,-0.131 -0.716,-0.228 -1.121,-0.292c-0.406,-0.063 -0.871,-0.094 -1.396,-0.094c-0.534,-0 -1.04,0.057 -1.519,0.172c-0.478,0.115 -0.898,0.294 -1.262,0.537c-0.363,0.244 -0.65,0.554 -0.861,0.931c-0.211,0.378 -0.316,0.829 -0.316,1.353c-0,0.67 0.193,1.242 0.58,1.715c0.387,0.473 0.974,0.874 1.761,1.202c0.309,0.126 0.598,0.25 0.865,0.372c0.267,0.122 0.498,0.249 0.692,0.38c0.195,0.131 0.348,0.274 0.461,0.428c0.112,0.155 0.169,0.331 0.169,0.527c-0,0.146 -0.036,0.28 -0.106,0.405c-0.07,0.124 -0.177,0.231 -0.32,0.323c-0.143,0.091 -0.321,0.163 -0.534,0.214c-0.213,0.052 -0.463,0.077 -0.749,0.077c-0.487,0 -0.97,-0.085 -1.448,-0.256c-0.478,-0.171 -0.921,-0.428 -1.329,-0.77Zm-3.781,-5.54l2.885,-0l0,-1.846l-8.041,0l0,1.846l2.871,-0l0,8.217l2.285,-0l0,-8.217Z" style="fill:#fff;"/></g></svg>