<?xml version="1.0" encoding="UTF-8" standalone="no"?><!DOCTYPE svg PUBLIC "-//W3C//DTD SVG 1.1//EN" "http://www.w3.org/Graphics/SVG/1.1/DTD/svg11.dtd"><svg width="100%" height="100%" viewBox="0 0 24 25" version="1.1" xmlns="http://www.w3.org/2000/svg" xmlns:xlink="http://www.w3.org/1999/xlink" xml:space="preserve" xmlns:serif="http://www.serif.com/" style="fill-rule:evenodd;clip-rule:evenodd;stroke-linejoin:round;stroke-miterlimit:2;"><rect id="vite" x="0" y="0.952" width="24" height="24" style="fill:none;"/><path d="M22.919,4.96l-10.322,18.457c-0.213,0.381 -0.761,0.383 -0.977,0.004l-10.526,-18.459c-0.236,-0.414 0.117,-0.914 0.586,-0.831l10.333,1.847c0.065,0.012 0.133,0.012 0.199,0l10.117,-1.844c0.466,-0.085 0.821,0.412 0.59,0.826Z" style="fill:url(#_Linear1);fill-rule:nonzero;"/><path d="M16.935,1.709l-7.639,1.497c-0.125,0.024 -0.218,0.131 -0.226,0.258l-0.47,7.936c-0.011,0.187 0.161,0.332 0.343,0.29l2.127,-0.491c0.199,-0.046 0.379,0.13 0.338,0.33l-0.632,3.094c-0.043,0.208 0.153,0.386 0.356,0.324l1.314,-0.399c0.203,-0.062 0.399,0.117 0.356,0.325l-1.004,4.86c-0.063,0.304 0.341,0.47 0.51,0.209l0.113,-0.174l6.224,-12.421c0.104,-0.208 -0.076,-0.445 -0.304,-0.401l-2.189,0.422c-0.206,0.04 -0.381,-0.152 -0.323,-0.353l1.429,-4.953c0.058,-0.202 -0.117,-0.393 -0.323,-0.353Z" style="fill:url(#_Linear2);fill-rule:nonzero;"/><defs><linearGradient id="_Linear1" x1="0" y1="0" x2="1" y2="0" gradientUnits="userSpaceOnUse" gradientTransform="matrix(12.8463,17.4463,-17.4463,12.8463,0.836595,3.47186)"><stop offset="0" style="stop-color:#41d1ff;stop-opacity:1"/><stop offset="1" style="stop-color:#bd34fe;stop-opacity:1"/></linearGradient><linearGradient id="_Linear2" x1="0" y1="0" x2="1" y2="0" gradientUnits="userSpaceOnUse" gradientTransform="matrix(2.32384,15.9413,-15.9413,2.32384,11.4194,2.11532)"><stop offset="0" style="stop-color:#ffea83;stop-opacity:1"/><stop offset="0.08" style="stop-color:#ffdd35;stop-opacity:1"/><stop offset="1" style="stop-color:#ffa800;stop-opacity:1"/></linearGradient></defs></svg>