<?xml version="1.0" encoding="UTF-8" standalone="no"?>
<!DOCTYPE svg PUBLIC "-//W3C//DTD SVG 1.1//EN" "http://www.w3.org/Graphics/SVG/1.1/DTD/svg11.dtd">
<svg width="100%" height="100%" viewBox="0 0 25 24" version="1.1" xmlns="http://www.w3.org/2000/svg" xmlns:xlink="http://www.w3.org/1999/xlink" xml:space="preserve" xmlns:serif="http://www.serif.com/" style="fill-rule:evenodd;clip-rule:evenodd;stroke-linejoin:round;stroke-miterlimit:2;">
    <g transform="matrix(1,0,0,1,-33,0)">
        <g transform="matrix(0.126952,0,0,0.126952,-7.16241,-23.6977)">
            <rect id="instagram" x="323.81" y="186.667" width="189.048" height="189.048" style="fill:none;"/>
            <g id="instagram1" serif:id="instagram">
                <g transform="matrix(7.87698,0,0,7.87698,52.4797,182.728)">
                    <path d="M46.446,0.938C52.793,0.938 57.946,6.091 57.946,12.438C57.946,18.785 52.793,23.938 46.446,23.938C40.099,23.938 34.946,18.785 34.946,12.438C34.946,6.091 40.099,0.938 46.446,0.938ZM46.446,5.615C44.594,5.615 44.359,5.623 43.632,5.658C42.905,5.693 42.41,5.805 41.977,5.975C41.529,6.149 41.146,6.381 40.767,6.763C40.389,7.142 40.157,7.525 39.979,7.973C39.809,8.406 39.693,8.905 39.662,9.628C39.631,10.354 39.619,10.586 39.619,12.442C39.619,14.293 39.627,14.525 39.662,15.256C39.697,15.983 39.809,16.478 39.979,16.91C40.153,17.359 40.385,17.742 40.767,18.12C41.146,18.499 41.529,18.735 41.977,18.909C42.41,19.079 42.909,19.191 43.632,19.226C44.359,19.261 44.59,19.268 46.446,19.268C48.298,19.268 48.529,19.261 49.26,19.226C49.987,19.191 50.482,19.079 50.918,18.909C51.367,18.735 51.746,18.499 52.124,18.12C52.503,17.742 52.735,17.359 52.913,16.91C53.079,16.478 53.195,15.983 53.23,15.256C53.261,14.529 53.272,14.297 53.272,12.442C53.272,10.59 53.265,10.358 53.23,9.628C53.195,8.901 53.079,8.406 52.913,7.973C52.739,7.525 52.503,7.142 52.124,6.763C51.746,6.385 51.367,6.153 50.914,5.975C50.478,5.805 49.983,5.693 49.256,5.658C48.529,5.623 48.298,5.615 46.446,5.615ZM45.835,6.845L46.446,6.845C48.267,6.845 48.483,6.852 49.202,6.883C49.867,6.914 50.226,7.026 50.47,7.119C50.787,7.243 51.015,7.39 51.255,7.629C51.494,7.869 51.641,8.097 51.765,8.414C51.858,8.654 51.97,9.017 52.001,9.682C52.032,10.401 52.039,10.617 52.039,12.438C52.039,14.259 52.032,14.475 52.001,15.194C51.97,15.859 51.858,16.219 51.765,16.462C51.641,16.779 51.494,17.007 51.255,17.247C51.015,17.486 50.791,17.633 50.47,17.757C50.23,17.85 49.867,17.962 49.202,17.993C48.483,18.024 48.267,18.031 46.446,18.031C44.625,18.031 44.409,18.024 43.69,17.993C43.025,17.962 42.665,17.85 42.422,17.757C42.105,17.633 41.877,17.486 41.637,17.247C41.398,17.007 41.251,16.779 41.127,16.462C41.034,16.222 40.922,15.859 40.891,15.194C40.86,14.475 40.852,14.259 40.852,12.438C40.852,10.617 40.86,10.401 40.891,9.682C40.922,9.017 41.034,8.658 41.127,8.414C41.251,8.097 41.398,7.869 41.637,7.629C41.877,7.39 42.105,7.243 42.422,7.119C42.662,7.026 43.025,6.914 43.69,6.883C44.32,6.852 44.563,6.845 45.835,6.845ZM46.446,8.936C44.509,8.936 42.944,10.505 42.944,12.438C42.944,14.375 44.513,15.94 46.446,15.94C48.383,15.94 49.948,14.371 49.948,12.438C49.948,10.501 48.383,8.936 46.446,8.936ZM46.446,10.165C47.702,10.165 48.719,11.182 48.719,12.438C48.719,13.694 47.702,14.711 46.446,14.711C45.19,14.711 44.173,13.694 44.173,12.438C44.173,11.182 45.19,10.165 46.446,10.165ZM50.087,7.977C49.635,7.977 49.268,8.344 49.268,8.797C49.268,9.249 49.635,9.616 50.087,9.616C50.54,9.616 50.907,9.249 50.907,8.797C50.907,8.344 50.54,7.977 50.087,7.977Z"/>
                </g>
            </g>
        </g>
    </g>
</svg>
