<?xml version="1.0" encoding="UTF-8" standalone="no"?><!DOCTYPE svg PUBLIC "-//W3C//DTD SVG 1.1//EN" "http://www.w3.org/Graphics/SVG/1.1/DTD/svg11.dtd"><svg width="100%" height="100%" viewBox="0 0 25 24" version="1.1" xmlns="http://www.w3.org/2000/svg" xmlns:xlink="http://www.w3.org/1999/xlink" xml:space="preserve" xmlns:serif="http://www.serif.com/" style="fill-rule:evenodd;clip-rule:evenodd;stroke-linejoin:round;stroke-miterlimit:2;"><rect id="logo-outline" x="0.885" y="0" width="24" height="24" style="fill:none;"/><path d="M16.488,8.281l7.897,13.678l-3.603,0l-6.096,-10.557l1.802,-3.121Zm-0,0.693l-1.402,2.428l5.896,10.211l2.803,0l-7.297,-12.639Zm-11.5,6.745l7.897,-13.678l1.801,3.12l-6.095,10.558l-3.603,-0Zm0.599,-0.347l2.804,0l5.896,-10.211l-1.402,-2.428l-7.298,12.639Zm11.592,6.587l-15.794,0l1.801,-3.12l12.191,-0l1.802,3.12Zm-0.6,-0.346l-1.402,-2.428l-11.791,0l-1.402,2.428l14.595,0Z"/></svg>