<?xml version="1.0" encoding="UTF-8" standalone="no"?><!DOCTYPE svg PUBLIC "-//W3C//DTD SVG 1.1//EN" "http://www.w3.org/Graphics/SVG/1.1/DTD/svg11.dtd"><svg width="100%" height="100%" viewBox="0 0 24 25" version="1.1" xmlns="http://www.w3.org/2000/svg" xmlns:xlink="http://www.w3.org/1999/xlink" xml:space="preserve" xmlns:serif="http://www.serif.com/" style="fill-rule:evenodd;clip-rule:evenodd;stroke-linejoin:round;stroke-miterlimit:2;"><rect id="lucide" x="0" y="0.804" width="24" height="24" style="fill:none;"/><path d="M15,12.804c0,0.552 -0.448,1 -1,1c-0.552,-0 -1,-0.448 -1,-1c0,-1.657 -1.343,-3 -3,-3c-1.657,-0 -3,1.343 -3,3c0,3.866 3.134,7 7,7c3.866,-0 7,-3.134 7,-7c0,-3.258 -1.416,-6.185 -3.667,-8.199c-0.411,-0.368 -0.446,-1.001 -0.078,-1.412c0.368,-0.412 1.001,-0.447 1.412,-0.079c2.659,2.381 4.333,5.84 4.333,9.69c0,4.971 -4.029,9 -9,9c-4.971,-0 -9,-4.029 -9,-9c0,-2.761 2.239,-5 5,-5c2.761,-0 5,2.239 5,5Z" style="fill:#fff;"/><path d="M9,12.804c0,-0.552 0.448,-1 1,-1c0.552,-0 1,0.448 1,1c0,1.657 1.343,3 3,3c1.657,-0 3,-1.343 3,-3c0,-3.866 -3.134,-7 -7,-7c-3.866,-0 -7,3.134 -7,7c0,3.286 1.441,6.235 3.724,8.25c0.414,0.365 0.453,0.998 0.088,1.412c-0.365,0.414 -0.997,0.453 -1.411,0.088c-2.699,-2.382 -4.401,-5.867 -4.401,-9.75c0,-4.971 4.029,-9 9,-9c4.971,-0 9,4.029 9,9c0,2.761 -2.239,5 -5,5c-2.761,-0 -5,-2.239 -5,-5Z" style="fill:#f56565;"/></svg>