<?xml version="1.0" encoding="UTF-8" standalone="no"?><!DOCTYPE svg PUBLIC "-//W3C//DTD SVG 1.1//EN" "http://www.w3.org/Graphics/SVG/1.1/DTD/svg11.dtd"><svg width="100%" height="100%" viewBox="0 0 25 25" version="1.1" xmlns="http://www.w3.org/2000/svg" xmlns:xlink="http://www.w3.org/1999/xlink" xml:space="preserve" xmlns:serif="http://www.serif.com/" style="fill-rule:evenodd;clip-rule:evenodd;stroke-linejoin:round;stroke-miterlimit:2;"><rect id="tailwind" x="0.126" y="0.414" width="24" height="24" style="fill:none;"/><g><path d="M12.126,5.386c-3.066,0 -4.983,1.534 -5.75,4.6c1.15,-1.533 2.492,-2.108 4.025,-1.725c0.875,0.219 1.501,0.854 2.193,1.556c1.127,1.145 2.432,2.469 5.282,2.469c3.067,0 4.984,-1.533 5.75,-4.6c-1.15,1.534 -2.491,2.109 -4.025,1.725c-0.874,-0.218 -1.5,-0.853 -2.192,-1.556c-1.127,-1.144 -2.432,-2.469 -5.283,-2.469Zm-5.75,6.9c-3.066,0 -4.983,1.534 -5.75,4.6c1.15,-1.533 2.492,-2.108 4.025,-1.725c0.875,0.219 1.501,0.854 2.193,1.556c1.127,1.145 2.432,2.469 5.282,2.469c3.067,0 4.984,-1.533 5.75,-4.6c-1.15,1.534 -2.491,2.109 -4.025,1.725c-0.874,-0.218 -1.5,-0.853 -2.192,-1.556c-1.127,-1.144 -2.432,-2.469 -5.283,-2.469Z" style="fill:#38bdf8;"/></g></svg>