<?xml version="1.0" encoding="UTF-8" standalone="no"?><!DOCTYPE svg PUBLIC "-//W3C//DTD SVG 1.1//EN" "http://www.w3.org/Graphics/SVG/1.1/DTD/svg11.dtd"><svg width="100%" height="100%" viewBox="0 0 24 24" version="1.1" xmlns="http://www.w3.org/2000/svg" xmlns:xlink="http://www.w3.org/1999/xlink" xml:space="preserve" xmlns:serif="http://www.serif.com/" style="fill-rule:evenodd;clip-rule:evenodd;stroke-linejoin:round;stroke-miterlimit:2;"><rect id="telegram" x="0" y="0" width="24" height="24" style="fill:none;"/><path id="Oval" d="M12,0.5c6.347,0 11.5,5.153 11.5,11.5c-0,6.347 -5.153,11.5 -11.5,11.5c-6.347,0 -11.5,-5.153 -11.5,-11.5c0,-6.347 5.153,-11.5 11.5,-11.5Zm-6.294,11.379c-0.545,0.216 -0.83,0.428 -0.856,0.635c-0.05,0.398 0.523,0.521 1.243,0.755c0.587,0.191 1.377,0.415 1.787,0.423c0.373,0.009 0.789,-0.145 1.248,-0.46c3.132,-2.115 4.749,-3.183 4.85,-3.206c0.072,-0.017 0.171,-0.037 0.238,0.023c0.068,0.059 0.061,0.173 0.054,0.203c-0.057,0.243 -3,2.919 -3.169,3.095c-0.647,0.672 -1.383,1.083 -0.248,1.832c0.983,0.647 1.555,1.06 2.567,1.724c0.647,0.424 1.154,0.926 1.822,0.865c0.307,-0.028 0.624,-0.317 0.786,-1.179c0.381,-2.037 1.129,-6.45 1.302,-8.268c0.016,-0.159 -0.003,-0.363 -0.019,-0.453c-0.015,-0.089 -0.047,-0.217 -0.163,-0.311c-0.138,-0.112 -0.351,-0.136 -0.446,-0.134c-0.433,0.008 -1.096,0.238 -4.29,1.567c-1.118,0.465 -3.354,1.428 -6.706,2.889Z" style="fill:url(#_Linear1);"/><defs><linearGradient id="_Linear1" x1="0" y1="0" x2="1" y2="0" gradientUnits="userSpaceOnUse" gradientTransform="matrix(1.3979e-15,22.8294,-22.8294,1.3979e-15,12,0.5)"><stop offset="0" style="stop-color:#2aabee;stop-opacity:1"/><stop offset="1" style="stop-color:#229ed9;stop-opacity:1"/></linearGradient></defs></svg>