<svg xmlns="http://www.w3.org/2000/svg" xml:space="preserve" style="fill-rule:evenodd;clip-rule:evenodd;stroke-linejoin:round;stroke-miterlimit:2" viewBox="0 0 550 119"><g transform="translate(765.48 -42.112)"><path d="M-765.477 42.439h550v117.843h-550z" style="fill:none"/><clipPath id="a"><path d="M-765.477 42.439h550v117.843h-550z"/></clipPath><g clip-path="url(#a)"><path d="M-2534.61 1905.36c.75.57 1.58 1.04 2.46 1.36.88.35 1.82.53 2.76.53.91.06 1.82-.15 2.61-.59.56-.32.9-.92.89-1.56.01-.31-.07-.61-.23-.87-.16-.25-.38-.47-.64-.63-.31-.19-.64-.36-.98-.5-.38-.15-.8-.3-1.25-.46l-2.76-1c-.5-.17-.99-.39-1.46-.64s-.91-.56-1.3-.92c-.38-.35-.7-.78-.93-1.25-.24-.51-.37-1.07-.36-1.64 0-.65.18-1.29.51-1.85.36-.6.83-1.11 1.4-1.5a6.8 6.8 0 0 1 2.13-1c.89-.25 1.8-.37 2.72-.36 1.15 0 2.29.19 3.38.58 1.01.34 1.96.86 2.79 1.54l-1.81 1.9c-.63-.43-1.31-.79-2.02-1.05a6.7 6.7 0 0 0-2.34-.39c-.8-.03-1.6.15-2.3.53-.53.28-.86.84-.86 1.44-.01.3.08.59.26.83.2.25.44.46.71.62.33.19.67.35 1.03.48q.585.225 1.2.42l2.73.95c.56.19 1.11.43 1.63.72.46.25.89.57 1.27.94.36.36.64.78.84 1.25.22.51.32 1.06.31 1.62 0 .67-.16 1.33-.49 1.92-.35.62-.84 1.16-1.43 1.57-.69.49-1.46.85-2.27 1.07-.98.28-2 .42-3.02.41-1.33 0-2.66-.22-3.92-.64-1.21-.4-2.34-1.02-3.33-1.82l2.09-2.02z" style="fill:#00af9c;fill-rule:nonzero" transform="translate(6158.683 -4990.556)scale(2.67856)"/><path d="M-2515.5 1906.97h8.84v2.51h-12.4v-16.73h12.1v2.51h-8.54v4.27h7.22v2.51h-7.22z" style="fill:#00af9c;fill-rule:nonzero" transform="translate(6166.96 -4990.45)scale(2.67856)"/><path d="M-2499.23 1892.75v14.22h8.35v2.51h-11.91v-16.73z" style="fill:#00af9c;fill-rule:nonzero" transform="translate(6174.62 -4990.45)scale(2.67856)"/><path d="M-2483.9 1892.75v14.22h8.35v2.51h-11.91v-16.73z" style="fill:#00af9c;fill-rule:nonzero" transform="translate(6181.826 -4990.45)scale(2.67856)"/><path d="M-2475.34 1892.75h3.65l1.75 8.44c.16.91.33 1.8.49 2.69.16.88.33 1.77.49 2.66h.13l.66-2.67c.21-.9.43-1.79.66-2.68l2.45-8.44h3.1l2.46 8.44c.22.87.45 1.75.67 2.65.23.89.45 1.8.68 2.7h.12c.17-.91.32-1.8.48-2.69.15-.88.31-1.77.47-2.66l1.75-8.44h3.41l-3.84 16.73h-4.42l-2.49-8.8c-.16-.65-.32-1.29-.47-1.93s-.29-1.29-.42-1.93h-.12c-.14.64-.29 1.29-.44 1.93-.16.64-.32 1.28-.48 1.93l-2.43 8.8h-4.32z" style="fill:#00af9c;fill-rule:nonzero" transform="translate(6187.531 -4990.45)scale(2.67856)"/><path d="M-2446.97 1906.97h8.84v2.51h-12.4v-16.73h12.09v2.51h-8.53v4.27h7.21v2.51h-7.21z" style="fill:#00af9c;fill-rule:nonzero" transform="translate(6199.183 -4990.45)scale(2.67856)"/><path d="M-2430.7 1900.58h2.85c1.1.07 2.19-.18 3.15-.72.72-.47 1.14-1.29 1.09-2.15a2.07 2.07 0 0 0-1.09-2.02c-.99-.42-2.07-.62-3.15-.56h-2.85zm7.4 8.9-4.33-6.55h-3.07v6.55h-3.56v-16.73h6.79c.97 0 1.95.08 2.91.26.82.14 1.61.42 2.34.83.63.36 1.17.89 1.54 1.52.41.72.6 1.53.57 2.35.06 1.14-.34 2.25-1.09 3.1-.79.82-1.79 1.4-2.9 1.69l4.79 6.98z" style="fill:#00af9c;fill-rule:nonzero" transform="translate(6206.844 -4990.45)scale(2.67856)"/><path d="m-2404.52 1909.48-5.43-7.88-2.89 2.99v4.89h-3.56v-16.73h3.56v7.6h.09l7.15-7.6h3.96l-6.17 6.52 7.22 10.21z" style="fill:#00af9c;fill-rule:nonzero" transform="translate(6215.228 -4990.45)scale(2.67856)"/><path d="M-2549.53 1902.83c-1.36 1.45-4.74 3.22-8.31 4.56 3.57-1.34 6.94-3.11 8.31-4.56" style="fill:#00af9c;fill-rule:nonzero" transform="translate(6147.246 -4985.708)scale(2.67856)"/><path d="m-2558.83 1886.45 6.43 5.08z" style="fill:#00af9c;fill-rule:nonzero" transform="translate(6152.898 -4993.396)scale(2.67856)"/><path d="M-2570.26 1895.23c-2.07 1.2-3.45 2.39-3.33 3.27-.12-.88 1.26-2.07 3.33-3.27" style="fill:#00af9c;fill-rule:nonzero" transform="translate(6145.96 -4989.27)scale(2.67856)"/><path d="M-2558.77 1886.45s-.13.02-.35.07c.22-.05.35-.07.35-.07" style="fill:#00af9c;fill-rule:nonzero" transform="translate(6152.764 -4993.396)scale(2.67856)"/><path d="m-2560.73 1886.9-.1.02z" style="fill:#00af9c;fill-rule:nonzero" transform="translate(6151.96 -4993.181)scale(2.67856)"/><path d="m-2562.88 1887.5-.15.04z" style="fill:#00af9c;fill-rule:nonzero" transform="translate(6150.915 -4992.914)scale(2.67856)"/><path d="M-2563.24 1888.36" style="fill:#00af9c;fill-rule:nonzero" transform="translate(6143.362 -4992.512)scale(2.67856)"/><path d="M-2563.24 1889.62c1.08-.37 2.1-.69 3.03-.96.05-.02.1-.03.15-.05.92-.27 1.74-.5 2.44-.67l.1-.03c.88-.23 1.53-.38 1.9-.46.23-.05.36-.07.36-.07l6.42 5.07c-2.54-.48-9.8.77-14.84 2.66-1.94.71-3.82 1.58-5.61 2.59-2.08 1.19-3.45 2.39-3.34 3.27.02.1.05.2.1.29.82 1.36 3.83 1.33 7.22.26 3.4-1.07 11.73-4.12 17.3-4.7.66-.06 1.31-.11 1.94-.12 1.73-.09 3.46.17 5.09.74v-5.29l-19.06-11-19.06 11v5.77c3.33-2.72 7.07-4.91 11.07-6.47 1.65-.71 3.28-1.31 4.79-1.83" style="fill:#00af9c;fill-rule:nonzero" transform="translate(6143.362 -4995.887)scale(2.67856)"/><path d="M-2552.05 1911.44c-3.93 1.65-8 2.97-12.15 3.94q-.39.09-.54.12l-.07.01-6.43-5.08c.18.04.36.06.53.07.2.02.41.03.63.04.23 0 .47 0 .72-.01 4.43-.31 8.8-1.23 12.97-2.75 3.57-1.34 6.95-3.11 8.31-4.56.56-.6.79-1.15.53-1.59-.82-1.36-3.83-1.33-7.22-.26s-11.72 4.12-17.3 4.7c-1.26.13-2.52.16-3.78.07-.94-.06-1.87-.24-2.77-.53-.16-.05-.32-.1-.47-.16v5.29l19.05 11 19.06-11v-5.77a41.2 41.2 0 0 1-11.07 6.47" style="fill:#00af9c;fill-rule:nonzero" transform="translate(6143.362 -4986.78)scale(2.67856)"/><path d="M-2566.34 1913.17c-.26.06-.45.1-.54.12.09-.02.28-.06.54-.12" style="fill:#00af9c;fill-rule:nonzero" transform="translate(6149.12 -4980.86)scale(2.67856)"/><path d="M-2548.03 1901.63c-.82-1.36-3.83-1.33-7.22-.26s-11.73 4.12-17.3 4.7c5.58-.58 13.91-3.64 17.3-4.7 3.39-1.07 6.4-1.1 7.22.26.26.44.03.99-.53 1.59.56-.6.79-1.15.53-1.59" style="fill:#00af9c;fill-rule:nonzero" transform="translate(6144.674 -4986.78)scale(2.67856)"/><path d="M-2571.33 1909.06c-.22 0-.43-.02-.63-.04.2.02.41.03.63.04" style="fill:#00af9c;fill-rule:nonzero" transform="translate(6146.71 -4982.815)scale(2.67856)"/><path d="M-2550.3 1890.78c-2.54-.48-9.8.77-14.85 2.66 5.05-1.89 12.31-3.14 14.85-2.66" style="fill:#00af9c;fill-rule:nonzero" transform="translate(6147.273 -4991.414)scale(2.67856)"/><path d="M-2548.97 1894.5c-5.58.58-13.91 3.63-17.3 4.7s-6.4 1.1-7.22-.26c.82 1.36 3.83 1.33 7.22.26s11.73-4.13 17.3-4.7" style="fill:#00af9c;fill-rule:nonzero" transform="translate(6145.96 -4989.673)scale(2.67856)"/><path d="M-2578.62 1904.89c-.16-.05-.32-.1-.47-.16.15.06.31.11.47.16" style="fill:#00af9c;fill-rule:nonzero" transform="translate(6143.362 -4984.824)scale(2.67856)"/><path d="M-2562.57 1887.54c-.93.27-1.96.6-3.04.97 1.08-.38 2.11-.7 3.04-.97" style="fill:#00af9c;fill-rule:nonzero" transform="translate(6149.71 -4992.887)scale(2.67856)"/></g></g></svg>