<svg xmlns="http://www.w3.org/2000/svg" xml:space="preserve" style="fill-rule:evenodd;clip-rule:evenodd;stroke-linejoin:round;stroke-miterlimit:2" viewBox="0 0 550 69"><g transform="translate(740.9 -63.751)"><path d="M-740.897 64.709h550v67.925h-550z" style="fill:none"/><clipPath id="a"><path d="M-740.897 64.709h550v67.925h-550z"/></clipPath><g clip-path="url(#a)"><path d="M272.245 554.158h-27.521v38.992h26.76c10.702 1.529 19.879-6.116 21.403-16.817v-3.06c0-10.704-8.41-19.879-19.111-19.879-.001.764-.763.764-1.531.764m1.53 64.224h-29.052V671.9h-28.29V529.692h57.341c30.581 0 48.169 20.644 48.169 44.345.001 23.701-18.349 44.345-48.168 44.345M385.397 571.743l17.588 51.99h-35.938zm-11.463-42.051-53.52 142.972h29.813l9.178-25.23h51.99l8.41 25.23h29.819l-53.52-142.972zM467.97 529.692v142.207h97.099v-24.465h-68.043v-35.17h58.104v-24.466h-58.104v-33.64h68.043v-24.466zM633.88 673.429c-22.171 0-38.991-4.589-53.521-19.114l18.351-18.348c9.939 8.408 22.938 12.997 35.932 12.231 16.82 0 25.998-6.115 25.998-17.585 0-4.586-1.529-9.175-4.589-12.231-3.821-3.059-8.41-4.589-13.761-5.354l-17.588-2.294c-10.702-.765-19.874-5.352-28.29-11.467-7.643-7.646-11.464-17.585-10.701-28.289 0-25.231 19.117-43.578 51.223-43.578 17.588-1.53 34.408 4.586 47.406 16.82l-18.35 17.585c-8.41-6.883-19.117-10.704-29.819-9.942-15.29 0-22.938 8.413-22.938 18.35 0 3.824 1.53 7.648 4.589 9.94 3.827 3.059 8.41 5.354 13.761 5.354l17.588 2.291c9.94.766 19.88 4.589 28.29 10.705 8.41 8.41 12.231 19.114 11.464 30.581-.764 29.055-24.464 44.345-55.045 44.345M755.442 673.429c-22.171 0-38.991-4.589-53.52-19.114l18.35-18.348c9.939 8.408 22.938 12.997 35.932 12.231 16.82 0 25.998-6.115 25.998-17.585 0-4.586-1.529-9.175-4.589-12.231-3.821-3.059-8.41-4.589-12.999-5.354l-17.582-2.294c-10.702-.765-19.88-5.352-28.289-11.467-7.648-7.646-11.47-17.585-10.702-28.289 0-25.231 19.111-43.578 51.223-43.578 17.588-1.53 34.408 4.586 47.401 16.82l-18.35 17.585c-8.41-6.883-19.112-10.704-29.813-9.942-15.291 0-22.939 8.413-22.939 18.35 0 3.824 1.53 7.648 4.589 9.94 3.821 3.059 8.41 5.354 13.762 5.354l17.582 2.291c9.939.766 19.879 4.589 28.289 10.705 8.41 8.41 12.231 19.114 11.47 30.581-.769 29.055-25.232 44.345-55.813 44.345M837.246 529.692v142.207h95.57v-24.465h-66.512V529.692zM956.518 529.692v142.207h97.102v-24.465h-68.813v-35.17h58.103v-24.466h-58.103v-33.64h68.813v-24.466zM1136.95 554.158h-26.76v37.464h26.76c10.7 1.527 19.88-6.115 20.64-16.82.77-10.704-6.11-19.879-16.82-20.644zm22.17 117.741-29.05-56.576h-20.64v56.576h-29.05V529.692h58.1c29.82 0 47.4 19.879 47.4 43.58.77 16.82-10.7 32.11-26.76 37.462l32.88 61.93zM79.581 580.918c0 9.939-8.41 18.35-18.35 18.35s-18.35-7.646-19.112-17.585c0-9.939 8.41-18.35 18.35-18.35 10.701-.765 19.112 7.646 19.112 17.585m12.231 0c-.762-16.82-13.761-29.816-30.581-29.816s-30.582 12.996-30.582 29.816c.762 16.82 13.761 29.816 30.582 29.816 16.82 0 30.581-12.996 30.581-29.816m50.46 79.512H19.948v-22.936c11.464 7.646 25.23 11.47 39.753 11.47 38.991.765 71.102-30.582 71.87-69.575 0-13.762-3.827-27.525-12.231-38.992h23.701zm-22.933-80.277a59.41 59.41 0 0 1-59.638 58.105c-14.523 0-28.29-5.351-39.753-14.525v-82.572h84.096c9.939 10.702 15.295 24.466 15.295 38.992m35.165-50.461H7.711v142.972h146.793z" style="fill:#dbeafe;fill-rule:nonzero" transform="translate(-744.374 -179.406)scale(.46441)"/><path d="M272.245 554.158h-27.521v38.992h26.76c10.702 1.529 19.879-6.116 21.403-16.817v-3.06c0-10.704-8.41-19.879-19.111-19.879-.001.764-.763.764-1.531.764m1.53 64.224h-29.052V671.9h-28.29V529.692h57.341c30.581 0 48.169 20.644 48.169 44.345.001 23.701-18.349 44.345-48.168 44.345M385.397 571.743l17.588 51.99h-35.938zm-11.463-42.051-53.52 142.972h29.813l9.178-25.23h51.99l8.41 25.23h29.819l-53.52-142.972zM467.97 529.692v142.207h97.099v-24.465h-68.043v-35.17h58.104v-24.466h-58.104v-33.64h68.043v-24.466zM633.88 673.429c-22.171 0-38.991-4.589-53.521-19.114l18.351-18.348c9.939 8.408 22.938 12.997 35.932 12.231 16.82 0 25.998-6.115 25.998-17.585 0-4.586-1.529-9.175-4.589-12.231-3.821-3.059-8.41-4.589-13.761-5.354l-17.588-2.294c-10.702-.765-19.874-5.352-28.29-11.467-7.643-7.646-11.464-17.585-10.701-28.289 0-25.231 19.117-43.578 51.223-43.578 17.588-1.53 34.408 4.586 47.406 16.82l-18.35 17.585c-8.41-6.883-19.117-10.704-29.819-9.942-15.29 0-22.938 8.413-22.938 18.35 0 3.824 1.53 7.648 4.589 9.94 3.827 3.059 8.41 5.354 13.761 5.354l17.588 2.291c9.94.766 19.88 4.589 28.29 10.705 8.41 8.41 12.231 19.114 11.464 30.581-.764 29.055-24.464 44.345-55.045 44.345M755.442 673.429c-22.171 0-38.991-4.589-53.52-19.114l18.35-18.348c9.939 8.408 22.938 12.997 35.932 12.231 16.82 0 25.998-6.115 25.998-17.585 0-4.586-1.529-9.175-4.589-12.231-3.821-3.059-8.41-4.589-12.999-5.354l-17.582-2.294c-10.702-.765-19.88-5.352-28.289-11.467-7.648-7.646-11.47-17.585-10.702-28.289 0-25.231 19.111-43.578 51.223-43.578 17.588-1.53 34.408 4.586 47.401 16.82l-18.35 17.585c-8.41-6.883-19.112-10.704-29.813-9.942-15.291 0-22.939 8.413-22.939 18.35 0 3.824 1.53 7.648 4.589 9.94 3.821 3.059 8.41 5.354 13.762 5.354l17.582 2.291c9.939.766 19.879 4.589 28.289 10.705 8.41 8.41 12.231 19.114 11.47 30.581-.769 29.055-25.232 44.345-55.813 44.345M837.246 529.692v142.207h95.57v-24.465h-66.512V529.692zM956.518 529.692v142.207h97.102v-24.465h-68.813v-35.17h58.103v-24.466h-58.103v-33.64h68.813v-24.466zM1136.95 554.158h-26.76v37.464h26.76c10.7 1.527 19.88-6.115 20.64-16.82.77-10.704-6.11-19.879-16.82-20.644zm22.17 117.741-29.05-56.576h-20.64v56.576h-29.05V529.692h58.1c29.82 0 47.4 19.879 47.4 43.58.77 16.82-10.7 32.11-26.76 37.462l32.88 61.93zM79.581 580.918c0 9.939-8.41 18.35-18.35 18.35s-18.35-7.646-19.112-17.585c0-9.939 8.41-18.35 18.35-18.35 10.701-.765 19.112 7.646 19.112 17.585m12.231 0c-.762-16.82-13.761-29.816-30.581-29.816s-30.582 12.996-30.582 29.816c.762 16.82 13.761 29.816 30.582 29.816 16.82 0 30.581-12.996 30.581-29.816m50.46 79.512H19.948v-22.936c11.464 7.646 25.23 11.47 39.753 11.47 38.991.765 71.102-30.582 71.87-69.575 0-13.762-3.827-27.525-12.231-38.992h23.701zm-22.933-80.277a59.41 59.41 0 0 1-59.638 58.105c-14.523 0-28.29-5.351-39.753-14.525v-82.572h84.096c9.939 10.702 15.295 24.466 15.295 38.992m35.165-50.461H7.711v142.972h146.793z" style="fill:#dbeafe;fill-rule:nonzero" transform="translate(-744.374 -179.406)scale(.46441)"/></g></g></svg>