<svg xmlns="http://www.w3.org/2000/svg" xml:space="preserve" style="fill-rule:evenodd;clip-rule:evenodd;stroke-linejoin:round;stroke-miterlimit:2" viewBox="0 0 550 152"><g transform="translate(775.47 -413.244)"><path d="M-775.468 414.127h550v150.732h-550z" style="fill:none"/><clipPath id="a"><path d="M-775.468 414.127h550v150.732h-550z"/></clipPath><g clip-path="url(#a)"><path d="M31.844.094a.576.576 0 0 0-.594.594c0 .33.16.389.438.468.096.028.281.063.281.188 0 .118-.115.187-.219.187-.15 0-.264-.09-.375-.187l-.187.344c.173.121.38.218.593.218a.7.7 0 0 0 .469-.156c.136-.116.187-.299.188-.469 0-.276-.202-.397-.438-.468l-.094-.032c-.077-.026-.218-.057-.218-.156 0-.094.136-.156.218-.156.108 0 .2.057.282.125l.187-.344a1.2 1.2 0 0 0-.531-.156m4.062 0c-.49 0-.968.36-.968.875 0 .551.422.937.968.937.548 0 .938-.386.938-.937 0-.515-.448-.875-.938-.875m10.969 0c-.549 0-.937.353-.937.906 0 .536.371.906.906.906.285 0 .55-.111.719-.343.151-.212.152-.408.156-.657h-.875v.344h.375c-.018.198-.183.281-.375.281-.291 0-.438-.266-.438-.531 0-.259.146-.531.438-.531.179 0 .314.119.375.281l.406-.187c-.146-.319-.4-.469-.75-.469M33.094.156v1.688h.437v-.563h.25c.388 0 .625-.161.625-.562 0-.392-.259-.563-.625-.563zm4.406 0v1.688h.438v-.656l.437.656h.531l-.531-.688c.243-.042.376-.265.375-.5 0-.363-.257-.5-.594-.5zm1.844 0v.375h.375v1.313h.437V.531h.375V.156zm1.969 0-.282 1.688h.438l.156-.969.375.969h.188l.406-.969.125.969h.437l-.25-1.688h-.437l-.375.907-.344-.907zm3 0-.657 1.688h.469l.125-.281h.594l.125.281h.469L44.781.156zm4.562 0-.656 1.688h.469l.125-.281h.625l.093.281H50L49.375.156zm1.75 0v.375h.656l-.812 1.313h1.469v-.375h-.719l.812-1.313zm2.031 0v1.688h.438V.156zm1.188 0v1.688h.437V.813l.813 1.031h.437V.156h-.437v1.032L54.281.156zM33.531.5h.094c.173 0 .312.005.313.219 0 .209-.152.218-.313.219h-.094zm4.407 0h.031c.145 0 .312.001.312.188 0 .183-.167.218-.312.218h-.031zm-2.032.031c.264 0 .469.203.469.438 0 .294-.205.5-.469.5a.497.497 0 0 1-.5-.5c0-.235.237-.438.5-.438m8.657.157.187.531h-.375zm4.562 0 .188.531h-.375z" style="fill:#7d7d7d;fill-rule:nonzero" transform="translate(-774.938 414.25)scale(9.90435)"/><path d="M14.344 0c-1.219 0-2.219 1-2.219 2.219 0 1.217 1 2.187 2.219 2.187 1.217 0 2.187-.97 2.187-2.187C16.531 1 15.561 0 14.344 0M0 .156v14.782h3.906v-3.844l.094.062 3.125 3.782h5.094L7.5 9.781l4.469-4.625H6.938L4.656 7.875 4 8.656l-.094.063V.156zm25.625 0v14.782h3.906v-3.844l.125.062 3.094 3.782h5.125l-4.719-5.157 4.438-4.625h-5l-2.313 2.719-.625.781-.125.063V.156zm-3.312 4.719C19.3 4.875 17 7.076 17 10.125c0 3.069 2.351 5.094 5.344 5.094 1.392 0 2.501-.534 2.5-.531 0 0-.029-3.284-.031-3.282-.407.335-1.12.719-1.75.719-1.204 0-2.094-.905-2.094-2.094 0-1.183.909-2.062 2.094-2.062.658 0 1.273.355 1.781.75V5.438a6.1 6.1 0 0 0-2.531-.563m19.375 0c-3.163 0-5.469 1.995-5.469 5.25 0 3.371 2.569 5.094 5.75 5.094 2.22 0 4.541-1.059 5.125-3.375h-3.75c-.284.584-.748.875-1.406.875-1.301 0-1.844-.824-1.844-2.031h7.156c0 .005.031-.369.031-.438 0-3.295-2.263-5.375-5.593-5.375M54.844 5c-.873.034-2.195.292-2.969 1.688h-.062l.031-1.532h-3.906v9.782h3.906v-3.875c0-1.525.525-2.626 2.219-2.625.565 0 .978.124 1.468.406V5c-.154 0-.396-.011-.687 0m-42.469.156v9.782h3.906V5.156zm29.5 2.094c.847 0 1.544.621 1.656 1.469h-3.406c.131-.904.829-1.469 1.75-1.469" style="fill:#df0023;fill-rule:nonzero" transform="translate(-774.938 414.25)scale(9.90435)"/></g></g></svg>