<svg xmlns="http://www.w3.org/2000/svg" xml:space="preserve" style="fill-rule:evenodd;clip-rule:evenodd;stroke-linejoin:round;stroke-miterlimit:2" viewBox="0 0 450 305"><g transform="translate(539 407.317)"><path d="M-539-406.682h450V-103.3h-450z" style="fill:none"/><clipPath id="a"><path d="M-539-406.682h450V-103.3h-450z"/></clipPath><g clip-path="url(#a)"><path d="M533.944 756.705 386.433 500.344l105.972-60.869 183.428 317.23zM141.04 720.787l105.971-61.28 56.071 97.198H161.603zM349.007 798.243h30.16v122.011h-30.16zM726.968 923.134c-33.724 0-54.014-17.411-55.111-41.95h31.806c0 7.677 4.798 18.918 25.362 19.33 13.709 0 20.152-8.089 20.152-14.121-.823-9.596-12.887-10.419-25.773-12.475-12.887-2.057-23.854-4.387-31.805-8.5-10.145-5.209-17-16.451-17-29.337 0-21.798 18.919-39.071 50.45-39.071 30.571 0 49.901 16.039 51.958 39.893h-30.709c-.274-6.443-1.508-16.588-19.604-16.588-12.201 0-20.289 2.468-20.975 10.967 0 12.476 25.362 11.653 45.103 16.863 18.919 4.798 30.983 16.588 30.983 33.039 0 30.297-24.54 41.95-54.837 41.95M265.244 611.936l105.972-61.143 118.858 205.912H379.167v30.16h-30.16v-30.297zM267.986 923.134c-35.095 0-63.61-28.653-63.61-63.337 0-35.095 28.515-62.787 63.61-62.787 13.298 0 25.362 3.564 35.918 10.83v-51.135h30.16v163.55h-30.16v-8.089c-10.556 6.855-22.62 10.968-35.918 10.968m-34.684-63.337c0 18.919 16.177 34.684 35.507 34.684 18.918 0 35.095-15.765 35.095-34.684s-16.177-35.095-35.095-35.095c-19.33 0-35.507 16.177-35.507 35.095M490.897 756.705h29.749v163.55h-29.749v-8.089c-10.145 6.855-22.62 10.968-36.329 10.968-34.685 0-63.2-28.653-63.2-63.337 0-35.095 28.515-62.787 63.2-62.787 13.709 0 25.773 3.564 36.329 10.83zm-70.191 103.092c0 18.919 16.177 34.684 34.684 34.684 19.33 0 35.507-15.765 35.507-34.684s-16.177-35.095-35.507-35.095c-18.507 0-34.684 16.177-34.684 35.095M593.99 923.134c-34.547 0-63.2-28.653-63.2-63.337 0-35.095 28.653-62.787 63.2-62.787 13.297 0 25.773 3.564 35.918 10.83v-9.734h30.16v122.149h-30.16v-8.089c-10.145 6.855-22.209 10.968-35.918 10.968m-33.862-63.337c0 18.919 16.177 34.684 35.095 34.684 18.919 0 34.685-15.765 34.685-34.684s-15.766-35.095-34.685-35.095c-18.918 0-35.095 16.177-35.095 35.095M93.469 859.797c0 18.919 16.177 34.684 35.095 34.684 19.33 0 35.507-15.765 35.507-34.684s-16.177-35.095-35.507-35.095c-18.918 0-35.095 16.177-35.095 35.095m34.273 63.337c-34.684 0-63.337-28.653-63.337-63.337 0-35.095 28.653-62.787 63.337-62.787 13.298 0 25.773 3.564 36.329 10.83v-9.734h29.749v122.149h-29.749v-8.089c-10.145 6.855-22.62 10.968-36.329 10.968" style="fill:#dbeafe;fill-rule:nonzero" transform="translate(-578.399 -682.03)scale(.62727)"/></g></g></svg>