<svg xmlns="http://www.w3.org/2000/svg" xml:space="preserve" style="fill-rule:evenodd;clip-rule:evenodd;stroke-linejoin:round;stroke-miterlimit:2" viewBox="0 0 400 395"><g transform="translate(893.99 -303.701)"><path d="M-893.987 303.701h400v394.497h-400z" style="fill:none"/><clipPath id="a"><path d="M-893.987 303.701h400v394.497h-400z"/></clipPath><g clip-path="url(#a)"><path d="M.063 67.125v20.25h7.312c5.446 0 10.125-4.368 10.125-9.969-.155-6.223-4.054-10.281-9.5-10.281zm24.437 0-7.781 20.25h4.344l6.062-16.031 5 12.75H26.5v3.281h11.219l-7.938-20.25zm9.781 0v3.438h6.563v16.812h4.5V70.563h6.375v-3.438zm19.157 0v20.25h14v-3.281h-9.657V78.5h8.563v-3.437h-8.563v-4.5h9.188v-3.438zm14.625 0L76 87.375h4.813l7.781-20.25H77.875v3.438H83l-4.687 12.281-5.75-15.719zM4.25 70.563h3.438c3.422 0 5.75 2.486 5.593 6.687-.155 4.358-3.11 6.687-6.687 6.688H4.25z" style="fill:#039a9a" transform="translate(-893.97 304.398)scale(4.51499)"/><path d="M-20.298-19.682h88.279v62.449h-88.279z" style="fill:#90d033;fill-rule:nonzero" transform="translate(-802.327 393.262)scale(4.51499)"/></g></g></svg>