<svg xmlns="http://www.w3.org/2000/svg" xml:space="preserve" style="fill-rule:evenodd;clip-rule:evenodd;stroke-linejoin:round;stroke-miterlimit:2" viewBox="0 0 551 151"><g transform="translate(-2169.852 -606.84)"><path d="M2170.24 606.84h550v150.439h-550z" style="fill:none"/><clipPath id="a"><path d="M2170.24 606.84h550v150.439h-550z"/></clipPath><g clip-path="url(#a)"><path d="M.635 39.945c9.294-4.786 22.908-12.52 39.068-23.83V12.32C25.481 21.623 11.018 29.096.635 34.038zM.635 28.609C10.983 24.393 25.446 17.879 39.703 9.4V7.526C26.304 14.173 12.382 18.334.635 20.927zM39.704 39.963V20.87c-8.895 7.498-17.703 13.991-25.103 19.093zM9.605 39.963c7.026-4.171 15.556-9.615 24.049-15.977a510 510 0 0 0 6.05-4.596v-2.366C27.132 26.449 14.301 34.305 4.277 39.963zM.635 18.15c11.427-2.01 25.407-5.625 39.068-12.117V3.904c-13.766 6.18-27.546 8.801-39.068 9.733z" style="fill:#dbeafe;fill-rule:nonzero" transform="translate(2169.027 606.087)scale(2.2826)"/><path d="M.635.697v10.938q1.28-.08 2.612-.183c9.5-.731 22.465-2.409 36.456-8.459V.697zM52.86 39.945h5.251v-11.48h8.851v-4.126h-8.851v-6.45h9.302v-4.125H52.86zm18.152 0h5.026v-7.091c0-2.774 0-7.877 4.087-7.877.9 0 1.8.148 2.252.413v-5.063c-.526-.151-1.05-.151-1.539-.151-3 0-5.063 3.041-5.288 4.837h-.075v-4.386h-4.463zm15.115-13.992c1.687-1.277 3.824-2.1 5.963-2.1 2.961 0 4.35 1.05 4.35 4.163h-2.775c-2.1 0-4.576.184-6.489 1.124s-3.298 2.626-3.298 5.517c0 3.672 3.336 5.738 6.749 5.738 2.288 0 4.801-1.2 5.962-3.339h.077c.039.599.039 1.87.224 2.889h4.425a87 87 0 0 1-.226-4.316 172 172 0 0 1-.074-4.839v-2.475c0-5.703-2.437-8.139-8.325-8.139-2.139 0-4.763.564-6.714 1.464zm2.548 8.403c0-2.965 3.338-3.34 5.589-3.34h2.176c0 1.502-.225 2.887-1.052 3.978-.787 1.046-1.985 1.725-3.523 1.725-1.8 0-3.19-.715-3.19-2.363m34.283-13.729h-5.029v9.453c0 2.472-.787 6.413-4.425 6.413-3.225 0-3.263-3.19-3.263-5.553V20.627h-5.025v12.191c0 4.35 1.988 7.577 6.564 7.577 2.624 0 4.8-1.2 6.337-3.077h.077v2.627h4.764zm5.177 19.318h5.024v-9.456c0-2.473.789-6.414 4.426-6.414 3.222 0 3.261 3.191 3.261 5.552v10.318h5.03V27.753c0-4.35-1.991-7.577-6.565-7.577-2.627 0-4.765.864-6.338 3.077h-.08v-2.626h-4.758zm22.913 0h5.025v-9.456c0-2.473.789-6.414 4.428-6.414 3.224 0 3.261 3.191 3.261 5.552v10.318h5.022V27.753c0-4.35-1.986-7.577-6.559-7.577-2.625 0-4.802 1.201-6.072 3.077h-.08V11.814h-5.025zm20.925-9.528c0 5.548 3.717 9.978 10.092 9.978 6.412 0 10.125-4.43 10.125-9.978 0-6.378-4.385-10.241-10.125-10.241-5.701 0-10.092 3.863-10.092 10.241m5.252-.603c0-2.887 1.575-5.739 4.84-5.739 3.301 0 4.875 2.778 4.875 5.739 0 3.227-1.01 6.679-4.875 6.679-3.83 0-4.84-3.49-4.84-6.679m19.991 10.131h5.023V24.302h4.389v-3.675h-4.389v-2.401c0-1.499.527-2.963 2.219-2.963 1.084 0 1.722.413 2.17.678l.414-4.165a17.7 17.7 0 0 0-3.674-.413c-3.979 0-6.152 2.7-6.152 6.564v2.7h-3.711v3.675h3.711zm16.05-11.554c.229-2.588 1.651-4.538 4.463-4.538 2.817 0 3.942 2.1 4.088 4.538zm11.928 6.378c-1.877 1.048-3.975 1.95-6.416 1.95-3.107 0-5.283-1.761-5.512-4.879h13.35c0-6.751-2.023-11.664-9.188-11.664-5.998 0-8.96 4.613-8.96 10.201 0 6.342 3.71 10.018 10.089 10.018 2.702 0 4.797-.525 6.637-1.539zm5.027 5.176h5.024v-7.091c0-2.774 0-7.877 4.086-7.877.902 0 1.803.148 2.254.413v-5.063c-.532-.151-1.053-.151-1.541-.151-2.998 0-5.061 3.041-5.285 4.837h-.079v-4.386h-4.459zM222.239 53.281h2.537v13.098h-2.537zM228.186 53.281h2.538v13.098h-2.538zM238.034 55.121a3 3 0 0 0-.652.075 1.9 1.9 0 0 0-.655.28 1.5 1.5 0 0 0-.488.564q-.2.356-.199.9 0 .413.252.695.256.282.635.506.42.226.906.414.474.205.998.431.526.207 1.015.488.507.3.889.731.38.413.635.995.204.564.218 1.341v.144q-.05 2.09-1.398 3-1.358.92-3.353.919h-.03q-.96-.002-1.621-.15a31 31 0 0 1-1.595-.355l.236-2.366q1.342.789 2.865.808a3 3 0 0 0 1.506-.414q.723-.412.742-1.276 0-.469-.217-.806a2.2 2.2 0 0 0-.634-.563q-.835-.45-1.905-.863a7 7 0 0 1-.998-.526 4.8 4.8 0 0 1-.906-.675 3.6 3.6 0 0 1-.635-.994q-.254-.583-.254-1.37.038-2.177 1.397-3.116 1.306-.882 3.027-.882a9.5 9.5 0 0 1 3.029.47l-.236 2.157a6.45 6.45 0 0 0-2.574-.562" style="fill:#dbeafe;fill-rule:nonzero" transform="translate(2169.027 606.087)scale(2.2826)"/></g></g></svg>