<svg xmlns="http://www.w3.org/2000/svg" xml:space="preserve" style="fill-rule:evenodd;clip-rule:evenodd;stroke-linejoin:round;stroke-miterlimit:2" viewBox="0 0 550 88"><g transform="translate(691.452 -422.445)"><path d="M-691.452 422.94h550v87.508h-550z" style="fill:none"/><clipPath id="a"><path d="M-691.452 422.94h550v87.508h-550z"/></clipPath><g clip-path="url(#a)"><path d="M200.121 10.347v5.829c-3.02-1.141-5.708-1.717-8.061-1.717-1.394 0-2.504.258-3.339.757-.834.503-1.26 1.123-1.26 1.854 0 .973.942 1.837 2.839 2.612l5.481 2.667c4.43 2.112 6.629 4.917 6.629 8.44 0 2.929-1.166 5.265-3.519 6.994-2.336 1.747-5.481 2.612-9.395 2.612q-2.71.002-4.87-.241c-1.441-.155-3.097-.474-4.934-.93v-6.099c3.368 1.14 6.435 1.716 9.197 1.716 3.295 0 4.934-.955 4.934-2.882 0-.96-.671-1.734-2.034-2.34l-6.088-2.594c-2.245-1.016-3.914-2.246-5.007-3.704-1.075-1.471-1.622-3.158-1.622-5.085 0-2.697 1.136-4.87 3.382-6.522 2.262-1.639 5.265-2.46 8.999-2.46 1.213 0 2.611.107 4.16.305 1.561.211 3.063.469 4.508.788m-172.399 0v5.829c-3.02-1.141-5.704-1.717-8.057-1.717-1.398 0-2.504.258-3.338.757-.835.503-1.261 1.123-1.261 1.854 0 .973.955 1.837 2.852 2.612l5.481 2.667c4.414 2.112 6.616 4.917 6.616 8.44 0 2.929-1.17 5.265-3.506 6.994-2.353 1.747-5.48 2.612-9.408 2.612q-2.712.002-4.874-.241c-1.441-.155-3.08-.474-4.93-.93v-6.099c3.382 1.14 6.449 1.716 9.193 1.716 3.295 0 4.934-.955 4.934-2.882 0-.96-.666-1.734-2.017-2.34l-6.087-2.594c-2.263-1.016-3.932-2.246-5.007-3.704-1.093-1.471-1.627-3.158-1.627-5.085q0-4.045 3.386-6.522c2.246-1.639 5.252-2.46 8.986-2.46 1.226 0 2.607.107 4.173.305 1.549.211 3.05.469 4.491.788m6.281-.547h8.926v30.048h-8.926zm37.684 0v5.554H58.424v6.663h11.503v5.008H58.424v6.994h13.534v5.829H49.834V9.8zm41.671 0v30.048h-8.333V20.03l-8.646 20.094h-5.145L82.919 20.03v19.818h-6.027V9.8h10.896l7.438 18.395L103.008 9.8zm28.745 0v5.554h-13.19v6.663h11.503v5.008h-11.503v6.994h13.461v5.829H120.25V9.8zm31.321 0v30.048h-9.468l-10.625-19.272v19.272h-6.023V9.8h9.744l10.35 18.941V9.8z" style="fill:#099" transform="translate(-709.696 397.874)scale(2.8101)"/></g></g></svg>