<?xml version="1.0" encoding="UTF-8" standalone="no"?>
<!DOCTYPE svg PUBLIC "-//W3C//DTD SVG 1.1//EN" "http://www.w3.org/Graphics/SVG/1.1/DTD/svg11.dtd">
<svg width="100%" height="100%" viewBox="0 0 550 118" version="1.1" xmlns="http://www.w3.org/2000/svg" xmlns:xlink="http://www.w3.org/1999/xlink" xml:space="preserve" xmlns:serif="http://www.serif.com/" style="fill-rule:evenodd;clip-rule:evenodd;stroke-linejoin:round;stroke-miterlimit:2;">
    <g transform="matrix(1,0,0,1,-2902,-1059)">
        <g id="company-logo-sellwerk" transform="matrix(1,0,0,1,3667.48,1016.63)">
            <rect x="-765.477" y="42.439" width="550" height="117.843" style="fill:none;"/>
            <clipPath id="_clip1">
                <rect x="-765.477" y="42.439" width="550" height="117.843"/>
            </clipPath>
            <g clip-path="url(#_clip1)">
                <g transform="matrix(2.67856,0,0,2.67856,12264.3,6142.53)">
                    <g transform="matrix(1,0,0,1,-2279.44,-4156.37)">
                        <path d="M-2534.61,1905.36C-2533.86,1905.93 -2533.03,1906.4 -2532.15,1906.72C-2531.27,1907.07 -2530.33,1907.25 -2529.39,1907.25C-2528.48,1907.31 -2527.57,1907.1 -2526.78,1906.66C-2526.22,1906.34 -2525.88,1905.74 -2525.89,1905.1C-2525.88,1904.79 -2525.96,1904.49 -2526.12,1904.23C-2526.28,1903.98 -2526.5,1903.76 -2526.76,1903.6C-2527.07,1903.41 -2527.4,1903.24 -2527.74,1903.1C-2528.12,1902.95 -2528.54,1902.8 -2528.99,1902.64L-2531.75,1901.64C-2532.25,1901.47 -2532.74,1901.25 -2533.21,1901C-2533.68,1900.75 -2534.12,1900.44 -2534.51,1900.08C-2534.89,1899.73 -2535.21,1899.3 -2535.44,1898.83C-2535.68,1898.32 -2535.81,1897.76 -2535.8,1897.19C-2535.8,1896.54 -2535.62,1895.9 -2535.29,1895.34C-2534.93,1894.74 -2534.46,1894.23 -2533.89,1893.84C-2533.24,1893.38 -2532.52,1893.05 -2531.76,1892.84C-2530.87,1892.59 -2529.96,1892.47 -2529.04,1892.48C-2527.89,1892.48 -2526.75,1892.67 -2525.66,1893.06C-2524.65,1893.4 -2523.7,1893.92 -2522.87,1894.6L-2524.68,1896.5C-2525.31,1896.07 -2525.99,1895.71 -2526.7,1895.45C-2527.45,1895.18 -2528.24,1895.05 -2529.04,1895.06C-2529.84,1895.03 -2530.64,1895.21 -2531.34,1895.59C-2531.87,1895.87 -2532.2,1896.43 -2532.2,1897.03C-2532.21,1897.33 -2532.12,1897.62 -2531.94,1897.86C-2531.74,1898.11 -2531.5,1898.32 -2531.23,1898.48C-2530.9,1898.67 -2530.56,1898.83 -2530.2,1898.96C-2529.81,1899.11 -2529.41,1899.25 -2529,1899.38L-2526.27,1900.33C-2525.71,1900.52 -2525.16,1900.76 -2524.64,1901.05C-2524.18,1901.3 -2523.75,1901.62 -2523.37,1901.99C-2523.01,1902.35 -2522.73,1902.77 -2522.53,1903.24C-2522.31,1903.75 -2522.21,1904.3 -2522.22,1904.86C-2522.22,1905.53 -2522.38,1906.19 -2522.71,1906.78C-2523.06,1907.4 -2523.55,1907.94 -2524.14,1908.35C-2524.83,1908.84 -2525.6,1909.2 -2526.41,1909.42C-2527.39,1909.7 -2528.41,1909.84 -2529.43,1909.83C-2530.76,1909.83 -2532.09,1909.61 -2533.35,1909.19C-2534.56,1908.79 -2535.69,1908.17 -2536.68,1907.37L-2534.59,1905.35L-2534.61,1905.36Z" style="fill:rgb(0,175,156);fill-rule:nonzero;"/>
                    </g>
                    <g transform="matrix(1,0,0,1,-2276.35,-4156.33)">
                        <path d="M-2515.5,1906.97L-2506.66,1906.97L-2506.66,1909.48L-2519.06,1909.48L-2519.06,1892.75L-2506.96,1892.75L-2506.96,1895.26L-2515.5,1895.26L-2515.5,1899.53L-2508.28,1899.53L-2508.28,1902.04L-2515.5,1902.04L-2515.5,1906.97Z" style="fill:rgb(0,175,156);fill-rule:nonzero;"/>
                    </g>
                    <g transform="matrix(1,0,0,1,-2273.49,-4156.33)">
                        <path d="M-2499.23,1892.75L-2499.23,1906.97L-2490.88,1906.97L-2490.88,1909.48L-2502.79,1909.48L-2502.79,1892.75L-2499.23,1892.75L-2499.23,1892.75Z" style="fill:rgb(0,175,156);fill-rule:nonzero;"/>
                    </g>
                    <g transform="matrix(1,0,0,1,-2270.8,-4156.33)">
                        <path d="M-2483.9,1892.75L-2483.9,1906.97L-2475.55,1906.97L-2475.55,1909.48L-2487.46,1909.48L-2487.46,1892.75L-2483.9,1892.75L-2483.9,1892.75Z" style="fill:rgb(0,175,156);fill-rule:nonzero;"/>
                    </g>
                    <g transform="matrix(1,0,0,1,-2268.67,-4156.33)">
                        <path d="M-2475.34,1892.75L-2471.69,1892.75L-2469.94,1901.19C-2469.78,1902.1 -2469.61,1902.99 -2469.45,1903.88C-2469.29,1904.76 -2469.12,1905.65 -2468.96,1906.54L-2468.83,1906.54C-2468.61,1905.65 -2468.39,1904.76 -2468.17,1903.87C-2467.96,1902.97 -2467.74,1902.08 -2467.51,1901.19L-2465.06,1892.75L-2461.96,1892.75L-2459.5,1901.19C-2459.28,1902.06 -2459.05,1902.94 -2458.83,1903.84C-2458.6,1904.73 -2458.38,1905.64 -2458.15,1906.54L-2458.03,1906.54C-2457.86,1905.63 -2457.71,1904.74 -2457.55,1903.85C-2457.4,1902.97 -2457.24,1902.08 -2457.08,1901.19L-2455.33,1892.75L-2451.92,1892.75L-2455.76,1909.48L-2460.18,1909.48L-2462.67,1900.68C-2462.83,1900.03 -2462.99,1899.39 -2463.14,1898.75C-2463.29,1898.11 -2463.43,1897.46 -2463.56,1896.82L-2463.68,1896.82C-2463.82,1897.46 -2463.97,1898.11 -2464.12,1898.75C-2464.28,1899.39 -2464.44,1900.03 -2464.6,1900.68L-2467.03,1909.48L-2471.35,1909.48L-2475.34,1892.75L-2475.34,1892.75Z" style="fill:rgb(0,175,156);fill-rule:nonzero;"/>
                    </g>
                    <g transform="matrix(1,0,0,1,-2264.32,-4156.33)">
                        <path d="M-2446.97,1906.97L-2438.13,1906.97L-2438.13,1909.48L-2450.53,1909.48L-2450.53,1892.75L-2438.44,1892.75L-2438.44,1895.26L-2446.97,1895.26L-2446.97,1899.53L-2439.76,1899.53L-2439.76,1902.04L-2446.97,1902.04L-2446.97,1906.97Z" style="fill:rgb(0,175,156);fill-rule:nonzero;"/>
                    </g>
                    <g transform="matrix(1,0,0,1,-2261.46,-4156.33)">
                        <path d="M-2430.7,1900.58L-2427.85,1900.58C-2426.75,1900.65 -2425.66,1900.4 -2424.7,1899.86C-2423.98,1899.39 -2423.56,1898.57 -2423.61,1897.71C-2423.53,1896.88 -2423.96,1896.09 -2424.7,1895.69C-2425.69,1895.27 -2426.77,1895.07 -2427.85,1895.13L-2430.7,1895.13L-2430.7,1900.58L-2430.7,1900.58ZM-2423.3,1909.48L-2427.63,1902.93L-2430.7,1902.93L-2430.7,1909.48L-2434.26,1909.48L-2434.26,1892.75L-2427.47,1892.75C-2426.5,1892.75 -2425.52,1892.83 -2424.56,1893.01C-2423.74,1893.15 -2422.95,1893.43 -2422.22,1893.84C-2421.59,1894.2 -2421.05,1894.73 -2420.68,1895.36C-2420.27,1896.08 -2420.08,1896.89 -2420.11,1897.71C-2420.05,1898.85 -2420.45,1899.96 -2421.2,1900.81C-2421.99,1901.63 -2422.99,1902.21 -2424.1,1902.5L-2419.31,1909.48L-2423.3,1909.48Z" style="fill:rgb(0,175,156);fill-rule:nonzero;"/>
                    </g>
                    <g transform="matrix(1,0,0,1,-2258.33,-4156.33)">
                        <path d="M-2404.52,1909.48L-2409.95,1901.6L-2412.84,1904.59L-2412.84,1909.48L-2416.4,1909.48L-2416.4,1892.75L-2412.84,1892.75L-2412.84,1900.35L-2412.75,1900.35L-2405.6,1892.75L-2401.64,1892.75L-2407.81,1899.27L-2400.59,1909.48L-2404.52,1909.48Z" style="fill:rgb(0,175,156);fill-rule:nonzero;"/>
                    </g>
                    <g transform="matrix(1,0,0,1,-2283.71,-4154.56)">
                        <path d="M-2549.53,1902.83C-2550.89,1904.28 -2554.27,1906.05 -2557.84,1907.39C-2562.02,1908.9 -2566.38,1909.83 -2570.81,1910.14C-2566.38,1909.83 -2562.02,1908.9 -2557.84,1907.39C-2554.27,1906.05 -2550.9,1904.28 -2549.53,1902.83Z" style="fill:rgb(0,175,156);fill-rule:nonzero;"/>
                    </g>
                    <g transform="matrix(1,0,0,1,-2281.6,-4157.43)">
                        <path d="M-2558.83,1886.45L-2552.4,1891.53L-2558.83,1886.45Z" style="fill:rgb(0,175,156);fill-rule:nonzero;"/>
                    </g>
                    <g transform="matrix(1,0,0,1,-2283.81,-4153.47)">
                        <path d="M-2570.7,1909.05C-2570.95,1909.06 -2571.2,1909.06 -2571.42,1909.05C-2571.2,1909.06 -2570.96,1909.06 -2570.7,1909.05Z" style="fill:rgb(0,175,156);fill-rule:nonzero;"/>
                    </g>
                    <g transform="matrix(1,0,0,1,-2284.19,-4155.89)">
                        <path d="M-2570.26,1895.23C-2572.33,1896.43 -2573.71,1897.62 -2573.59,1898.5C-2573.71,1897.62 -2572.33,1896.43 -2570.26,1895.23Z" style="fill:rgb(0,175,156);fill-rule:nonzero;"/>
                    </g>
                    <g transform="matrix(1,0,0,1,-2281.65,-4157.43)">
                        <path d="M-2558.77,1886.45C-2558.77,1886.45 -2558.9,1886.47 -2559.12,1886.52C-2558.9,1886.47 -2558.77,1886.45 -2558.77,1886.45Z" style="fill:rgb(0,175,156);fill-rule:nonzero;"/>
                    </g>
                    <g transform="matrix(1,0,0,1,-2281.95,-4157.35)">
                        <path d="M-2560.73,1886.9L-2560.83,1886.92L-2560.73,1886.9Z" style="fill:rgb(0,175,156);fill-rule:nonzero;"/>
                    </g>
                    <g transform="matrix(1,0,0,1,-2282.34,-4157.25)">
                        <path d="M-2562.88,1887.5L-2563.03,1887.54L-2562.88,1887.5Z" style="fill:rgb(0,175,156);fill-rule:nonzero;"/>
                    </g>
                    <g transform="matrix(1,0,0,1,-2285.16,-4157.1)">
                        <path d="M-2563.24,1888.36C-2564.75,1888.87 -2566.38,1889.48 -2568.03,1890.18C-2572.03,1891.75 -2575.76,1893.93 -2579.09,1896.65C-2575.76,1893.93 -2572.03,1891.75 -2568.03,1890.18C-2566.38,1889.48 -2564.75,1888.87 -2563.24,1888.36Z" style="fill:rgb(0,175,156);fill-rule:nonzero;"/>
                    </g>
                    <g transform="matrix(1,0,0,1,-2285.09,-4154.2)">
                        <path d="M-2575.92,1905.39C-2576.86,1905.33 -2577.79,1905.15 -2578.69,1904.87C-2577.79,1905.15 -2576.86,1905.33 -2575.92,1905.39Z" style="fill:rgb(0,175,156);fill-rule:nonzero;"/>
                    </g>
                    <g transform="matrix(1,0,0,1,-2285.16,-4158.36)">
                        <path d="M-2563.24,1889.62C-2562.16,1889.25 -2561.14,1888.93 -2560.21,1888.66C-2560.16,1888.64 -2560.11,1888.63 -2560.06,1888.61C-2559.14,1888.34 -2558.32,1888.11 -2557.62,1887.94L-2557.52,1887.91C-2556.64,1887.68 -2555.99,1887.53 -2555.62,1887.45C-2555.39,1887.4 -2555.26,1887.38 -2555.26,1887.38L-2548.84,1892.45C-2551.38,1891.97 -2558.64,1893.22 -2563.68,1895.11C-2565.62,1895.82 -2567.5,1896.69 -2569.29,1897.7C-2571.37,1898.89 -2572.74,1900.09 -2572.63,1900.97C-2572.61,1901.07 -2572.58,1901.17 -2572.53,1901.26C-2571.71,1902.62 -2568.7,1902.59 -2565.31,1901.52C-2561.91,1900.45 -2553.58,1897.4 -2548.01,1896.82C-2547.35,1896.76 -2546.7,1896.71 -2546.07,1896.7C-2544.34,1896.61 -2542.61,1896.87 -2540.98,1897.44L-2540.98,1892.15L-2560.04,1881.15L-2579.1,1892.15L-2579.1,1897.92C-2575.77,1895.2 -2572.03,1893.01 -2568.03,1891.45C-2566.38,1890.74 -2564.75,1890.14 -2563.24,1889.62Z" style="fill:rgb(0,175,156);fill-rule:nonzero;"/>
                    </g>
                    <g transform="matrix(1,0,0,1,-2285.16,-4154.96)">
                        <path d="M-2552.05,1911.44C-2555.98,1913.09 -2560.05,1914.41 -2564.2,1915.38C-2564.46,1915.44 -2564.64,1915.48 -2564.74,1915.5L-2564.81,1915.51L-2571.24,1910.43C-2571.06,1910.47 -2570.88,1910.49 -2570.71,1910.5C-2570.51,1910.52 -2570.3,1910.53 -2570.08,1910.54C-2569.85,1910.54 -2569.61,1910.54 -2569.36,1910.53C-2564.93,1910.22 -2560.56,1909.3 -2556.39,1907.78C-2552.82,1906.44 -2549.44,1904.67 -2548.08,1903.22C-2547.52,1902.62 -2547.29,1902.07 -2547.55,1901.63C-2548.37,1900.27 -2551.38,1900.3 -2554.77,1901.37C-2558.16,1902.44 -2566.49,1905.49 -2572.07,1906.07C-2573.33,1906.2 -2574.59,1906.23 -2575.85,1906.14C-2576.79,1906.08 -2577.72,1905.9 -2578.62,1905.61C-2578.78,1905.56 -2578.94,1905.51 -2579.09,1905.45L-2579.09,1910.74L-2560.04,1921.74L-2540.98,1910.74L-2540.98,1904.97C-2544.31,1907.69 -2548.05,1909.88 -2552.05,1911.44Z" style="fill:rgb(0,175,156);fill-rule:nonzero;"/>
                    </g>
                    <g transform="matrix(1,0,0,1,-2283.01,-4152.75)">
                        <path d="M-2566.34,1913.17C-2566.6,1913.23 -2566.79,1913.27 -2566.88,1913.29C-2566.79,1913.27 -2566.6,1913.23 -2566.34,1913.17Z" style="fill:rgb(0,175,156);fill-rule:nonzero;"/>
                    </g>
                    <g transform="matrix(1,0,0,1,-2282.93,-4154.3)">
                        <path d="M-2554.27,1910.79C-2558.2,1912.44 -2562.27,1913.75 -2566.42,1914.72C-2562.27,1913.75 -2558.2,1912.44 -2554.27,1910.79C-2550.27,1909.22 -2546.53,1907.04 -2543.2,1904.32C-2546.53,1907.04 -2550.27,1909.22 -2554.27,1910.79Z" style="fill:rgb(0,175,156);fill-rule:nonzero;"/>
                    </g>
                    <g transform="matrix(1,0,0,1,-2284.67,-4154.96)">
                        <path d="M-2548.03,1901.63C-2548.85,1900.27 -2551.86,1900.3 -2555.25,1901.37C-2558.64,1902.44 -2566.98,1905.49 -2572.55,1906.07C-2573.81,1906.2 -2575.07,1906.23 -2576.33,1906.14C-2575.07,1906.23 -2573.81,1906.2 -2572.55,1906.07C-2566.97,1905.49 -2558.64,1902.43 -2555.25,1901.37C-2551.86,1900.3 -2548.85,1900.27 -2548.03,1901.63C-2547.77,1902.07 -2548,1902.62 -2548.56,1903.22C-2548,1902.62 -2547.77,1902.07 -2548.03,1901.63Z" style="fill:rgb(0,175,156);fill-rule:nonzero;"/>
                    </g>
                    <g transform="matrix(1,0,0,1,-2283.91,-4153.48)">
                        <path d="M-2571.33,1909.06C-2571.55,1909.06 -2571.76,1909.04 -2571.96,1909.02C-2571.76,1909.04 -2571.55,1909.05 -2571.33,1909.06Z" style="fill:rgb(0,175,156);fill-rule:nonzero;"/>
                    </g>
                    <g transform="matrix(1,0,0,1,-2283.7,-4156.69)">
                        <path d="M-2550.3,1890.78C-2552.84,1890.3 -2560.1,1891.55 -2565.15,1893.44C-2567.09,1894.15 -2568.96,1895.02 -2570.76,1896.03C-2568.96,1895.02 -2567.09,1894.15 -2565.15,1893.44C-2560.1,1891.55 -2552.84,1890.3 -2550.3,1890.78Z" style="fill:rgb(0,175,156);fill-rule:nonzero;"/>
                    </g>
                    <g transform="matrix(1,0,0,1,-2284.19,-4156.04)">
                        <path d="M-2548.97,1894.5C-2554.55,1895.08 -2562.88,1898.13 -2566.27,1899.2C-2569.66,1900.27 -2572.67,1900.3 -2573.49,1898.94C-2573.54,1898.85 -2573.58,1898.75 -2573.59,1898.64C-2573.58,1898.75 -2573.54,1898.85 -2573.49,1898.94C-2572.67,1900.3 -2569.66,1900.27 -2566.27,1899.2C-2562.88,1898.13 -2554.54,1895.07 -2548.97,1894.5C-2548.31,1894.43 -2547.67,1894.39 -2547.03,1894.38C-2547.66,1894.39 -2548.31,1894.43 -2548.97,1894.5Z" style="fill:rgb(0,175,156);fill-rule:nonzero;"/>
                    </g>
                    <g transform="matrix(1,0,0,1,-2285.16,-4154.23)">
                        <path d="M-2578.62,1904.89C-2578.78,1904.84 -2578.94,1904.79 -2579.09,1904.73C-2578.94,1904.79 -2578.78,1904.84 -2578.62,1904.89Z" style="fill:rgb(0,175,156);fill-rule:nonzero;"/>
                    </g>
                    <g transform="matrix(1,0,0,1,-2281.94,-4157.42)">
                        <path d="M-2558.84,1886.51C-2559.21,1886.59 -2559.87,1886.75 -2560.74,1886.97C-2559.87,1886.75 -2559.21,1886.59 -2558.84,1886.51Z" style="fill:rgb(0,175,156);fill-rule:nonzero;"/>
                    </g>
                    <g transform="matrix(1,0,0,1,-2282.32,-4157.35)">
                        <path d="M-2560.46,1886.93C-2561.16,1887.11 -2561.98,1887.33 -2562.9,1887.6C-2561.98,1887.33 -2561.16,1887.11 -2560.46,1886.93Z" style="fill:rgb(0,175,156);fill-rule:nonzero;"/>
                    </g>
                    <g transform="matrix(1,0,0,1,-2282.79,-4157.24)">
                        <path d="M-2562.57,1887.54C-2563.5,1887.81 -2564.53,1888.14 -2565.61,1888.51C-2564.53,1888.13 -2563.5,1887.81 -2562.57,1887.54Z" style="fill:rgb(0,175,156);fill-rule:nonzero;"/>
                    </g>
                </g>
            </g>
        </g>
    </g>
</svg>
