<?xml version="1.0" encoding="UTF-8" standalone="no"?>
<!DOCTYPE svg PUBLIC "-//W3C//DTD SVG 1.1//EN" "http://www.w3.org/Graphics/SVG/1.1/DTD/svg11.dtd">
<svg width="100%" height="100%" viewBox="0 0 551 151" version="1.1" xmlns="http://www.w3.org/2000/svg" xmlns:xlink="http://www.w3.org/1999/xlink" xml:space="preserve" xmlns:serif="http://www.serif.com/" style="fill-rule:evenodd;clip-rule:evenodd;stroke-linejoin:round;stroke-miterlimit:2;">
    <g transform="matrix(1,0,0,1,-2279,0)">
        <g id="company-logo-fraunhofer-iis-white" transform="matrix(1,0,0,1,109.148,-606.84)">
            <rect x="2170.24" y="606.84" width="550" height="150.439" style="fill:none;"/>
            <clipPath id="_clip1">
                <rect x="2170.24" y="606.84" width="550" height="150.439"/>
            </clipPath>
            <g clip-path="url(#_clip1)">
                <g transform="matrix(2.2826,0,0,2.2826,-4777.45,-1712.03)">
                    <g transform="matrix(1,0,0,1,3043.23,1015.56)">
                        <path d="M0.635,39.945C9.929,35.159 23.543,27.425 39.703,16.115L39.703,12.32C25.481,21.623 11.018,29.096 0.635,34.038L0.635,39.945Z" style="fill:rgb(219,234,254);fill-rule:nonzero;"/>
                    </g>
                    <g transform="matrix(1,0,0,1,3043.23,1015.56)">
                        <path d="M0.635,28.609C10.983,24.393 25.446,17.879 39.703,9.4L39.703,7.526C26.304,14.173 12.382,18.334 0.635,20.927L0.635,28.609Z" style="fill:rgb(219,234,254);fill-rule:nonzero;"/>
                    </g>
                    <g transform="matrix(1,0,0,1,3043.23,1015.56)">
                        <path d="M39.704,39.963L39.704,20.87C30.809,28.368 22.001,34.861 14.601,39.963L39.704,39.963Z" style="fill:rgb(219,234,254);fill-rule:nonzero;"/>
                    </g>
                    <g transform="matrix(1,0,0,1,3043.23,1015.56)">
                        <path d="M9.605,39.963C16.631,35.792 25.161,30.348 33.654,23.986C35.635,22.501 37.659,20.971 39.704,19.39L39.704,17.024C27.132,26.449 14.301,34.305 4.277,39.963L9.605,39.963Z" style="fill:rgb(219,234,254);fill-rule:nonzero;"/>
                    </g>
                    <g transform="matrix(1,0,0,1,3043.23,1015.56)">
                        <path d="M0.635,18.15C12.062,16.14 26.042,12.525 39.703,6.033L39.703,3.904C25.937,10.084 12.157,12.705 0.635,13.637L0.635,18.15Z" style="fill:rgb(219,234,254);fill-rule:nonzero;"/>
                    </g>
                    <g transform="matrix(1,0,0,1,3043.23,1015.56)">
                        <path d="M0.635,0.697L0.635,11.635C1.488,11.582 2.359,11.521 3.247,11.452C12.747,10.721 25.712,9.043 39.703,2.993L39.703,0.697L0.635,0.697Z" style="fill:rgb(219,234,254);fill-rule:nonzero;"/>
                    </g>
                    <g transform="matrix(1,0,0,1,3043.23,1015.56)">
                        <path d="M52.86,39.945L58.111,39.945L58.111,28.465L66.962,28.465L66.962,24.339L58.111,24.339L58.111,17.889L67.413,17.889L67.413,13.764L52.86,13.764L52.86,39.945ZM71.012,39.945L76.038,39.945L76.038,32.854C76.038,30.08 76.038,24.977 80.125,24.977C81.025,24.977 81.925,25.125 82.377,25.39L82.377,20.327C81.851,20.176 81.327,20.176 80.838,20.176C77.838,20.176 75.775,23.217 75.55,25.013L75.475,25.013L75.475,20.627L71.012,20.627L71.012,39.945ZM86.127,25.953C87.814,24.676 89.951,23.853 92.09,23.853C95.051,23.853 96.44,24.903 96.44,28.016L93.665,28.016C91.565,28.016 89.089,28.2 87.176,29.14C85.263,30.08 83.878,31.766 83.878,34.657C83.878,38.329 87.214,40.395 90.627,40.395C92.915,40.395 95.428,39.195 96.589,37.056L96.666,37.056C96.705,37.655 96.705,38.926 96.89,39.945L101.315,39.945C101.202,38.441 101.128,37.09 101.089,35.629C101.052,34.204 101.015,32.74 101.015,30.79L101.015,28.315C101.015,22.612 98.578,20.176 92.69,20.176C90.551,20.176 87.927,20.74 85.976,21.64L86.127,25.953ZM88.675,34.356C88.675,31.391 92.013,31.016 94.264,31.016L96.44,31.016C96.44,32.518 96.215,33.903 95.388,34.994C94.601,36.04 93.403,36.719 91.865,36.719C90.065,36.719 88.675,36.004 88.675,34.356ZM122.958,20.627L117.929,20.627L117.929,30.08C117.929,32.552 117.142,36.493 113.504,36.493C110.279,36.493 110.241,33.303 110.241,30.94L110.241,20.627L105.216,20.627L105.216,32.818C105.216,37.168 107.204,40.395 111.78,40.395C114.404,40.395 116.58,39.195 118.117,37.318L118.194,37.318L118.194,39.945L122.958,39.945L122.958,20.627ZM128.135,39.945L133.159,39.945L133.159,30.489C133.159,28.016 133.948,24.075 137.585,24.075C140.807,24.075 140.846,27.266 140.846,29.627L140.846,39.945L145.876,39.945L145.876,27.753C145.876,23.403 143.885,20.176 139.311,20.176C136.684,20.176 134.546,21.04 132.973,23.253L132.893,23.253L132.893,20.627L128.135,20.627L128.135,39.945ZM151.048,39.945L156.073,39.945L156.073,30.489C156.073,28.016 156.862,24.075 160.501,24.075C163.725,24.075 163.762,27.266 163.762,29.627L163.762,39.945L168.784,39.945L168.784,27.753C168.784,23.403 166.798,20.176 162.225,20.176C159.6,20.176 157.423,21.377 156.153,23.253L156.073,23.253L156.073,11.814L151.048,11.814L151.048,39.945ZM171.973,30.417C171.973,35.965 175.69,40.395 182.065,40.395C188.477,40.395 192.19,35.965 192.19,30.417C192.19,24.039 187.805,20.176 182.065,20.176C176.364,20.176 171.973,24.039 171.973,30.417ZM177.225,29.814C177.225,26.927 178.8,24.075 182.065,24.075C185.366,24.075 186.94,26.853 186.94,29.814C186.94,33.041 185.93,36.493 182.065,36.493C178.235,36.493 177.225,33.003 177.225,29.814ZM197.216,39.945L202.239,39.945L202.239,24.302L206.628,24.302L206.628,20.627L202.239,20.627L202.239,18.226C202.239,16.727 202.766,15.263 204.458,15.263C205.542,15.263 206.18,15.676 206.628,15.941L207.042,11.776C206.067,11.551 204.643,11.363 203.368,11.363C199.389,11.363 197.216,14.063 197.216,17.927L197.216,20.627L193.505,20.627L193.505,24.302L197.216,24.302L197.216,39.945ZM213.266,28.391C213.495,25.803 214.917,23.853 217.729,23.853C220.546,23.853 221.671,25.953 221.817,28.391L213.266,28.391ZM225.194,34.769C223.317,35.817 221.219,36.719 218.778,36.719C215.671,36.719 213.495,34.958 213.266,31.84L226.616,31.84C226.616,25.089 224.593,20.176 217.428,20.176C211.43,20.176 208.468,24.789 208.468,30.377C208.468,36.719 212.178,40.395 218.557,40.395C221.259,40.395 223.354,39.87 225.194,38.856L225.194,34.769ZM230.221,39.945L235.245,39.945L235.245,32.854C235.245,30.08 235.245,24.977 239.331,24.977C240.233,24.977 241.134,25.125 241.585,25.39L241.585,20.327C241.053,20.176 240.532,20.176 240.044,20.176C237.046,20.176 234.983,23.217 234.759,25.013L234.68,25.013L234.68,20.627L230.221,20.627L230.221,39.945Z" style="fill:rgb(219,234,254);fill-rule:nonzero;"/>
                    </g>
                    <g transform="matrix(1,0,0,1,3043.23,1015.56)">
                        <rect x="222.239" y="53.281" width="2.537" height="13.098" style="fill:rgb(219,234,254);fill-rule:nonzero;"/>
                    </g>
                    <g transform="matrix(1,0,0,1,3043.23,1015.56)">
                        <rect x="228.186" y="53.281" width="2.538" height="13.098" style="fill:rgb(219,234,254);fill-rule:nonzero;"/>
                    </g>
                    <g transform="matrix(1,0,0,1,3043.23,1015.56)">
                        <path d="M238.034,55.121C237.815,55.121 237.598,55.146 237.382,55.196C237.151,55.246 236.932,55.34 236.727,55.476C236.534,55.603 236.372,55.789 236.239,56.04C236.106,56.277 236.04,56.578 236.04,56.94C236.04,57.216 236.124,57.446 236.292,57.635C236.462,57.823 236.675,57.992 236.927,58.141C237.206,58.292 237.509,58.429 237.833,58.555C238.149,58.691 238.481,58.836 238.831,58.986C239.182,59.123 239.52,59.287 239.846,59.474C240.184,59.674 240.481,59.918 240.735,60.205C240.989,60.48 241.2,60.812 241.37,61.2C241.505,61.576 241.58,62.023 241.588,62.541L241.588,62.685C241.554,64.079 241.09,65.078 240.19,65.685C239.284,66.298 238.167,66.604 236.837,66.604L236.807,66.604C236.167,66.603 235.627,66.553 235.186,66.454C234.727,66.367 234.196,66.248 233.591,66.099L233.827,63.733C234.721,64.259 235.677,64.528 236.692,64.541C237.212,64.541 237.714,64.402 238.198,64.127C238.68,63.853 238.928,63.427 238.94,62.851C238.94,62.539 238.868,62.269 238.723,62.045C238.553,61.819 238.341,61.632 238.089,61.482C237.532,61.182 236.897,60.894 236.184,60.619C235.833,60.468 235.501,60.294 235.186,60.093C234.86,59.905 234.557,59.681 234.28,59.418C234.026,59.143 233.815,58.811 233.645,58.424C233.475,58.036 233.391,57.578 233.391,57.054C233.417,55.603 233.882,54.563 234.788,53.938C235.659,53.35 236.667,53.056 237.815,53.056C238.905,53.056 239.913,53.214 240.844,53.526L240.608,55.683C239.798,55.32 238.94,55.134 238.034,55.121Z" style="fill:rgb(219,234,254);fill-rule:nonzero;"/>
                    </g>
                </g>
            </g>
        </g>
    </g>
</svg>
