<?xml version="1.0" encoding="UTF-8" standalone="no"?>
<!DOCTYPE svg PUBLIC "-//W3C//DTD SVG 1.1//EN" "http://www.w3.org/Graphics/SVG/1.1/DTD/svg11.dtd">
<svg width="100%" height="100%" viewBox="0 0 450 305" version="1.1" xmlns="http://www.w3.org/2000/svg" xmlns:xlink="http://www.w3.org/1999/xlink" xml:space="preserve" xmlns:serif="http://www.serif.com/" style="fill-rule:evenodd;clip-rule:evenodd;stroke-linejoin:round;stroke-miterlimit:2;">
    <g transform="matrix(1,0,0,1,-2362,-376)">
        <g id="company-logo-adidas-white" transform="matrix(1,0,0,1,2901,783.317)">
            <rect x="-539" y="-406.682" width="450" height="303.382" style="fill:none;"/>
            <clipPath id="_clip1">
                <rect x="-539" y="-406.682" width="450" height="303.382"/>
            </clipPath>
            <g clip-path="url(#_clip1)">
                <g transform="matrix(0.627266,0,0,0.627266,2940.57,1684.92)">
                    <g transform="matrix(1,0,0,1,-5610.01,-3773.44)">
                        <path d="M533.944,756.705L386.433,500.344L492.405,439.475L675.833,756.705L533.944,756.705" style="fill:rgb(219,234,254);fill-rule:nonzero;"/>
                    </g>
                    <g transform="matrix(1,0,0,1,-5610.01,-3773.44)">
                        <path d="M141.04,720.787L247.011,659.507L303.082,756.705L161.603,756.705L141.04,720.787" style="fill:rgb(219,234,254);fill-rule:nonzero;"/>
                    </g>
                    <g transform="matrix(1,0,0,1,-5610.01,-3773.44)">
                        <rect x="349.007" y="798.243" width="30.16" height="122.011" style="fill:rgb(219,234,254);fill-rule:nonzero;"/>
                    </g>
                    <g transform="matrix(1,0,0,1,-5610.01,-3773.44)">
                        <path d="M726.968,923.134C693.244,923.134 672.954,905.723 671.857,881.184L703.663,881.184C703.663,888.861 708.461,900.102 729.025,900.514C742.734,900.514 749.177,892.425 749.177,886.393C748.354,876.797 736.29,875.974 723.404,873.918C710.517,871.861 699.55,869.531 691.599,865.418C681.454,860.209 674.599,848.967 674.599,836.081C674.599,814.283 693.518,797.01 725.049,797.01C755.62,797.01 774.95,813.049 777.007,836.903L746.298,836.903C746.024,830.46 744.79,820.315 726.694,820.315C714.493,820.315 706.405,822.783 705.719,831.282C705.719,843.758 731.081,842.935 750.822,848.145C769.741,852.943 781.805,864.733 781.805,881.184C781.805,911.481 757.265,923.134 726.968,923.134" style="fill:rgb(219,234,254);fill-rule:nonzero;"/>
                    </g>
                    <g transform="matrix(1,0,0,1,-5610.01,-3773.44)">
                        <path d="M265.244,611.936L371.216,550.793L490.074,756.705L379.167,756.705L379.167,786.865L349.007,786.865L349.007,756.568L265.244,611.936" style="fill:rgb(219,234,254);fill-rule:nonzero;"/>
                    </g>
                    <g transform="matrix(1,0,0,1,-5610.01,-3773.44)">
                        <path d="M267.986,923.134C232.891,923.134 204.376,894.481 204.376,859.797C204.376,824.702 232.891,797.01 267.986,797.01C281.284,797.01 293.348,800.574 303.904,807.84L303.904,756.705L334.064,756.705L334.064,920.255L303.904,920.255L303.904,912.166C293.348,919.021 281.284,923.134 267.986,923.134ZM233.302,859.797C233.302,878.716 249.479,894.481 268.809,894.481C287.727,894.481 303.904,878.716 303.904,859.797C303.904,840.879 287.727,824.702 268.809,824.702C249.479,824.702 233.302,840.879 233.302,859.797" style="fill:rgb(219,234,254);fill-rule:nonzero;"/>
                    </g>
                    <g transform="matrix(1,0,0,1,-5610.01,-3773.44)">
                        <path d="M490.897,756.705L520.646,756.705L520.646,920.255L490.897,920.255L490.897,912.166C480.752,919.021 468.277,923.134 454.568,923.134C419.883,923.134 391.368,894.481 391.368,859.797C391.368,824.702 419.883,797.01 454.568,797.01C468.277,797.01 480.341,800.574 490.897,807.84L490.897,756.705ZM420.706,859.797C420.706,878.716 436.883,894.481 455.39,894.481C474.72,894.481 490.897,878.716 490.897,859.797C490.897,840.879 474.72,824.702 455.39,824.702C436.883,824.702 420.706,840.879 420.706,859.797" style="fill:rgb(219,234,254);fill-rule:nonzero;"/>
                    </g>
                    <g transform="matrix(1,0,0,1,-5610.01,-3773.44)">
                        <path d="M593.99,923.134C559.443,923.134 530.79,894.481 530.79,859.797C530.79,824.702 559.443,797.01 593.99,797.01C607.287,797.01 619.763,800.574 629.908,807.84L629.908,798.106L660.068,798.106L660.068,920.255L629.908,920.255L629.908,912.166C619.763,919.021 607.699,923.134 593.99,923.134ZM560.128,859.797C560.128,878.716 576.305,894.481 595.223,894.481C614.142,894.481 629.908,878.716 629.908,859.797C629.908,840.879 614.142,824.702 595.223,824.702C576.305,824.702 560.128,840.879 560.128,859.797" style="fill:rgb(219,234,254);fill-rule:nonzero;"/>
                    </g>
                    <g transform="matrix(1,0,0,1,-5610.01,-3773.44)">
                        <path d="M93.469,859.797C93.469,878.716 109.646,894.481 128.564,894.481C147.894,894.481 164.071,878.716 164.071,859.797C164.071,840.879 147.894,824.702 128.564,824.702C109.646,824.702 93.469,840.879 93.469,859.797ZM127.742,923.134C93.058,923.134 64.405,894.481 64.405,859.797C64.405,824.702 93.058,797.01 127.742,797.01C141.04,797.01 153.515,800.574 164.071,807.84L164.071,798.106L193.82,798.106L193.82,920.255L164.071,920.255L164.071,912.166C153.926,919.021 141.451,923.134 127.742,923.134" style="fill:rgb(219,234,254);fill-rule:nonzero;"/>
                    </g>
                </g>
            </g>
        </g>
    </g>
</svg>
