<?xml version="1.0" encoding="UTF-8" standalone="no"?>
<!DOCTYPE svg PUBLIC "-//W3C//DTD SVG 1.1//EN" "http://www.w3.org/Graphics/SVG/1.1/DTD/svg11.dtd">
<svg width="100%" height="100%" viewBox="0 0 550 152" version="1.1" xmlns="http://www.w3.org/2000/svg" xmlns:xlink="http://www.w3.org/1999/xlink" xml:space="preserve" xmlns:serif="http://www.serif.com/" style="fill-rule:evenodd;clip-rule:evenodd;stroke-linejoin:round;stroke-miterlimit:2;">
    <g transform="matrix(1,0,0,1,-692,-498)">
        <g id="company-logo-kicker-white" transform="matrix(1,0,0,1,1467.47,84.3909)">
            <rect x="-775.468" y="414.127" width="550" height="150.732" style="fill:none;"/>
            <clipPath id="_clip1">
                <rect x="-775.468" y="414.127" width="550" height="150.732"/>
            </clipPath>
            <g clip-path="url(#_clip1)">
                <g transform="matrix(0.537121,0,0,0.537121,2391.24,1428.56)">
                    <g>
                        <g>
                            <g id="path30156" transform="matrix(18.4397,0,0,18.4397,-5894.72,-1888.42)">
                                <path d="M31.844,0.094C31.503,0.094 31.25,0.343 31.25,0.688C31.25,1.018 31.41,1.077 31.688,1.156C31.784,1.184 31.969,1.219 31.969,1.344C31.969,1.462 31.854,1.531 31.75,1.531C31.6,1.531 31.486,1.441 31.375,1.344L31.188,1.688C31.361,1.809 31.568,1.906 31.781,1.906C31.954,1.906 32.117,1.863 32.25,1.75C32.386,1.634 32.437,1.451 32.438,1.281C32.438,1.005 32.236,0.884 32,0.813L31.906,0.781C31.829,0.755 31.688,0.724 31.688,0.625C31.688,0.531 31.824,0.469 31.906,0.469C32.014,0.469 32.106,0.526 32.188,0.594L32.375,0.25C32.224,0.164 32.015,0.094 31.844,0.094ZM35.906,0.094C35.416,0.094 34.938,0.454 34.938,0.969C34.938,1.52 35.36,1.906 35.906,1.906C36.454,1.906 36.844,1.52 36.844,0.969C36.844,0.454 36.396,0.094 35.906,0.094ZM46.875,0.094C46.326,0.094 45.938,0.447 45.938,1C45.938,1.536 46.309,1.906 46.844,1.906C47.129,1.906 47.394,1.795 47.563,1.563C47.714,1.351 47.715,1.155 47.719,0.906L46.844,0.906L46.844,1.25L47.219,1.25C47.201,1.448 47.036,1.531 46.844,1.531C46.553,1.531 46.406,1.265 46.406,1C46.406,0.741 46.552,0.469 46.844,0.469C47.023,0.469 47.158,0.588 47.219,0.75L47.625,0.563C47.479,0.244 47.225,0.094 46.875,0.094ZM33.094,0.156L33.094,1.844L33.531,1.844L33.531,1.281L33.781,1.281C34.169,1.281 34.406,1.12 34.406,0.719C34.406,0.327 34.147,0.156 33.781,0.156L33.094,0.156ZM37.5,0.156L37.5,1.844L37.938,1.844L37.938,1.188L38.375,1.844L38.906,1.844L38.375,1.156C38.618,1.114 38.751,0.891 38.75,0.656C38.75,0.293 38.493,0.156 38.156,0.156L37.5,0.156ZM39.344,0.156L39.344,0.531L39.719,0.531L39.719,1.844L40.156,1.844L40.156,0.531L40.531,0.531L40.531,0.156L39.344,0.156ZM41.313,0.156L41.031,1.844L41.469,1.844L41.625,0.875L42,1.844L42.188,1.844L42.594,0.875L42.719,1.844L43.156,1.844L42.906,0.156L42.469,0.156L42.094,1.063L41.75,0.156L41.313,0.156ZM44.313,0.156L43.656,1.844L44.125,1.844L44.25,1.563L44.844,1.563L44.969,1.844L45.438,1.844L44.781,0.156L44.313,0.156ZM48.875,0.156L48.219,1.844L48.688,1.844L48.813,1.563L49.438,1.563L49.531,1.844L50,1.844L49.375,0.156L48.875,0.156ZM50.625,0.156L50.625,0.531L51.281,0.531L50.469,1.844L51.938,1.844L51.938,1.469L51.219,1.469L52.031,0.156L50.625,0.156ZM52.656,0.156L52.656,1.844L53.094,1.844L53.094,0.156L52.656,0.156ZM53.844,0.156L53.844,1.844L54.281,1.844L54.281,0.813L55.094,1.844L55.531,1.844L55.531,0.156L55.094,0.156L55.094,1.188L54.281,0.156L53.844,0.156ZM33.531,0.5L33.625,0.5C33.798,0.5 33.937,0.505 33.938,0.719C33.938,0.928 33.786,0.937 33.625,0.938L33.531,0.938L33.531,0.5ZM37.938,0.5L37.969,0.5C38.114,0.5 38.281,0.501 38.281,0.688C38.281,0.871 38.114,0.906 37.969,0.906L37.938,0.906L37.938,0.5ZM35.906,0.531C36.17,0.531 36.375,0.734 36.375,0.969C36.375,1.263 36.17,1.469 35.906,1.469C35.643,1.469 35.406,1.263 35.406,0.969C35.406,0.734 35.643,0.531 35.906,0.531ZM44.563,0.688L44.75,1.219L44.375,1.219L44.563,0.688ZM49.125,0.688L49.313,1.219L48.938,1.219L49.125,0.688Z" style="fill:rgb(219,234,254);fill-rule:nonzero;"/>
                            </g>
                            <g id="path30180" transform="matrix(18.4397,0,0,18.4397,-5894.72,-1888.42)">
                                <path d="M14.344,0C13.125,0 12.125,1 12.125,2.219C12.125,3.436 13.125,4.406 14.344,4.406C15.561,4.406 16.531,3.436 16.531,2.219C16.531,1 15.561,0 14.344,0ZM0,0.156L0,14.938L3.906,14.938L3.906,11.094L4,11.156L7.125,14.938L12.219,14.938L7.5,9.781L11.969,5.156L6.938,5.156L4.656,7.875L4,8.656L3.906,8.719L3.906,0.156L0,0.156ZM25.625,0.156L25.625,14.938L29.531,14.938L29.531,11.094L29.656,11.156L32.75,14.938L37.875,14.938L33.156,9.781L37.594,5.156L32.594,5.156L30.281,7.875L29.656,8.656L29.531,8.719L29.531,0.156L25.625,0.156ZM22.313,4.875C19.3,4.875 17,7.076 17,10.125C17,13.194 19.351,15.219 22.344,15.219C23.736,15.219 24.845,14.685 24.844,14.688C24.844,14.688 24.815,11.404 24.813,11.406C24.406,11.741 23.693,12.125 23.063,12.125C21.859,12.125 20.969,11.22 20.969,10.031C20.969,8.848 21.878,7.969 23.063,7.969C23.721,7.969 24.336,8.324 24.844,8.719L24.844,5.438C24.074,5.08 23.177,4.875 22.313,4.875ZM41.688,4.875C38.525,4.875 36.219,6.87 36.219,10.125C36.219,13.496 38.788,15.219 41.969,15.219C44.189,15.219 46.51,14.16 47.094,11.844L43.344,11.844C43.06,12.428 42.596,12.719 41.938,12.719C40.637,12.719 40.094,11.895 40.094,10.688L47.25,10.688C47.25,10.693 47.281,10.319 47.281,10.25C47.281,6.955 45.018,4.875 41.688,4.875ZM54.844,5C53.971,5.034 52.649,5.292 51.875,6.688L51.813,6.688L51.844,5.156L47.938,5.156L47.938,14.938L51.844,14.938L51.844,11.063C51.844,9.538 52.369,8.437 54.063,8.438C54.628,8.438 55.041,8.562 55.531,8.844L55.531,5C55.377,5 55.135,4.989 54.844,5ZM12.375,5.156L12.375,14.938L16.281,14.938L16.281,5.156L12.375,5.156ZM41.875,7.25C42.722,7.25 43.419,7.871 43.531,8.719L40.125,8.719C40.256,7.815 40.954,7.25 41.875,7.25Z" style="fill:rgb(219,234,254);fill-rule:nonzero;"/>
                            </g>
                        </g>
                    </g>
                </g>
            </g>
        </g>
    </g>
</svg>
