<?xml version="1.0" encoding="UTF-8" standalone="no"?>
<!DOCTYPE svg PUBLIC "-//W3C//DTD SVG 1.1//EN" "http://www.w3.org/Graphics/SVG/1.1/DTD/svg11.dtd">
<svg width="100%" height="100%" viewBox="0 0 550 68" version="1.1" xmlns="http://www.w3.org/2000/svg" xmlns:xlink="http://www.w3.org/1999/xlink" xml:space="preserve" xmlns:serif="http://www.serif.com/" style="fill-rule:evenodd;clip-rule:evenodd;stroke-linejoin:round;stroke-miterlimit:2;">
    <g transform="matrix(1,0,0,1,-3668,-1084)">
        <g id="company-logo-paessler" transform="matrix(1,0,0,1,4408.9,1019.32)">
            <rect x="-740.897" y="64.709" width="550" height="67.925" style="fill:none;"/>
            <clipPath id="_clip1">
                <rect x="-740.897" y="64.709" width="550" height="67.925"/>
            </clipPath>
            <g clip-path="url(#_clip1)">
                <g id="Ebene_2" transform="matrix(0.464414,0,0,0.464414,-744.374,-179.406)">
                    <g id="Ebene_1-2">
                        <g>
                            <path d="M272.245,554.158L244.724,554.158L244.724,593.15L271.484,593.15C282.186,594.679 291.363,587.034 292.887,576.333L292.887,573.273C292.887,562.569 284.477,553.394 273.776,553.394C273.775,554.158 273.013,554.158 272.245,554.158M273.775,618.382L244.723,618.382L244.723,671.9L216.433,671.9L216.433,529.692L273.774,529.692C304.355,529.692 321.943,550.336 321.943,574.037C321.944,597.738 303.594,618.382 273.775,618.382" style="fill:rgb(0,38,91);fill-rule:nonzero;"/>
                            <path d="M385.397,571.743L402.985,623.733L367.047,623.733L385.397,571.743ZM373.934,529.692L320.414,672.664L350.227,672.664L359.405,647.434L411.395,647.434L419.805,672.664L449.624,672.664L396.104,529.692L373.934,529.692Z" style="fill:rgb(0,38,91);fill-rule:nonzero;"/>
                            <path d="M467.97,529.692L467.97,671.899L565.069,671.899L565.069,647.434L497.026,647.434L497.026,612.264L555.13,612.264L555.13,587.798L497.026,587.798L497.026,554.158L565.069,554.158L565.069,529.692L467.97,529.692Z" style="fill:rgb(0,38,91);fill-rule:nonzero;"/>
                            <path d="M633.88,673.429C611.709,673.429 594.889,668.84 580.359,654.315L598.71,635.967C608.649,644.375 621.648,648.964 634.642,648.198C651.462,648.198 660.64,642.083 660.64,630.613C660.64,626.027 659.111,621.438 656.051,618.382C652.23,615.323 647.641,613.793 642.29,613.028L624.702,610.734C614,609.969 604.828,605.382 596.412,599.267C588.769,591.621 584.948,581.682 585.711,570.978C585.711,545.747 604.828,527.4 636.934,527.4C654.522,525.87 671.342,531.986 684.34,544.22L665.99,561.805C657.58,554.922 646.873,551.101 636.171,551.863C620.881,551.863 613.233,560.276 613.233,570.213C613.233,574.037 614.763,577.861 617.822,580.153C621.649,583.212 626.232,585.507 631.583,585.507L649.171,587.798C659.111,588.564 669.051,592.387 677.461,598.503C685.871,606.913 689.692,617.617 688.925,629.084C688.161,658.139 664.461,673.429 633.88,673.429" style="fill:rgb(0,38,91);fill-rule:nonzero;"/>
                            <path d="M755.442,673.429C733.271,673.429 716.451,668.84 701.922,654.315L720.272,635.967C730.211,644.375 743.21,648.964 756.204,648.198C773.024,648.198 782.202,642.083 782.202,630.613C782.202,626.027 780.673,621.438 777.613,618.382C773.792,615.323 769.203,613.793 764.614,613.028L747.032,610.734C736.33,609.969 727.152,605.382 718.743,599.267C711.095,591.621 707.273,581.682 708.041,570.978C708.041,545.747 727.152,527.4 759.264,527.4C776.852,525.87 793.672,531.986 806.665,544.22L788.315,561.805C779.905,554.922 769.203,551.101 758.502,551.863C743.211,551.863 735.563,560.276 735.563,570.213C735.563,574.037 737.093,577.861 740.152,580.153C743.973,583.212 748.562,585.507 753.914,585.507L771.496,587.798C781.435,588.564 791.375,592.387 799.785,598.503C808.195,606.913 812.016,617.617 811.255,629.084C810.486,658.139 786.023,673.429 755.442,673.429" style="fill:rgb(0,38,91);fill-rule:nonzero;"/>
                            <path d="M837.246,529.692L837.246,671.899L932.816,671.899L932.816,647.434L866.304,647.434L866.304,529.692L837.246,529.692Z" style="fill:rgb(0,38,91);fill-rule:nonzero;"/>
                            <path d="M956.518,529.692L956.518,671.899L1053.62,671.899L1053.62,647.434L984.807,647.434L984.807,612.264L1042.91,612.264L1042.91,587.798L984.807,587.798L984.807,554.158L1053.62,554.158L1053.62,529.692L956.518,529.692Z" style="fill:rgb(0,38,91);fill-rule:nonzero;"/>
                            <path d="M1136.95,554.158L1110.19,554.158L1110.19,591.622L1136.95,591.622C1147.65,593.149 1156.83,585.507 1157.59,574.802C1158.36,564.098 1151.48,554.923 1140.77,554.158L1136.95,554.158M1159.12,671.899L1130.07,615.323L1109.43,615.323L1109.43,671.899L1080.38,671.899L1080.38,529.692L1138.48,529.692C1168.3,529.692 1185.88,549.571 1185.88,573.272C1186.65,590.092 1175.18,605.382 1159.12,610.734L1192,672.664L1159.12,671.899Z" style="fill:rgb(0,38,91);fill-rule:nonzero;"/>
                            <path d="M79.581,580.918C79.581,590.857 71.171,599.268 61.231,599.268C51.291,599.268 42.881,591.622 42.119,581.683C42.119,571.744 50.529,563.333 60.469,563.333C71.17,562.568 79.581,570.979 79.581,580.918M91.812,580.918C91.05,564.098 78.051,551.102 61.231,551.102C44.411,551.102 30.649,564.098 30.649,580.918C31.411,597.738 44.41,610.734 61.231,610.734C78.051,610.734 91.812,597.738 91.812,580.918M142.272,660.43L19.948,660.43L19.948,637.494C31.412,645.14 45.178,648.964 59.701,648.964C98.692,649.729 130.803,618.382 131.571,579.389C131.571,565.627 127.744,551.864 119.34,540.397L143.041,540.397L142.272,660.43ZM119.339,580.153C118.571,612.263 92.579,638.258 59.701,638.258C45.178,638.258 31.411,632.907 19.948,623.733L19.948,541.161L104.044,541.161C113.983,551.863 119.339,565.627 119.339,580.153M154.504,529.692L7.711,529.692L7.711,672.664L154.504,672.664L154.504,529.692Z" style="fill:rgb(0,38,91);fill-rule:nonzero;"/>
                            <path d="M272.245,554.158L244.724,554.158L244.724,593.15L271.484,593.15C282.186,594.679 291.363,587.034 292.887,576.333L292.887,573.273C292.887,562.569 284.477,553.394 273.776,553.394C273.775,554.158 273.013,554.158 272.245,554.158M273.775,618.382L244.723,618.382L244.723,671.9L216.433,671.9L216.433,529.692L273.774,529.692C304.355,529.692 321.943,550.336 321.943,574.037C321.944,597.738 303.594,618.382 273.775,618.382" style="fill:rgb(0,38,91);fill-rule:nonzero;"/>
                            <path d="M385.397,571.743L402.985,623.733L367.047,623.733L385.397,571.743ZM373.934,529.692L320.414,672.664L350.227,672.664L359.405,647.434L411.395,647.434L419.805,672.664L449.624,672.664L396.104,529.692L373.934,529.692Z" style="fill:rgb(0,38,91);fill-rule:nonzero;"/>
                            <path d="M467.97,529.692L467.97,671.899L565.069,671.899L565.069,647.434L497.026,647.434L497.026,612.264L555.13,612.264L555.13,587.798L497.026,587.798L497.026,554.158L565.069,554.158L565.069,529.692L467.97,529.692Z" style="fill:rgb(0,38,91);fill-rule:nonzero;"/>
                            <path d="M633.88,673.429C611.709,673.429 594.889,668.84 580.359,654.315L598.71,635.967C608.649,644.375 621.648,648.964 634.642,648.198C651.462,648.198 660.64,642.083 660.64,630.613C660.64,626.027 659.111,621.438 656.051,618.382C652.23,615.323 647.641,613.793 642.29,613.028L624.702,610.734C614,609.969 604.828,605.382 596.412,599.267C588.769,591.621 584.948,581.682 585.711,570.978C585.711,545.747 604.828,527.4 636.934,527.4C654.522,525.87 671.342,531.986 684.34,544.22L665.99,561.805C657.58,554.922 646.873,551.101 636.171,551.863C620.881,551.863 613.233,560.276 613.233,570.213C613.233,574.037 614.763,577.861 617.822,580.153C621.649,583.212 626.232,585.507 631.583,585.507L649.171,587.798C659.111,588.564 669.051,592.387 677.461,598.503C685.871,606.913 689.692,617.617 688.925,629.084C688.161,658.139 664.461,673.429 633.88,673.429" style="fill:rgb(0,38,91);fill-rule:nonzero;"/>
                            <path d="M755.442,673.429C733.271,673.429 716.451,668.84 701.922,654.315L720.272,635.967C730.211,644.375 743.21,648.964 756.204,648.198C773.024,648.198 782.202,642.083 782.202,630.613C782.202,626.027 780.673,621.438 777.613,618.382C773.792,615.323 769.203,613.793 764.614,613.028L747.032,610.734C736.33,609.969 727.152,605.382 718.743,599.267C711.095,591.621 707.273,581.682 708.041,570.978C708.041,545.747 727.152,527.4 759.264,527.4C776.852,525.87 793.672,531.986 806.665,544.22L788.315,561.805C779.905,554.922 769.203,551.101 758.502,551.863C743.211,551.863 735.563,560.276 735.563,570.213C735.563,574.037 737.093,577.861 740.152,580.153C743.973,583.212 748.562,585.507 753.914,585.507L771.496,587.798C781.435,588.564 791.375,592.387 799.785,598.503C808.195,606.913 812.016,617.617 811.255,629.084C810.486,658.139 786.023,673.429 755.442,673.429" style="fill:rgb(0,38,91);fill-rule:nonzero;"/>
                            <path d="M837.246,529.692L837.246,671.899L932.816,671.899L932.816,647.434L866.304,647.434L866.304,529.692L837.246,529.692Z" style="fill:rgb(0,38,91);fill-rule:nonzero;"/>
                            <path d="M956.518,529.692L956.518,671.899L1053.62,671.899L1053.62,647.434L984.807,647.434L984.807,612.264L1042.91,612.264L1042.91,587.798L984.807,587.798L984.807,554.158L1053.62,554.158L1053.62,529.692L956.518,529.692Z" style="fill:rgb(0,38,91);fill-rule:nonzero;"/>
                            <path d="M1136.95,554.158L1110.19,554.158L1110.19,591.622L1136.95,591.622C1147.65,593.149 1156.83,585.507 1157.59,574.802C1158.36,564.098 1151.48,554.923 1140.77,554.158L1136.95,554.158M1159.12,671.899L1130.07,615.323L1109.43,615.323L1109.43,671.899L1080.38,671.899L1080.38,529.692L1138.48,529.692C1168.3,529.692 1185.88,549.571 1185.88,573.272C1186.65,590.092 1175.18,605.382 1159.12,610.734L1192,672.664L1159.12,671.899Z" style="fill:rgb(0,38,91);fill-rule:nonzero;"/>
                            <path d="M79.581,580.918C79.581,590.857 71.171,599.268 61.231,599.268C51.291,599.268 42.881,591.622 42.119,581.683C42.119,571.744 50.529,563.333 60.469,563.333C71.17,562.568 79.581,570.979 79.581,580.918M91.812,580.918C91.05,564.098 78.051,551.102 61.231,551.102C44.411,551.102 30.649,564.098 30.649,580.918C31.411,597.738 44.41,610.734 61.231,610.734C78.051,610.734 91.812,597.738 91.812,580.918M142.272,660.43L19.948,660.43L19.948,637.494C31.412,645.14 45.178,648.964 59.701,648.964C98.692,649.729 130.803,618.382 131.571,579.389C131.571,565.627 127.744,551.864 119.34,540.397L143.041,540.397L142.272,660.43ZM119.339,580.153C118.571,612.263 92.579,638.258 59.701,638.258C45.178,638.258 31.411,632.907 19.948,623.733L19.948,541.161L104.044,541.161C113.983,551.863 119.339,565.627 119.339,580.153M154.504,529.692L7.711,529.692L7.711,672.664L154.504,672.664L154.504,529.692Z" style="fill:rgb(0,38,91);fill-rule:nonzero;"/>
                        </g>
                    </g>
                </g>
            </g>
        </g>
    </g>
</svg>
