<?xml version="1.0" encoding="UTF-8" standalone="no"?>
<!DOCTYPE svg PUBLIC "-//W3C//DTD SVG 1.1//EN" "http://www.w3.org/Graphics/SVG/1.1/DTD/svg11.dtd">
<svg width="100%" height="100%" viewBox="0 0 216 209" version="1.1" xmlns="http://www.w3.org/2000/svg" xmlns:xlink="http://www.w3.org/1999/xlink" xml:space="preserve" xmlns:serif="http://www.serif.com/" style="fill-rule:evenodd;clip-rule:evenodd;stroke-linecap:round;stroke-linejoin:round;stroke-miterlimit:1.5;">
    <g transform="matrix(1,0,0,1,-4174,-719)">
        <g id="scale-illustration" transform="matrix(1,0,0,1,-0.515401,-0.173424)">
            <rect x="4174.52" y="719.173" width="215.469" height="208.025" style="fill:none;"/>
            <clipPath id="_clip1">
                <rect x="4174.52" y="719.173" width="215.469" height="208.025"/>
            </clipPath>
            <g clip-path="url(#_clip1)">
                <g transform="matrix(1,0,0,1,0.515401,0.173424)">
                    <g transform="matrix(0.613073,0,0,0.613073,4486.83,-365.797)">
                        <circle cx="-451.491" cy="1813.21" r="12.841" style="fill:none;stroke:rgb(219,234,254);stroke-width:3.34px;"/>
                    </g>
                    <g transform="matrix(0.170615,0,0,0.170615,4286.57,436.471)">
                        <circle cx="-451.491" cy="1813.21" r="12.841" style="fill:none;stroke:rgb(219,234,254);stroke-width:12px;"/>
                    </g>
                    <g transform="matrix(0.613073,0,0,0.613073,4488.41,-363.108)">
                        <path d="M-358.395,2027.36L-348.012,1956.72L-348.321,1809.53L-441.237,1808.82" style="fill:none;stroke:rgb(219,234,254);stroke-width:3.34px;"/>
                    </g>
                    <g transform="matrix(0.613073,0,0,0.613073,4488.41,-363.108)">
                        <path d="M-348.012,1795.98L-449.233,1796.93" style="fill:none;stroke:rgb(219,234,254);stroke-width:3.34px;"/>
                    </g>
                    <g transform="matrix(-0.613073,0,0,0.613073,4077.71,-366.112)">
                        <circle cx="-451.491" cy="1813.21" r="12.841" style="fill:none;stroke:rgb(219,234,254);stroke-width:3.34px;"/>
                    </g>
                    <g transform="matrix(-0.170615,0,0,0.170615,4277.97,436.155)">
                        <circle cx="-451.491" cy="1813.21" r="12.841" style="fill:none;stroke:rgb(219,234,254);stroke-width:12px;"/>
                    </g>
                    <g transform="matrix(-0.613073,0,0,0.613073,4076.12,-363.423)">
                        <path d="M-346.883,1796.49L-448.103,1797.44" style="fill:none;stroke:rgb(219,234,254);stroke-width:3.34px;"/>
                    </g>
                    <g transform="matrix(0.613073,0,0,0.613073,4488.41,-363.108)">
                        <path d="M-324.964,1767.11C-324.964,1767.11 -319.264,1777.08 -324.711,1780.83L-315.227,1781.96L-315.227,1770.09C-315.227,1770.09 -314.244,1766.46 -324.964,1767.11Z" style="fill:rgb(219,234,254);fill-opacity:0.5;"/>
                    </g>
                    <g transform="matrix(1,0,0,1,4712.94,-68.2128)">
                        <g transform="matrix(0.613073,0,0,0.613073,-224.53,-294.895)">
                            <path d="M-348.012,1787.58C-348.012,1787.58 -331.446,1786.13 -331.446,1799.08C-331.446,1812.04 -332.553,1953.18 -332.553,1953.18L-322.305,2033C-322.305,2033 -315.951,2030.5 -315.227,2027.36C-314.503,2024.23 -325.61,1956.72 -325.61,1956.72L-324.964,1809.53C-324.964,1809.53 -329.973,1803.85 -325.61,1795.98L-325.61,1785.54C-325.61,1785.54 -318.967,1785.97 -315.227,1781.96C-315.227,1781.96 -324.844,1779.95 -341.804,1781.49L-342.417,1781.96L-348.012,1787.58Z" style="fill:rgb(219,234,254);fill-opacity:0.5;"/>
                        </g>
                        <g transform="matrix(0.613073,0,0,0.613073,-281.976,-298.342)">
                            <path d="M-225.468,2089.57C-225.468,2089.57 -222.323,2102.19 -225.468,2108.61C-225.468,2108.61 -138.85,2103.24 -142.075,2072.22L-142.64,2058.37C-142.64,2058.37 -149.917,2084.07 -225.468,2089.57Z" style="fill:rgb(219,234,254);fill-opacity:0.5;"/>
                        </g>
                        <g transform="matrix(0.613073,0,0,0.613073,-297.532,-310.009)">
                            <path d="M-190.537,2079.2C-190.537,2079.2 -186.051,2085.99 -189.195,2092.41C-189.195,2092.41 -145.691,2086.34 -142.075,2072.22L-142.64,2058.37C-142.64,2058.37 -145.975,2073.83 -190.537,2079.2Z" style="fill:rgb(219,234,254);fill-opacity:0.5;"/>
                        </g>
                        <g transform="matrix(0.613073,0,0,0.613073,-281.976,-298.342)">
                            <path d="M-243.11,2039.58L-207.047,2058.88C-207.047,2058.88 -189.038,2056.16 -185.394,2053.09L-222.268,2024.89L-221.492,2032.99C-221.492,2032.99 -231.372,2036.42 -243.11,2039.58Z" style="fill:rgb(219,234,254);fill-opacity:0.5;"/>
                        </g>
                        <g transform="matrix(-0.613073,0,0,0.613073,-721.824,-298.342)">
                            <path d="M-417.917,1948.68C-417.917,1948.68 -329.715,1971.06 -301.041,1950.44C-301.041,1950.44 -306.407,1965.19 -357.048,1965.03C-357.048,1965.03 -414.344,1964.04 -417.917,1948.68Z" style="fill:rgb(219,234,254);fill-opacity:0.5;"/>
                        </g>
                        <g transform="matrix(-0.613073,0,0,0.613073,-580.196,-298.423)">
                            <path d="M-417.917,1948.68C-417.917,1948.68 -329.715,1971.06 -301.041,1950.44C-301.041,1950.44 -306.407,1965.19 -357.048,1965.03C-357.048,1965.03 -414.344,1964.04 -417.917,1948.68Z" style="fill:rgb(219,234,254);fill-opacity:0.5;"/>
                        </g>
                        <g transform="matrix(-0.613073,0,0,-0.613073,-583.222,2092.5)">
                            <path d="M-403.957,1962.75C-403.957,1962.75 -338.346,1969.73 -305.06,1956.86C-305.06,1956.86 -296.252,1949.32 -345.355,1949.21C-345.889,1949.2 -424.203,1950.53 -422.706,1956.86C-422.706,1956.86 -420.532,1961.49 -403.957,1962.75Z" style="fill:rgb(219,234,254);fill-opacity:0.5;"/>
                        </g>
                        <g transform="matrix(-0.613073,-5.39425e-17,-5.39425e-17,-1.05355,-723.306,2957.9)">
                            <path d="M-421.087,1959.84C-421.087,1959.84 -363.915,1971.09 -305.06,1960.2C-305.06,1960.2 -301.996,1955.32 -352.637,1955.15C-352.637,1955.15 -423.009,1955.8 -421.087,1959.84Z" style="fill:rgb(219,234,254);fill-opacity:0.5;"/>
                        </g>
                    </g>
                    <g transform="matrix(0.613073,0,0,0.613073,4488.41,-363.108)">
                        <path d="M-510.125,1937.8C-510.125,1937.8 -516.86,1959.27 -453.778,1959.27C-390.695,1959.27 -392.001,1940.87 -392.48,1937.8" style="fill:none;stroke:rgb(219,234,254);stroke-width:3.34px;"/>
                    </g>
                    <g transform="matrix(0.613073,0,0,18.9177,4488.41,-38232.4)">
                        <path d="M-236.341,2068.21C-235.352,2068.55 -235.583,2068.84 -236.341,2068.92C-242.891,2069.65 -292.486,2069.95 -336.781,2069.95C-381.077,2069.95 -430.862,2069.65 -437.412,2068.92C-438.17,2068.84 -438.592,2068.55 -437.603,2068.21" style="fill:none;stroke:rgb(219,234,254);stroke-width:0.15px;"/>
                    </g>
                    <g transform="matrix(0.595351,0,0,14.0206,4482.43,-28108.9)">
                        <path d="M-262.67,2067.49C-244.519,2067.76 -233.335,2068.14 -233.335,2068.55C-233.335,2069.38 -279.768,2070.06 -336.961,2070.06C-394.154,2070.06 -440.587,2069.38 -440.587,2068.55C-440.587,2068.13 -429.196,2067.76 -410.748,2067.49" style="fill:none;stroke:rgb(219,234,254);stroke-width:0.21px;"/>
                    </g>
                    <g transform="matrix(0.445234,0,0,9.70003,4431.95,-19182.1)">
                        <path d="M-310.194,2067.09C-265.957,2067.26 -233.335,2067.85 -233.335,2068.55C-233.335,2069.38 -279.768,2070.06 -336.961,2070.06C-394.154,2070.06 -440.587,2069.38 -440.587,2068.55C-440.587,2067.84 -407.604,2067.25 -362.995,2067.08" style="fill:none;stroke:rgb(219,234,254);stroke-width:0.3px;"/>
                    </g>
                    <g transform="matrix(0.613073,0,0,0.613073,4488.41,-363.108)">
                        <path d="M-492.754,1932.09L-454.077,1821.66L-403.403,1933.12" style="fill:none;stroke:rgb(219,234,254);stroke-width:3.34px;"/>
                    </g>
                    <g transform="matrix(0.628062,0,0,39.2367,4493.05,-78659.1)">
                        <path d="M-315.094,2027.16C-315.094,2027.22 -324.534,2027.26 -336.162,2027.26C-347.79,2027.26 -357.231,2027.22 -357.231,2027.16" style="fill:none;stroke:rgb(219,234,254);stroke-width:0.07px;"/>
                    </g>
                    <g transform="matrix(-0.613073,0,0,0.613073,4076.12,-363.423)">
                        <path d="M-357.265,2027.88L-346.883,1957.24L-347.192,1810.05L-440.107,1809.34" style="fill:none;stroke:rgb(219,234,254);stroke-width:3.34px;"/>
                    </g>
                    <g transform="matrix(-0.613073,0,0,0.613073,4076.78,-363.423)">
                        <path d="M-508.996,1938.32C-508.996,1938.32 -515.73,1959.79 -452.648,1959.79C-389.566,1959.79 -390.871,1941.38 -391.35,1938.32" style="fill:none;stroke:rgb(219,234,254);stroke-width:3.34px;"/>
                    </g>
                    <g transform="matrix(-0.613073,0,0,0.613073,4076.12,-363.423)">
                        <path d="M-491.377,1931.9L-454.077,1821.66L-402.421,1933.32" style="fill:none;stroke:rgb(219,234,254);stroke-width:3.34px;"/>
                    </g>
                    <g transform="matrix(0.458487,0,0,13.088,4436.42,-26186)">
                        <path d="M-236.341,2068.21C-235.352,2068.55 -235.583,2068.84 -236.341,2068.92C-242.891,2069.65 -292.486,2069.95 -336.781,2069.95C-381.077,2069.95 -430.862,2069.65 -437.412,2068.92C-438.17,2068.84 -438.592,2068.55 -437.603,2068.21" style="fill:none;stroke:rgb(219,234,254);stroke-width:0.22px;"/>
                    </g>
                    <g transform="matrix(0.613073,0,0,0.613073,4488.41,-363.108)">
                        <path d="M-315.227,1781.96C-315.227,1781.96 -323.659,1779.76 -341.804,1781.49" style="fill:none;stroke:rgb(219,234,254);stroke-width:3.34px;"/>
                    </g>
                    <g transform="matrix(-0.613073,0,0,0.613073,4076.12,-363.423)">
                        <path d="M-346.883,1796.49L-346.883,1785.9C-346.883,1785.9 -353.343,1786.84 -357.265,1782.8L-357.265,1770.61C-357.265,1770.61 -355.501,1767.64 -351.215,1767.64C-346.929,1767.64 -335.681,1767.52 -335.681,1767.52" style="fill:none;stroke:rgb(219,234,254);stroke-width:3.34px;"/>
                    </g>
                    <g transform="matrix(0.613073,0,0,0.613073,4488.41,-363.108)">
                        <path d="M-348.012,1795.98L-348.012,1785.39C-348.012,1785.39 -354.472,1786.33 -358.395,1782.29L-358.395,1770.09C-358.395,1770.09 -356.63,1767.12 -352.344,1767.12C-348.058,1767.12 -336.811,1767.01 -336.811,1767.01" style="fill:none;stroke:rgb(219,234,254);stroke-width:3.34px;"/>
                    </g>
                    <g transform="matrix(-0.616394,0,0,1.04695,4074.82,-1200.7)">
                        <ellipse cx="-450.986" cy="1934.46" rx="58.506" ry="4.719" style="fill:none;stroke:rgb(219,234,254);stroke-width:2.38px;"/>
                    </g>
                    <g transform="matrix(-0.613073,0,0,0.613073,4076.12,-363.423)">
                        <path d="M-459.768,1945.78L-454.077,1821.66" style="fill:none;stroke:rgb(219,234,254);stroke-width:3.34px;stroke-linecap:butt;"/>
                    </g>
                    <g transform="matrix(0.616394,0,0,1.04695,4489.71,-1200.38)">
                        <ellipse cx="-450.986" cy="1934.46" rx="58.506" ry="4.719" style="fill:none;stroke:rgb(219,234,254);stroke-width:2.38px;"/>
                    </g>
                    <g transform="matrix(0.613073,0,0,0.613073,4488.41,-363.108)">
                        <path d="M-460.931,1945.75L-454.077,1821.66" style="fill:none;stroke:rgb(219,234,254);stroke-width:3.34px;stroke-linecap:butt;"/>
                    </g>
                </g>
            </g>
        </g>
    </g>
</svg>
